<svg width="93" height="93" viewBox="0 0 93 93" fill="none" xmlns="http://www.w3.org/2000/svg">
<rect x="0.5" y="0.5" width="92" height="92" rx="46" fill="white" stroke="#DEE6E9"/>
<path d="M70.9495 34.6329C70.3614 32.4306 68.639 30.6941 66.4545 30.1012C62.4636 29 46.4999 29 46.4999 29C46.4999 29 30.5362 29 26.5453 30.0588C24.4028 30.6518 22.6384 32.4306 22.0502 34.6329C21 38.6565 21 47 21 47C21 47 21 55.3859 22.0502 59.3671C22.6384 61.5694 24.3608 63.3059 26.5453 63.8988C30.5782 65 46.4999 65 46.4999 65C46.4999 65 62.4636 65 66.4545 63.9412C68.639 63.3482 70.3614 61.6118 70.9495 59.4094C71.9998 55.3859 71.9998 47.0424 71.9998 47.0424C71.9998 47.0424 72.0418 38.6565 70.9495 34.6329Z" fill="#6974A9"/>
<path d="M54.6918 47L41.4167 39.2917V54.7082L54.6918 47Z" fill="white"/>
</svg>
