<svg width="36" height="36" viewBox="0 0 36 36" fill="none" xmlns="http://www.w3.org/2000/svg">
<path d="M0.499997 18C0.499999 8.33502 8.33502 0.500001 18 0.500003C27.665 0.500005 35.5 8.33502 35.5 18C35.5 27.665 27.665 35.5 18 35.5C8.33501 35.5 0.499995 27.665 0.499997 18Z" fill="white" stroke="#AFB4BF"/>
<g clip-path="url(#clip0)">
<path d="M22.7995 18.9909L17.1568 24.7931C17.0463 24.9072 16.9009 24.9786 16.7452 24.9951C16.5894 25.0116 16.4329 24.9722 16.3022 24.8836L16.2017 24.7931L16.1137 24.6897C16.0402 24.5769 16.001 24.4443 16.001 24.3085C16.001 24.1728 16.0402 24.0401 16.1137 23.9273L16.2017 23.8239C16.229 23.7872 16.2632 23.7565 16.3022 23.7335L20.9018 18.9909C21.0277 18.8603 21.0983 18.6838 21.0983 18.4999C21.0983 18.316 21.0277 18.1395 20.9018 18.0088L16.3022 13.2404L16.2017 13.15C16.113 13.0339 16.0648 12.8905 16.0648 12.7429C16.0648 12.5953 16.113 12.4519 16.2017 12.3358L16.2896 12.2325L16.3902 12.142C16.5018 12.0653 16.633 12.0244 16.7672 12.0244C16.9014 12.0244 17.0326 12.0653 17.1442 12.142L17.2447 12.2325L22.4225 17.5436L22.8875 18.0347C22.9947 18.1753 23.0453 18.3529 23.029 18.5308C23.0126 18.7087 22.9305 18.8734 22.7995 18.9909Z" fill="#AFB4BF"/>
</g>
<defs>
<clipPath id="clip0">
<rect width="7" height="13" fill="white" transform="translate(16 12)"/>
</clipPath>
</defs>
</svg>
