<svg width="121" height="36" viewBox="0 0 121 36" fill="none" xmlns="http://www.w3.org/2000/svg">
<path d="M18.1621 0.0593262C8.16293 0.0593262 0.0566406 8.09354 0.0566406 18.004C0.0566406 27.915 8.16293 35.9485 18.1621 35.9485C28.1623 35.9485 36.2677 27.915 36.2677 18.004C36.2677 8.09418 28.1623 0.0601833 18.1619 0.0601833L18.1621 0.0593262ZM26.4651 25.9408C26.1408 26.4679 25.4446 26.635 24.9128 26.3115C20.6618 23.7379 15.3104 23.155 9.00807 24.5822C8.40076 24.7193 7.79539 24.3422 7.65702 23.74C7.518 23.1379 7.89701 22.5379 8.50583 22.4008C15.4027 20.839 21.3186 21.5115 26.0911 24.4022C26.6229 24.7258 26.7916 25.4136 26.4651 25.9408ZM28.6812 21.0546C28.2726 21.7129 27.4034 21.9208 26.7397 21.5158C21.873 18.5509 14.4544 17.6923 8.69804 19.4241C7.95149 19.6476 7.163 19.2306 6.93642 18.492C6.71157 17.752 7.13251 16.972 7.87776 16.747C14.4531 14.7696 22.6275 15.7275 28.2164 19.1314C28.8801 19.5364 29.0898 20.3978 28.6812 21.0548V21.0546ZM28.8714 15.9666C23.0361 12.5314 13.4087 12.2155 7.83733 13.8915C6.94269 14.1604 5.99659 13.6598 5.72547 12.7731C5.45435 11.886 5.95897 10.9489 6.85426 10.6793C13.2497 8.75504 23.8815 9.12683 30.5998 13.0798C31.4062 13.5531 31.67 14.5832 31.1922 15.3797C30.7165 16.1773 29.6744 16.4402 28.8723 15.9666H28.8714ZM49.3155 16.6249C46.1893 15.886 45.6336 15.3675 45.6336 14.2778C45.6336 13.2484 46.6109 12.5556 48.0659 12.5556C49.4755 12.5556 50.8722 13.0817 52.3381 14.1647C52.3813 14.1975 52.4375 14.2105 52.4916 14.202C52.5478 14.1938 52.5953 14.164 52.6278 14.1193L54.1542 11.9867C54.2169 11.8988 54.1996 11.7778 54.1152 11.7107C52.3705 10.3236 50.4074 9.64925 48.1113 9.64925C44.7364 9.64925 42.3776 11.6569 42.3776 14.5294C42.3776 17.6098 44.4121 18.7005 47.9275 19.5424C50.9176 20.2253 51.4235 20.7975 51.4235 21.82C51.4235 22.9536 50.403 23.6586 48.7599 23.6586C46.9352 23.6586 45.4455 23.0479 43.7808 21.6208C43.7397 21.5843 43.6835 21.5693 43.6316 21.5715C43.5754 21.5758 43.5256 21.6015 43.4911 21.6422L41.7787 23.6608C41.7074 23.7465 41.716 23.8708 41.7982 23.9436C43.7354 25.6579 46.1179 26.5622 48.6907 26.5622C52.3272 26.5622 54.6774 24.5929 54.6774 21.5436C54.6839 18.9707 53.1294 17.5457 49.322 16.6277L49.3155 16.6249ZM62.906 13.5692C61.3299 13.5692 60.037 14.1846 58.969 15.4457V14.0263C58.969 13.9142 58.8782 13.8229 58.7658 13.8229H55.9659C55.8535 13.8229 55.7627 13.9142 55.7627 14.0263V29.7979C55.7627 29.9093 55.8535 30.0015 55.9659 30.0015H58.7658C58.8782 30.0015 58.969 29.9093 58.969 29.7979V24.82C60.037 26.005 61.3299 26.5858 62.906 26.5858C65.8356 26.5858 68.8019 24.3508 68.8019 20.0781C68.8062 15.8046 65.8399 13.569 62.9082 13.569L62.906 13.5692ZM65.5459 20.0781C65.5459 22.2529 64.1946 23.7722 62.2574 23.7722C60.344 23.7722 58.8998 22.1843 58.8998 20.0781C58.8998 17.9717 60.344 16.3843 62.2574 16.3843C64.1622 16.384 65.5459 17.9372 65.5459 20.0779V20.0781ZM76.4014 13.5692C72.6287 13.5692 69.6732 16.4483 69.6732 20.1246C69.6732 23.7615 72.6092 26.6093 76.356 26.6093C80.1417 26.6093 83.1058 23.74 83.1058 20.0781C83.1058 16.4286 80.1611 13.5696 76.4014 13.5696V13.5692ZM76.4014 23.7936C74.395 23.7936 72.8816 22.195 72.8816 20.077C72.8816 17.9494 74.3431 16.4055 76.356 16.4055C78.3753 16.4055 79.8974 18.0034 79.8974 20.1235C79.8974 22.2508 78.4272 23.7936 76.4014 23.7936ZM91.1615 13.8229H88.0806V10.7016C88.0806 10.5898 87.9898 10.4985 87.8774 10.4985H85.0776C84.9652 10.4985 84.8722 10.5898 84.8722 10.7016V13.8229H83.5274C83.415 13.8229 83.3242 13.9142 83.3242 14.0263V16.4106C83.3242 16.5225 83.415 16.614 83.5274 16.614H84.8722V22.7843C84.8722 25.2765 86.124 26.5408 88.5952 26.5408C89.5984 26.5408 90.4308 26.335 91.2156 25.8936C91.2804 25.8593 91.3194 25.7908 91.3194 25.7179V23.4465C91.3194 23.3779 91.2826 23.3115 91.2221 23.275C91.1615 23.2365 91.0859 23.2343 91.0232 23.2665C90.4848 23.5343 89.9638 23.6586 89.38 23.6586C88.4828 23.6586 88.0806 23.2536 88.0806 22.3493V16.615H91.1615C91.274 16.615 91.3648 16.5238 91.3648 16.4117V14.0275C91.3691 13.9155 91.2783 13.8242 91.1637 13.8242L91.1615 13.8229ZM101.894 13.8351V13.4518C101.894 12.324 102.331 11.821 103.308 11.821C103.892 11.821 104.361 11.9359 104.886 12.1095C104.951 12.1296 105.018 12.1195 105.07 12.0812C105.124 12.0428 105.154 11.9813 105.154 11.9162V9.57833C105.154 9.48897 105.098 9.4099 105.009 9.38354C104.456 9.22004 103.747 9.05225 102.683 9.05225C100.099 9.05225 98.7308 10.4953 98.7308 13.2238V13.8109H97.386C97.2736 13.8109 97.1806 13.9022 97.1806 14.014V16.4106C97.1806 16.5225 97.2736 16.614 97.386 16.614H98.7308V26.1293C98.7308 26.2429 98.8237 26.3329 98.9362 26.3329H101.734C101.848 26.3329 101.939 26.2429 101.939 26.1293V16.6146H104.553L108.557 26.1293C108.103 27.1279 107.656 27.3272 107.046 27.3272C106.553 27.3272 106.032 27.1815 105.502 26.8922C105.453 26.8665 105.392 26.8622 105.34 26.8772C105.286 26.8965 105.241 26.935 105.219 26.9865L104.27 29.05C104.224 29.1486 104.263 29.2622 104.359 29.3136C105.349 29.845 106.242 30.0722 107.346 30.0722C109.413 30.0722 110.557 29.1165 111.562 26.5493L116.418 14.1128C116.444 14.0503 116.436 13.9795 116.397 13.924C116.36 13.869 116.297 13.8358 116.23 13.8358H113.316C113.227 13.8358 113.149 13.8908 113.121 13.972L110.135 22.4222L106.866 13.9665C106.836 13.8878 106.761 13.8358 106.676 13.8358H101.894V13.8351ZM95.6715 13.8229H92.8717C92.7593 13.8229 92.6663 13.9142 92.6663 14.0263V26.1293C92.6663 26.2429 92.7593 26.3329 92.8717 26.3329H95.6715C95.7839 26.3329 95.8769 26.2429 95.8769 26.1293V14.0271C95.8769 13.915 95.7861 13.8238 95.6715 13.8238V13.8229ZM94.2878 8.31168C93.1787 8.31168 92.2793 9.2014 92.2793 10.3005C92.2793 11.4002 93.1787 12.291 94.2878 12.291C95.3969 12.291 96.2942 11.4002 96.2942 10.3005C96.2942 9.20161 95.3948 8.31168 94.2878 8.31168ZM118.809 17.7145C117.703 17.7145 116.84 16.8328 116.84 15.762C116.84 14.6912 117.713 13.7993 118.82 13.7993C119.927 13.7993 120.79 14.6809 120.79 15.7508C120.79 16.8216 119.916 17.7145 118.809 17.7145ZM118.82 13.9935C117.811 13.9935 117.047 14.7885 117.047 15.762C117.047 16.735 117.806 17.5193 118.809 17.5193C119.819 17.5193 120.582 16.725 120.582 15.7508C120.582 14.7778 119.823 13.9935 118.82 13.9935ZM119.257 15.9516L119.815 16.7248H119.344L118.842 16.0155H118.412V16.7248H118.018V14.6753H118.939C119.421 14.6753 119.737 14.919 119.737 15.3291C119.739 15.6651 119.542 15.8704 119.259 15.9516H119.257ZM118.924 15.027H118.412V15.6752H118.924C119.179 15.6752 119.333 15.5511 119.333 15.3508C119.333 15.1399 119.179 15.027 118.924 15.027Z" fill="#6974A9"/>
</svg>
