<svg width="180" height="38" viewBox="0 0 180 38" fill="none" xmlns="http://www.w3.org/2000/svg">
<path d="M36.4862 5.64551C35.6317 3.62449 33.9241 2.09035 31.8461 1.46599C30.435 1.11202 28.9814 0.958401 27.5131 1.00988L10.9885 1.00963C9.53485 0.958401 8.08125 1.11202 6.68857 1.46092C4.58704 2.09187 2.87626 3.63195 2.03514 5.63014C1.4924 7.26147 1.25355 8.97912 1.33094 10.716L1.33052 27.3027C1.25354 29.0208 1.49239 30.7385 2.02382 32.3398C2.87626 34.3681 4.58705 35.9081 6.67016 36.534C8.08125 36.888 9.53485 37.0416 11.0031 36.9901L27.5277 36.9904C28.9813 37.0416 30.4349 36.888 31.8276 36.5391C33.9291 35.9081 35.6399 34.3681 36.481 32.3699C37.0237 30.7385 37.2626 29.0208 37.1852 27.2839L37.1856 10.6972C37.2624 8.98451 37.0253 7.27226 36.4862 5.64551Z" fill="white" stroke="#E5E5E5"/>
<path d="M18.9327 33.1972C25.1994 33.1972 30.2795 28.1068 30.2795 21.8275C30.2795 15.5482 25.1994 10.4578 18.9327 10.4578C12.6661 10.4578 7.58594 15.5482 7.58594 21.8275C7.58594 28.1068 12.6661 33.1972 18.9327 33.1972Z" fill="#CFD5F2"/>
<path d="M24.6139 10.2382L24.614 20.8747L24.5889 20.8831C24.5889 20.8876 24.5889 20.8921 24.5889 20.8967C24.5889 21.937 24.5136 22.9074 24.373 23.4027C23.6969 25.7847 21.5095 27.5124 18.9155 27.5124C15.7822 27.5124 13.2754 24.9755 13.2754 21.8358C13.2754 18.6962 15.7822 16.1593 18.9155 16.1593C20.3919 16.1593 21.7365 16.7244 22.7458 17.6504C23.0756 17.953 23.3695 18.2941 23.6206 18.6666C23.5509 18.3332 23.4823 17.9137 23.4823 17.5552V9.31189V4.76733L30.8668 7.03461V12.1693L24.6139 10.2382Z" fill="#6974A9"/>
<path fill-rule="evenodd" clip-rule="evenodd" d="M55.341 30.7211H52.704V22.1481L46.9961 6.77697H49.8668L54.0726 18.6318L58.9127 4.29883H61.5497L55.341 22.2486V30.7211ZM66.7569 27.4058V21.9137H66.4565C63.2187 21.9137 62.5177 23.3537 62.5177 25.5304C62.5177 27.4728 63.1519 28.7453 64.4871 28.7453C65.3884 28.7453 66.2896 28.1425 66.7569 27.4058ZM69.3272 26.9035C69.3272 28.5109 69.4941 29.9174 69.6276 30.7211H67.4245C67.3244 30.3528 67.2243 29.817 67.1909 29.3816H67.024C66.2896 30.3193 65.355 30.9556 63.8863 30.9556C61.4829 30.9556 59.8473 29.1472 59.8473 25.8318C59.8473 22.2151 61.6832 19.9379 66.3898 19.9379H66.7569V18.9332C66.7569 16.723 66.0226 15.7853 64.5539 15.7853C63.2187 15.7853 62.0838 16.4886 61.2159 17.2588L60.7152 14.9481C61.4829 14.3118 63.0184 13.6086 64.7208 13.6086C67.6916 13.6086 69.3272 14.8811 69.3272 18.9667V26.9035ZM75.1686 17.6272V30.7211H72.565V13.8095H75.1686V15.283H75.3355C75.8029 14.6467 77.0713 13.6086 78.6401 13.6086C80.8432 13.6086 82.0115 14.8477 82.0115 17.4263V30.7211H79.3745V17.6607C79.3745 16.3881 78.807 15.9528 77.8056 15.9528C76.7041 15.9528 75.7695 16.79 75.1686 17.6272ZM89.6889 30.9556C86.3843 30.9556 84.5817 28.1425 84.5817 22.9184C84.5817 16.656 86.9183 13.6086 90.2897 13.6086C91.0908 13.6086 91.9253 13.8765 92.426 14.2449V6.77697H95.0296V30.7211H93.0936L92.8933 29.3816H92.7264C91.9921 30.3193 91.0574 30.9556 89.6889 30.9556ZM92.426 27.4393V16.5556C91.8919 16.0198 91.3245 15.7518 90.4566 15.7518C88.3537 15.7518 87.3523 18.9332 87.3523 22.3825C87.3523 26.3342 88.0866 28.7453 89.9893 28.7453C91.2911 28.7453 91.9921 28.109 92.426 27.4393ZM107.28 29.5825C106.212 30.4197 104.91 30.9556 103.241 30.9556C99.7696 30.9556 97.6332 28.176 97.6332 22.9853C97.6332 17.5602 99.1353 13.6086 102.707 13.6086C105.511 13.6086 107.347 15.7184 107.347 21.4449V22.8849H100.337C100.337 26.7025 101.405 28.7118 103.475 28.7118C104.943 28.7118 106.012 28.0421 106.679 27.5732L107.28 29.5825ZM102.707 15.7518C101.105 15.7518 100.537 17.7277 100.37 20.7416H104.676C104.676 17.8616 104.209 15.7518 102.707 15.7518ZM116.126 13.843H118.663L115.525 21.7463L119.03 30.7211H116.326L113.722 23.7556L111.185 30.7211H108.615L112.12 21.9807L108.949 13.843H111.653L113.822 19.9714L116.126 13.843ZM128.109 9.45603C128.109 10.7621 128.076 12.7044 128.009 14.3453L127.308 30.7211H125.939L126.974 6.77697H128.81L132.382 21.5453C132.682 22.7174 132.849 23.856 132.949 24.8607H133.016C133.116 23.856 133.316 22.7174 133.617 21.5453L137.288 6.77697H139.158L140.192 30.7211H138.59L137.889 14.2114C137.789 12.336 137.823 10.896 137.823 9.42255H137.722C137.522 10.9295 137.288 12.336 136.921 13.7425L133.583 26.9704H132.281L128.977 13.7425C128.643 12.4365 128.376 11.097 128.209 9.45603H128.109ZM147.302 29.7165C149.005 29.7165 150.206 28.31 151.041 26.1667V13.843H152.61V30.7211H151.174L151.108 27.9416H151.041C150.574 29.1472 149.339 31.056 147.035 31.056C144.799 31.056 143.53 29.4151 143.53 26.4011V13.843H145.099V26.2002C145.099 28.5444 145.8 29.7165 147.302 29.7165ZM158.585 31.056C156.715 31.056 155.647 30.4197 155.013 29.8839L155.347 28.5109C156.148 29.2142 156.949 29.7835 158.551 29.7835C160.22 29.7835 161.222 28.4774 161.222 27.0374C161.222 23.1863 155.447 21.5453 155.447 17.2588C155.447 14.7137 157.283 13.5081 159.119 13.5081C160.754 13.5081 161.789 14.1109 162.357 14.5798L161.923 16.0198C161.188 15.216 160.354 14.7807 159.186 14.7807C157.951 14.7807 156.849 15.5844 156.849 17.0579C156.849 20.7081 162.69 22.1146 162.69 26.8365C162.69 29.5156 160.788 31.056 158.585 31.056ZM166.162 10.5277C165.561 10.5277 165.094 10.0588 165.094 9.45603C165.094 8.88673 165.561 8.35092 166.162 8.35092C166.729 8.35092 167.23 8.88673 167.23 9.45603C167.23 10.0588 166.729 10.5277 166.162 10.5277ZM165.361 13.843H166.93V30.7211H165.361V13.843ZM175.375 29.683C177.544 29.683 178.713 27.8746 178.713 27.8746L179.213 29.1807C179.213 29.1807 177.978 31.056 175.341 31.056C171.97 31.056 170.034 27.8077 170.034 22.3156C170.034 16.7565 171.937 13.5081 175.375 13.5081C177.111 13.5081 178.312 14.1779 179.047 15.0821L178.613 16.7565C177.878 15.7184 176.81 14.8477 175.375 14.8477C172.805 14.8477 171.603 17.5602 171.603 22.3156C171.603 26.937 172.771 29.683 175.375 29.683Z" fill="#6974A9"/>
</svg>
