<svg width="93" height="93" viewBox="0 0 93 93" fill="none" xmlns="http://www.w3.org/2000/svg">

<path d="M46.4988 21.084C32.4589 21.084 21.0768 32.4658 21.0768 46.5057C21.0768 60.5461 32.4589 71.927 46.4988 71.927C60.5402 71.927 71.9211 60.5461 71.9211 46.5057C71.9211 32.4667 60.5402 21.0852 46.4985 21.0852L46.4988 21.084ZM58.1571 57.7493C57.7018 58.4961 56.7243 58.7329 55.9775 58.2745C50.0087 54.6286 42.4947 53.8029 33.6456 55.8247C32.7928 56.019 31.9428 55.4847 31.7485 54.6317C31.5533 53.7786 32.0855 52.9286 32.9404 52.7343C42.6243 50.521 50.9309 51.4745 57.632 55.5697C58.3787 56.0281 58.6155 57.0026 58.1571 57.7493ZM61.2687 50.8264C60.695 51.7599 59.4746 52.0543 58.5427 51.4806C51.7093 47.2795 41.2928 46.0631 33.2102 48.5165C32.162 48.8331 31.0549 48.2424 30.7367 47.196C30.421 46.1478 31.0121 45.0428 32.0585 44.724C41.291 41.9226 52.7687 43.2796 60.6161 48.1018C61.548 48.6756 61.8425 49.8959 61.2687 50.8267V50.8264ZM61.5359 43.6184C53.3425 38.7518 39.8244 38.3044 32.0017 40.6786C30.7455 41.0596 29.4171 40.3504 29.0364 39.0943C28.6557 37.8375 29.3643 36.51 30.6214 36.1281C39.6013 33.402 54.5295 33.9287 63.9626 39.5287C65.095 40.1993 65.4653 41.6585 64.7944 42.7869C64.1266 43.9168 62.6633 44.2893 61.5371 43.6184H61.5359Z" fill="#6974A9"/>
</svg>
