<svg width="93" height="93" viewBox="0 0 93 93" fill="none" xmlns="http://www.w3.org/2000/svg">

<path d="M60.7429 44.9779C60.7429 40.7662 62.678 37.6928 66.4345 35.3023C64.2717 32.2289 61.0844 30.6352 56.8727 30.2937C52.7748 29.9523 48.3353 32.5704 46.7417 32.5704C45.0342 32.5704 41.164 30.4076 38.0906 30.4076C31.716 30.5214 25 35.4161 25 45.5471C25 48.5067 25.4553 51.5801 26.5936 54.7674C28.0734 58.9791 33.3097 69.2239 38.7735 68.9963C41.6193 68.9963 43.6683 66.9473 47.4247 66.9473C51.0673 66.9473 52.8886 68.9963 56.0759 68.9963C61.6536 68.9963 66.4345 59.6621 67.8004 55.4504C60.4014 51.9216 60.7429 45.2056 60.7429 44.9779ZM54.3684 26.3097C57.4418 22.6671 57.1003 19.2521 57.1003 18C54.3684 18.2277 51.1811 19.9351 49.3598 21.9841C47.3109 24.2607 46.1726 27.1065 46.4002 30.1799C49.3598 30.4076 52.0918 28.9278 54.3684 26.3097Z" fill="#6974A9"/>
</svg>
