<svg width="35" height="35" viewBox="0 0 35 35" fill="none" xmlns="http://www.w3.org/2000/svg">
<g clip-path="url(#clip0)">
<path d="M17.5209 9.0376C17.1955 9.0376 16.8775 9.13407 16.607 9.31481C16.3365 9.49555 16.1257 9.75244 16.0012 10.053C15.8767 10.3536 15.8441 10.6843 15.9076 11.0034C15.9711 11.3224 16.1277 11.6155 16.3578 11.8456C16.5878 12.0756 16.8809 12.2323 17.2 12.2957C17.519 12.3592 17.8498 12.3266 18.1503 12.2021C18.4509 12.0776 18.7078 11.8668 18.8885 11.5963C19.0693 11.3258 19.1657 11.0078 19.1657 10.6825C19.1657 10.2462 18.9924 9.82784 18.684 9.51937C18.3755 9.2109 17.9571 9.0376 17.5209 9.0376Z" fill="#25378D"/>
<path d="M0 35V0H35V35H0ZM0.784519 34.2155H34.205V0.794979H0.797594V34.2024L0.784519 34.2155Z" fill="#25378D"/>
<path d="M1.01978 17.5026C1.01978 13.1332 2.75552 8.94274 5.84516 5.85309C8.9348 2.76345 13.1253 1.02771 17.4947 1.02771H17.5077C21.8784 1.02771 26.0702 2.76303 29.1619 5.8523C32.2536 8.94157 33.9922 13.132 33.9957 17.5026C33.9957 21.872 32.26 26.0625 29.1703 29.1521C26.0807 32.2418 21.8902 33.9775 17.5208 33.9775C13.1514 33.9775 8.96095 32.2418 5.87131 29.1521C2.78167 26.0625 1.04593 21.872 1.04593 17.5026H1.01978ZM6.40942 6.40428C4.94785 7.85909 3.78852 9.58867 2.99817 11.4934C2.20782 13.3981 1.80207 15.4404 1.80429 17.5026C1.80168 19.5631 2.20624 21.6039 2.99474 23.5076C3.78325 25.4113 4.94014 27.1405 6.39896 28.5957C7.85394 30.0558 9.58334 31.2136 11.4876 32.0026C13.3919 32.7916 15.4334 33.1962 17.4947 33.193C19.5558 33.1971 21.5974 32.7932 23.5017 32.0046C25.4061 31.2161 27.1355 30.0584 28.5904 28.5983C30.0495 27.1428 31.2066 25.4132 31.9951 23.509C32.7836 21.6048 33.188 19.5636 33.185 17.5026C33.1886 15.4415 32.7844 13.4001 31.9959 11.4959C31.2074 9.59159 30.05 7.86209 28.5904 6.40689C27.1348 4.94788 25.4052 3.79088 23.501 3.00238C21.5968 2.21388 19.5556 1.80941 17.4947 1.81223C15.4339 1.80907 13.3928 2.21312 11.4886 3.00117C9.58448 3.78922 7.8548 4.94574 6.39896 6.40428H6.40942Z" fill="#25378D"/>
<path d="M17.4947 25.2511H4.07422L10.7871 13.6245L17.1548 2.59683L17.5 1.99536L24.2128 13.6245L30.9257 25.2511H17.4947ZM11.4801 14.022L5.46543 24.4666H29.5502L23.5355 14.0325L17.5209 3.59839L11.5062 14.0325L11.4801 14.022Z" fill="#25378D"/>
<path d="M18.4022 14.3645C19.9582 14.1946 21.6344 13.6846 22.0999 12.9603C22.1967 12.6526 22.2521 12.3333 22.2646 12.011C22.2646 12.011 20.8943 13.1172 17.5209 13.1172C13.9304 13.1172 12.7354 12.011 12.7354 12.011C12.735 12.3324 12.7854 12.6519 12.8844 12.9576C13.1459 13.4336 14.124 13.7422 15.0497 14.035C18.0675 14.9425 18.6899 16.6475 18.7761 17.5026C18.7761 18.159 19.0167 18.8546 17.0188 18.0256C15.8002 17.5026 15.7374 18.1538 15.7113 18.3499C15.6485 18.8128 15.7322 21.5115 17.2803 23.057C18.5879 24.3645 19.4273 24.3645 19.4273 24.3645C19.4273 24.3645 17.9315 22.67 17.5968 21.4331C17.4024 20.7174 17.3764 19.9664 17.5209 19.239L19.5737 19.8562C19.5737 19.8562 21.4723 17.0371 18.4022 14.3645Z" fill="#25378D"/>
<path d="M18.0335 10.8369L18.8572 10.2354H17.8374L17.5236 9.26526L17.2071 10.2354H16.1873L17.011 10.8369L16.6972 11.8045L17.5236 11.2056L18.3499 11.8045L18.0335 10.8369Z" fill="white"/>
<path d="M17.5209 8.48328C17.0885 8.48328 16.6658 8.61149 16.3063 8.85172C15.9468 9.09194 15.6666 9.43337 15.5011 9.83285C15.3357 10.2323 15.2924 10.6719 15.3767 11.096C15.4611 11.5201 15.6693 11.9096 15.975 12.2153C16.2808 12.5211 16.6703 12.7293 17.0944 12.8137C17.5185 12.898 17.9581 12.8547 18.3575 12.6892C18.757 12.5238 19.0984 12.2436 19.3387 11.8841C19.5789 11.5245 19.7071 11.1019 19.7071 10.6695C19.7071 10.0897 19.4768 9.53359 19.0668 9.1236C18.6568 8.71361 18.1007 8.48328 17.5209 8.48328ZM17.5209 12.1208C17.2339 12.1208 16.9533 12.0357 16.7146 11.8762C16.4759 11.7168 16.2899 11.4901 16.18 11.2249C16.0702 10.9597 16.0414 10.6679 16.0974 10.3863C16.1534 10.1048 16.2917 9.84618 16.4946 9.6432C16.6976 9.44023 16.9562 9.302 17.2378 9.246C17.5193 9.19 17.8111 9.21874 18.0763 9.32859C18.3415 9.43844 18.5682 9.62446 18.7277 9.86314C18.8872 10.1018 18.9723 10.3824 18.9723 10.6695C18.9726 10.8602 18.9353 11.049 18.8625 11.2253C18.7897 11.4015 18.6828 11.5617 18.5479 11.6965C18.4131 11.8313 18.253 11.9382 18.0767 12.0111C17.9005 12.0839 17.7116 12.1212 17.5209 12.1208Z" fill="#EFB200"/>
</g>
<defs>
<clipPath id="clip0">
<rect width="35" height="35" fill="white"/>
</clipPath>
</defs>
</svg>
