<svg width="150" height="150" viewBox="0 0 150 150" fill="none" xmlns="http://www.w3.org/2000/svg">
<rect x="0.5" y="0.5" width="149" height="149" rx="74.5" fill="#1F2B67" stroke="#DEE6E9"/>
<g clip-path="url(#clip0)">
<path d="M66.7089 69.7548C71.5651 69.2222 76.7917 67.6245 78.2485 65.3637C78.649 64.4995 78.7491 62.3994 78.7491 62.3994C78.7491 62.3994 74.4487 65.8611 63.9454 65.8611C52.7463 65.8611 49.0266 62.3994 49.0266 62.3994C49.0266 62.3994 49.0667 64.5799 49.4872 65.3586C50.2982 66.8659 53.3521 67.8155 56.2507 68.7349C65.6526 71.5785 67.6001 76.9494 67.8704 79.5669C67.8704 81.6319 68.6163 83.8073 62.3885 81.1998C58.5787 79.6071 58.3834 81.6017 58.3033 82.2046C58.0981 83.6516 58.3634 92.0972 63.1995 96.9103C67.2997 100.99 69.898 100.985 69.898 100.985C69.898 100.985 65.2471 95.7045 64.2458 91.8309C63.6306 89.5979 63.5398 87.2521 63.9805 84.978L70.4086 86.9474C70.4086 86.9474 76.286 78.1351 66.7089 69.7548Z" fill="white"/>
<path d="M101.207 70.7446C96.7017 70.8149 93.9583 71.865 93.9583 76.5626V81.029C93.9583 85.1237 96.1561 87.1987 100.466 87.1987H105.743V70.7446H101.207ZM101.863 83.4155V83.7521H101.533C100.617 83.7521 97.8282 83.7521 97.8282 81.0341V77.2157C97.8282 76.5525 98.0635 74.4876 100.912 74.2012H101.863V83.4155ZM28 62.4196V87.0882H31.8799V66.3886C31.8799 63.0878 29.0063 62.4999 28 62.4196ZM90.9695 75.4824C90.9695 73.528 89.773 70.624 86.4638 70.624H76.4812V87.0882H80.3611V80.4814H84.7817C86.8843 80.4814 87.4901 81.0943 87.4901 83.1995V87.0882H90.9545V81.9535C90.9545 80.3156 90.6491 79.5369 89.748 78.8636L89.4025 78.6024L89.743 78.3311C90.1558 77.9884 90.4822 77.5526 90.6953 77.0593C90.9085 76.566 91.0024 76.0291 90.9695 75.4924V75.4824ZM86.0433 77.07H80.7065H80.3761V73.9801H86.0433C86.2432 73.9701 86.4429 74.0021 86.6297 74.0743C86.8165 74.1465 86.9861 74.2572 87.1276 74.3992C87.2691 74.5412 87.3794 74.7114 87.4513 74.8989C87.5233 75.0863 87.5552 75.2868 87.5452 75.4874C87.5631 75.6933 87.5371 75.9007 87.469 76.0958C87.4009 76.2909 87.2922 76.4692 87.1502 76.6189C87.0081 76.7686 86.8359 76.8862 86.6451 76.964C86.4543 77.0418 86.2491 77.0779 86.0433 77.07ZM127 87.2288V76.9142C127 72.4176 125.498 70.7446 121.493 70.7446H109.303V87.2037H113.183V74.1962H116.221V87.2037H120.101V74.2012H120.762C122.574 74.2715 123.14 74.9498 123.14 76.9142V87.2037L127 87.2288ZM47.6098 70.6491H35.4194V87.0882H39.2993V74.0806H42.3381V87.0882H46.223V74.0856H46.8939C48.7011 74.156 49.2668 74.8292 49.2668 76.7987V87.0882H53.1417V76.7987C53.1317 72.3021 51.6348 70.629 47.6098 70.629V70.6491Z" fill="white"/>
<path d="M65.8027 58.0736L68.9717 55.7625H65.0518L63.8402 52.0195L62.6287 55.7625H58.7087L61.8777 58.0736L60.6662 61.8166L63.8402 59.5055L67.0142 61.8166L65.8027 58.0736Z" fill="white"/>
<path d="M63.8402 49C62.737 49.0007 61.6447 49.2194 60.6258 49.6437C59.6068 50.0679 58.6811 50.6895 57.9015 51.4728C57.1219 52.2561 56.5037 53.1859 56.0821 54.209C55.6606 55.232 55.4439 56.3284 55.4446 57.4356C55.4439 58.5424 55.6606 59.6386 56.0822 60.6614C56.5038 61.6842 57.1221 62.6136 57.9018 63.3965C58.6815 64.1795 59.6072 64.8005 60.6262 65.2243C61.6451 65.648 62.7372 65.8661 63.8402 65.8661C64.9446 65.8681 66.0386 65.6515 67.0596 65.2287C68.0805 64.8059 69.0083 64.1852 69.79 63.4022C70.5717 62.6191 71.1918 61.6891 71.6149 60.6653C72.038 59.6414 72.2558 58.5439 72.2558 57.4356C72.2558 56.3269 72.038 55.2292 71.615 54.2051C71.192 53.181 70.5719 52.2506 69.7903 51.4672C69.0087 50.6837 68.0809 50.0626 67.0599 49.6392C66.039 49.2159 64.9449 48.9987 63.8402 49ZM63.8402 63.0274C62.3619 63.0274 60.9441 62.4385 59.8984 61.3899C58.8526 60.3414 58.2645 58.9191 58.2631 57.4356C58.2631 56.7004 58.4076 55.9724 58.6882 55.2933C58.9689 54.6142 59.3802 53.9973 59.8987 53.4779C60.4171 52.9586 61.0326 52.5469 61.7098 52.2664C62.387 51.986 63.1126 51.8424 63.8452 51.8437C64.5773 51.843 65.3024 51.9872 65.979 52.2679C66.6557 52.5486 67.2705 52.9604 67.7884 53.4797C68.3064 53.999 68.7173 54.6157 68.9976 55.2945C69.2779 55.9732 69.4222 56.7008 69.4222 57.4356C69.4209 58.9191 68.8327 60.3414 67.787 61.3899C66.7412 62.4385 65.3234 63.0274 63.8452 63.0274H63.8402Z" fill="white"/>
</g>
<defs>
<clipPath id="clip0">
<rect width="99" height="52" fill="white" transform="translate(28 49)"/>
</clipPath>
</defs>
</svg>
