<svg width="150" height="150" viewBox="0 0 150 150" fill="none" xmlns="http://www.w3.org/2000/svg">
<rect x="0.5" y="0.5" width="149" height="149" rx="74.5" fill="white" stroke="#DEE6E9"/>
<g clip-path="url(#clip0)">
<path d="M75.055 52.7561C74.1999 52.7561 73.3639 53.0097 72.6529 53.4848C71.9419 53.9599 71.3877 54.6351 71.0604 55.4252C70.7332 56.2152 70.6476 57.0846 70.8144 57.9233C70.9812 58.762 71.393 59.5324 71.9977 60.1371C72.6024 60.7417 73.3728 61.1535 74.2115 61.3204C75.0502 61.4872 75.9196 61.4016 76.7096 61.0743C77.4996 60.7471 78.1749 60.1929 78.65 59.4819C79.1251 58.7708 79.3787 57.9349 79.3787 57.0798C79.3787 55.9331 78.9231 54.8333 78.1123 54.0225C77.3015 53.2116 76.2017 52.7561 75.055 52.7561Z" fill="#25378D"/>
<path d="M29 121V29H121V121H29ZM31.0622 118.938H118.91V31.0897H31.0965V118.903L31.0622 118.938Z" fill="#25378D"/>
<path d="M31.6808 75.0069C31.6808 63.5215 36.2433 52.5066 44.3647 44.3853C52.486 36.2639 63.5009 31.7014 74.9862 31.7014H75.0206C86.5091 31.7014 97.5275 36.2628 105.654 44.3832C113.781 52.5036 118.351 63.5184 118.36 75.0069C118.36 86.4922 113.798 97.5071 105.677 105.628C97.5552 113.75 86.5403 118.312 75.055 118.312C63.5696 118.312 52.5547 113.75 44.4334 105.628C36.312 97.5071 31.7495 86.4922 31.7495 75.0069H31.6808ZM45.8479 45.8341C42.006 49.6582 38.9586 54.2045 36.8811 59.2112C34.8036 64.218 33.7371 69.5862 33.7429 75.0069C33.7361 80.4231 34.7995 85.7874 36.8721 90.7915C38.9448 95.7955 41.9857 100.341 45.8204 104.166C49.6449 108.004 54.1907 111.047 59.1963 113.121C64.2018 115.195 69.5681 116.259 74.9862 116.25C80.4041 116.261 85.7706 115.199 90.7763 113.126C95.782 111.054 100.328 108.011 104.152 104.173C107.988 100.347 111.029 95.8004 113.102 90.7952C115.174 85.7899 116.237 80.4243 116.229 75.0069C116.239 69.5892 115.176 64.2232 113.104 59.2177C111.031 54.2122 107.989 49.6661 104.152 45.841C100.326 42.0059 95.7795 38.9646 90.7743 36.892C85.7691 34.8193 80.4036 33.7562 74.9862 33.7636C69.5693 33.7553 64.2041 34.8174 59.1989 36.8888C54.1937 38.9602 49.6471 42.0002 45.8204 45.8341H45.8479Z" fill="#25378D"/>
<path d="M74.9862 95.3742H39.7095L57.3547 64.8129L74.0926 35.8257L75 34.2448L92.6452 64.8129L110.29 95.3742H74.9862ZM59.1763 65.8577L43.3664 93.312H106.675L90.8649 65.8852L75.055 38.4584L59.245 65.8852L59.1763 65.8577Z" fill="#25378D"/>
<path d="M77.3715 66.7583C81.4615 66.3115 85.8676 64.9711 87.0912 63.067C87.3457 62.2582 87.4913 61.4191 87.5242 60.5718C87.5242 60.5718 83.9223 63.4794 75.055 63.4794C65.6172 63.4794 62.4758 60.5718 62.4758 60.5718C62.475 61.4166 62.6073 62.2564 62.8676 63.0601C63.555 64.3112 66.1259 65.1223 68.5592 65.8922C76.4917 68.2774 78.1277 72.7592 78.3545 75.0069C78.3545 76.7323 78.9869 78.5607 73.7352 76.3817C70.532 75.0069 70.367 76.7185 70.2983 77.2341C70.1333 78.4507 70.3533 85.5446 74.4226 89.607C77.8596 93.044 80.0661 93.044 80.0661 93.044C80.0661 93.044 76.1342 88.5897 75.2544 85.3384C74.7434 83.4572 74.6752 81.4832 75.055 79.5712L80.451 81.1934C80.451 81.1934 85.4415 73.7834 77.3715 66.7583Z" fill="#25378D"/>
<path d="M76.4023 57.4853L78.5675 55.9043H75.8867L75.0619 53.3541L74.2301 55.9043H71.5493L73.7146 57.4853L72.8897 60.0287L75.0619 58.4545L77.234 60.0287L76.4023 57.4853Z" fill="white"/>
<path d="M75.055 51.2988C73.9185 51.2988 72.8074 51.6359 71.8624 52.2673C70.9174 52.8987 70.1808 53.7962 69.7459 54.8463C69.311 55.8963 69.1972 57.0518 69.4189 58.1665C69.6406 59.2812 70.1879 60.3052 70.9916 61.1088C71.7953 61.9125 72.8192 62.4598 73.9339 62.6815C75.0487 62.9033 76.2041 62.7895 77.2542 62.3545C78.3042 61.9196 79.2017 61.183 79.8331 60.238C80.4646 59.293 80.8016 58.182 80.8016 57.0454C80.8016 55.5213 80.1962 54.0596 79.1185 52.982C78.0408 51.9043 76.5791 51.2988 75.055 51.2988ZM75.055 60.8604C74.3005 60.8604 73.5629 60.6367 72.9355 60.2175C72.3082 59.7983 71.8192 59.2024 71.5304 58.5053C71.2417 57.8082 71.1661 57.0412 71.3133 56.3011C71.4605 55.5611 71.8239 54.8813 72.3574 54.3478C72.891 53.8142 73.5707 53.4509 74.3108 53.3037C75.0508 53.1565 75.8179 53.232 76.515 53.5208C77.2121 53.8095 77.8079 54.2985 78.2271 54.9259C78.6463 55.5533 78.87 56.2909 78.87 57.0454C78.871 57.5466 78.7729 58.0431 78.5815 58.5064C78.3901 58.9697 78.1091 59.3906 77.7547 59.745C77.4002 60.0995 76.9793 60.3804 76.5161 60.5718C76.0528 60.7632 75.5563 60.8613 75.055 60.8604Z" fill="#EFB200"/>
</g>
<defs>
<clipPath id="clip0">
<rect width="92" height="92" fill="white" transform="translate(29 29)"/>
</clipPath>
</defs>
</svg>
