<svg width="36" height="36" viewBox="0 0 36 36" fill="none" xmlns="http://www.w3.org/2000/svg">
<rect width="36" height="36" rx="18" fill="#6974A9"/>
<path d="M26.0957 14.043C26.1953 13.6445 26.0957 13.3125 25.498 13.3125H23.5391C23.041 13.3125 22.8086 13.5781 22.6758 13.877C22.6758 13.877 21.6797 16.3008 20.2852 17.8945C19.8203 18.3262 19.6211 18.4922 19.3555 18.4922C19.2559 18.4922 19.0566 18.3262 19.0566 17.9277V14.043C19.0566 13.5449 18.9238 13.3125 18.4922 13.3125H15.4375C15.1055 13.3125 14.9395 13.5449 14.9395 13.7773C14.9395 14.2422 15.6367 14.3418 15.7031 15.6699V18.5586C15.7031 19.1895 15.6035 19.3223 15.3379 19.3223C14.6738 19.3223 13.0801 16.8652 12.1172 14.0762C11.918 13.5449 11.7188 13.3125 11.2207 13.3125H9.26172C8.73047 13.3125 8.59766 13.5781 8.59766 13.877C8.59766 14.4082 9.26172 16.9648 11.6855 20.3848C13.3125 22.709 15.6035 23.9375 17.6621 23.9375C18.8906 23.9375 19.0566 23.6719 19.0566 23.207C19.0566 20.9824 18.957 20.75 19.5547 20.75C19.8535 20.75 20.3516 20.916 21.5137 22.0449C22.8418 23.373 23.0742 23.9375 23.8047 23.9375H25.7637C26.3281 23.9375 26.5938 23.6719 26.4277 23.1074C26.0625 21.9785 23.5723 19.5879 23.4395 19.4219C23.1406 19.0566 23.2402 18.8906 23.4395 18.5586C23.4395 18.5586 25.8301 15.1719 26.0957 14.043Z" fill="white"/>
</svg>
