<svg width="24" height="24" viewBox="0 0 24 24" fill="none" xmlns="http://www.w3.org/2000/svg">
<path d="M0.989746 13.4451C0.14933 12.0507 0.628811 10.2783 2.06069 9.48632C3.49257 8.69438 5.33463 9.1828 6.17505 10.5772C6.70707 11.46 6.70985 12.4941 6.27721 13.3351C6.02643 13.8227 5.62954 14.2454 5.1041 14.536C3.67222 15.328 1.83016 14.8396 0.989746 13.4451Z" fill="#6974A9"/>
<path d="M18.0473 1.63221C16.6154 2.42415 16.1359 4.19656 16.9763 5.591C17.8167 6.98544 19.6588 7.47386 21.0907 6.68192C22.5226 5.88998 23.002 4.11757 22.1616 2.72313C21.3212 1.32869 19.4791 0.840267 18.0473 1.63221Z" fill="#6974A9"/>
<path d="M16.8742 18.5413C17.1249 18.0538 17.5218 17.631 18.0473 17.3404C19.4791 16.5485 21.3212 17.0369 22.1616 18.4313C23.002 19.8258 22.5226 21.5982 21.0907 22.3901C19.6588 23.1821 17.8167 22.6937 16.9763 21.2992C16.4443 20.4165 16.4415 19.3824 16.8742 18.5413Z" fill="#6974A9"/>
<path d="M18.0473 17.3404C16.6154 18.1324 16.1359 19.9048 16.9763 21.2992M18.0473 17.3404C19.4791 16.5485 21.3212 17.0369 22.1616 18.4313C23.002 19.8258 22.5226 21.5982 21.0907 22.3901C19.6588 23.1821 17.8167 22.6937 16.9763 21.2992M18.0473 17.3404C17.5218 17.631 17.1249 18.0538 16.8742 18.5413M16.9763 21.2992C16.4443 20.4165 16.4415 19.3824 16.8742 18.5413M5.1041 14.536C3.67222 15.328 1.83016 14.8396 0.989745 13.4451C0.149331 12.0507 0.62881 10.2783 2.06069 9.48632C3.49258 8.69438 5.33463 9.1828 6.17505 10.5772M5.1041 14.536C6.53599 13.7441 7.01546 11.9717 6.17505 10.5772M5.1041 14.536C5.62954 14.2454 6.02643 13.8227 6.27721 13.3351M6.17505 10.5772C6.70707 11.46 6.70985 12.4941 6.27721 13.3351M16.3721 5.72768L6.78878 10.4359M16.8742 18.5413L6.27721 13.3351M18.0473 1.63221C16.6154 2.42415 16.1359 4.19656 16.9763 5.591C17.8167 6.98544 19.6588 7.47386 21.0907 6.68192C22.5226 5.88998 23.002 4.11757 22.1616 2.72313C21.3212 1.32869 19.4791 0.840267 18.0473 1.63221Z" stroke="#6974A9" stroke-linecap="round" stroke-linejoin="round"/>
</svg>
