<svg width="17" height="13" viewBox="0 0 17 13" fill="none" xmlns="http://www.w3.org/2000/svg">
<path d="M16.04 11.02H5.51C4.97981 11.02 4.55 11.4498 4.55 11.98C4.55 12.5102 4.97981 12.94 5.51 12.94H16.04C16.5702 12.94 17 12.5102 17 11.98C17 11.4498 16.5702 11.02 16.04 11.02Z" fill="#25378D"/>
<path d="M16.04 5.75H5.51C4.97981 5.75 4.55 6.17981 4.55 6.71C4.55 7.24019 4.97981 7.67 5.51 7.67H16.04C16.5702 7.67 17 7.24019 17 6.71C17 6.17981 16.5702 5.75 16.04 5.75Z" fill="#25378D"/>
<path d="M16.04 0H5.51C4.97981 0 4.55 0.429807 4.55 0.96C4.55 1.49019 4.97981 1.92 5.51 1.92H16.04C16.5702 1.92 17 1.49019 17 0.96C17 0.429807 16.5702 0 16.04 0Z" fill="#25378D"/>
<path d="M1.92 0.96C1.92 0.429807 1.49019 0 0.96 0C0.429807 0 0 0.429807 0 0.96C0 1.49019 0.429807 1.92 0.96 1.92C1.49019 1.92 1.92 1.49019 1.92 0.96Z" fill="#25378D"/>
<path d="M1.92 6.71C1.92 6.17981 1.49019 5.75 0.96 5.75C0.429807 5.75 0 6.17981 0 6.71C0 7.24019 0.429807 7.67 0.96 7.67C1.49019 7.67 1.92 7.24019 1.92 6.71Z" fill="#25378D"/>
<path d="M1.92 11.98C1.92 11.4498 1.49019 11.02 0.96 11.02C0.429807 11.02 0 11.4498 0 11.98C0 12.5102 0.429807 12.94 0.96 12.94C1.49019 12.94 1.92 12.5102 1.92 11.98Z" fill="#25378D"/>
</svg>
