<svg width="9" height="12" viewBox="0 0 9 12" fill="none" xmlns="http://www.w3.org/2000/svg">
<path d="M7.99944 5.70019L0.799439 0.700188C0.723555 0.651369 0.636271 0.623135 0.54617 0.618264C0.45607 0.613392 0.366252 0.632051 0.285546 0.672404C0.20484 0.712757 0.136022 0.773416 0.0858583 0.848419C0.0356951 0.923423 0.00591196 1.01019 -0.000563662 1.10019L-0.000565481 11.0002C0.00292167 11.0932 0.0291258 11.1839 0.0757551 11.2644C0.122385 11.345 0.188023 11.4129 0.266936 11.4622C0.34585 11.5115 0.435638 11.5408 0.528461 11.5474C0.621283 11.554 0.71432 11.5378 0.799438 11.5002L7.99944 6.50019C8.06767 6.45809 8.124 6.39924 8.16307 6.32922C8.20215 6.25921 8.22266 6.18037 8.22266 6.10019C8.22266 6.02001 8.20215 5.94117 8.16307 5.87116C8.124 5.80114 8.06767 5.74229 7.99944 5.70019Z" fill="#25378D"/>
</svg>
