<svg width="12" height="14" viewBox="0 0 12 14" fill="none" xmlns="http://www.w3.org/2000/svg">
<path d="M3.84903 7.30024L11.049 12.3002C11.1249 12.3491 11.2122 12.3773 11.3023 12.3822C11.3924 12.387 11.4822 12.3684 11.5629 12.328C11.6436 12.2877 11.7124 12.227 11.7626 12.152C11.8128 12.077 11.8426 11.9902 11.849 11.9002L11.849 2.00024C11.8455 1.90725 11.8193 1.81652 11.7727 1.73599C11.7261 1.65545 11.6604 1.58756 11.5815 1.53824C11.5026 1.48892 11.4128 1.45967 11.32 1.45305C11.2272 1.44642 11.1341 1.46262 11.049 1.50024L3.84903 6.50024C3.78079 6.54234 3.72446 6.60119 3.68539 6.67121C3.64632 6.74122 3.6258 6.82006 3.6258 6.90024C3.6258 6.98042 3.64632 7.05926 3.68539 7.12927C3.72446 7.19929 3.78079 7.25814 3.84903 7.30024Z" fill="#25378D"/>
<path d="M-0.000976562 12.1502L-0.000975662 1.85024C0.0219287 1.60613 0.13931 1.38062 0.326127 1.22183C0.512944 1.06303 0.754409 0.983515 0.999024 1.00024C1.24364 0.983515 1.48511 1.06303 1.67193 1.22183C1.85874 1.38062 1.97612 1.60613 1.99902 1.85024L1.99902 12.1502C1.97612 12.3944 1.85874 12.6199 1.67192 12.7787C1.48511 12.9374 1.24364 13.017 0.999023 13.0002C0.754408 13.017 0.512943 12.9374 0.326126 12.7787C0.139309 12.6199 0.0219278 12.3944 -0.000976562 12.1502Z" fill="#25378D"/>
</svg>
