<svg width="10" height="13" viewBox="0 0 10 13" fill="none" xmlns="http://www.w3.org/2000/svg">
<path d="M10 10.0131V0.551014C10.0001 0.469719 9.98281 0.389414 9.94939 0.315868C9.91597 0.242322 9.86725 0.177362 9.80672 0.125658C9.7462 0.073954 9.67538 0.0367903 9.59935 0.0168365C9.52332 -0.00311726 9.44396 -0.00536532 9.367 0.0102547L3.3755 1.21194C3.25395 1.2365 3.14444 1.30413 3.06575 1.40324C2.98705 1.50235 2.94409 1.62675 2.94422 1.75511V9.49638C2.94422 9.57106 2.92999 9.64502 2.90235 9.71399C2.8747 9.78296 2.83419 9.8456 2.78313 9.8983C2.73207 9.951 2.67147 9.99273 2.60481 10.0211C2.53816 10.0495 2.46675 10.0639 2.39469 10.0636H1.89618C1.79385 10.0649 1.69167 10.0722 1.59011 10.0852C0.609302 10.227 -0.097898 10.9913 0.0110804 11.7892C0.120059 12.5871 1.00116 13.1207 1.98197 12.9765C2.89089 12.8443 3.56563 12.1785 3.57259 11.4455V4.53341C3.57254 4.40744 3.61419 4.28527 3.69057 4.18729C3.76695 4.08931 3.87344 4.02146 3.99227 3.99505L8.71776 2.93516C8.79511 2.91684 8.87543 2.91672 8.95283 2.93481C9.03023 2.9529 9.10273 2.98874 9.16501 3.03969C9.22729 3.09064 9.27776 3.15541 9.31272 3.22924C9.34767 3.30307 9.36622 3.38407 9.367 3.46631V8.0856C9.367 8.23561 9.30966 8.37952 9.20754 8.48582C9.10542 8.59212 8.96683 8.65216 8.8221 8.65279H8.32359C8.22198 8.6529 8.1205 8.66012 8.01984 8.67442C7.03903 8.81622 6.33183 9.5805 6.43849 10.3784C6.54515 11.1763 7.42857 11.7075 8.40938 11.5657C9.3183 11.4335 9.99304 10.7678 10 10.0347V10.0131Z" fill="#25378D"/>
</svg>
