<svg width="19" height="15" viewBox="0 0 19 15" fill="none" xmlns="http://www.w3.org/2000/svg">
<path d="M6.41816 1.05875L4.77126 3.38625C4.54693 3.70207 4.24711 3.96022 3.89755 4.13854C3.54798 4.31686 3.15913 4.41001 2.76437 4.41H1.64844C1.56022 4.40999 1.47288 4.42703 1.39149 4.46011C1.3101 4.4932 1.23629 4.54168 1.17433 4.60273C1.11237 4.66379 1.0635 4.7362 1.03057 4.81577C0.997632 4.89535 0.981291 4.98049 0.982483 5.06625V9.0125C0.982483 9.18423 1.05264 9.34892 1.17753 9.47035C1.30243 9.59178 1.47182 9.66 1.64844 9.66H2.74638C3.14113 9.65999 3.52999 9.75314 3.87955 9.93146C4.22911 10.1098 4.52893 10.3679 4.75326 10.6838L6.40016 13.0112C6.62503 13.3265 6.92497 13.5843 7.27441 13.7625C7.62385 13.9408 8.01243 14.0343 8.40705 14.035C8.58451 14.035 8.75484 13.9671 8.88116 13.8459C9.00749 13.7247 9.07964 13.56 9.08201 13.3875V0.65625C9.08201 0.482202 9.01089 0.315281 8.88431 0.192211C8.75773 0.0691399 8.58606 0 8.40705 0C8.01229 0.00743878 7.62524 0.10761 7.27891 0.291969C6.93259 0.476328 6.63728 0.739402 6.41816 1.05875Z" fill="#25378D"/>
<path d="M12.7087 1.47874C12.6388 1.51208 12.5774 1.5602 12.5291 1.61958C12.4808 1.67897 12.4468 1.74811 12.4295 1.82194C12.4123 1.89577 12.4122 1.97242 12.4294 2.04627C12.4466 2.12012 12.4805 2.1893 12.5287 2.24874C13.6047 3.60536 14.1899 5.26937 14.1936 6.98249C14.191 8.54523 13.7015 10.0705 12.7897 11.3575C12.7454 11.4177 12.7152 11.4866 12.7012 11.5593C12.6872 11.632 12.6897 11.7069 12.7086 11.7786C12.7274 11.8502 12.7622 11.9171 12.8104 11.9743C12.8586 12.0316 12.9191 12.0779 12.9877 12.11C13.1187 12.1834 13.2731 12.207 13.421 12.1763C13.5689 12.1456 13.6999 12.0628 13.7887 11.9437C14.8291 10.4836 15.3879 8.7501 15.3906 6.97374C15.3869 5.02932 14.7225 3.14057 13.5007 1.60124C13.402 1.49736 13.2702 1.42879 13.1265 1.40657C12.9829 1.38435 12.8357 1.40977 12.7087 1.47874Z" fill="#25378D"/>
<path d="M10.3869 2.85247C10.2978 2.96212 10.2494 3.09776 10.2494 3.23747C10.2494 3.37719 10.2978 3.51282 10.3869 3.62247C10.8141 4.06608 11.147 4.58744 11.3663 5.15657C11.5856 5.72569 11.6871 6.33135 11.6648 6.93872C11.7062 8.05687 11.3217 9.15053 10.5849 10.01C10.49 10.1101 10.4373 10.2413 10.4373 10.3775C10.4373 10.5136 10.49 10.6448 10.5849 10.745C10.7013 10.7974 10.8316 10.8129 10.9576 10.7894C11.0836 10.7658 11.1987 10.7044 11.2868 10.6137C12.1669 9.57178 12.6558 8.26942 12.6727 6.92122C12.6548 5.44066 12.0673 4.0203 11.0258 2.93997C10.9373 2.87073 10.8312 2.82604 10.7188 2.81064C10.6063 2.79524 10.4916 2.80969 10.3869 2.85247Z" fill="#25378D"/>
<path d="M14.8867 0.113716C14.8177 0.145471 14.7568 0.191798 14.7086 0.249317C14.6603 0.306836 14.6259 0.374099 14.6078 0.446199C14.5897 0.518299 14.5884 0.593419 14.6039 0.666082C14.6195 0.738745 14.6515 0.807118 14.6977 0.866217C16.0499 2.63801 16.7817 4.78491 16.7855 6.99122C16.7907 9.04212 16.1638 11.0475 14.9857 12.7487C14.943 12.8087 14.9141 12.8768 14.901 12.9486C14.8879 13.0204 14.8908 13.0941 14.9096 13.1647C14.9284 13.2352 14.9626 13.301 15.0099 13.3576C15.0571 13.4142 15.1164 13.4602 15.1836 13.4925C15.3165 13.5645 15.4718 13.5874 15.6206 13.5568C15.7695 13.5263 15.902 13.4444 15.9936 13.3262C17.3077 11.457 18.0132 9.24665 18.0185 6.98247C18.0095 4.55516 17.2023 2.19428 15.7146 0.244968C15.614 0.132673 15.4762 0.0580947 15.325 0.0341284C15.1738 0.0101621 15.0188 0.0383133 14.8867 0.113716Z" fill="#25378D"/>
</svg>
