<svg width="17" height="11" fill="none" xmlns="http://www.w3.org/2000/svg"><path d="M15.967 1.332c.088-.352 0-.645-.527-.645h-1.73c-.439 0-.644.235-.76.499 0 0-.88 2.138-2.11 3.544-.41.381-.586.528-.82.528-.088 0-.264-.147-.264-.498V1.332c0-.44-.117-.645-.498-.645H6.563c-.293 0-.44.206-.44.41 0 .41.615.499.674 1.67v2.55c0 .556-.088.673-.322.673-.586 0-1.993-2.168-2.842-4.629C3.457.893 3.28.688 2.842.688H1.113c-.468 0-.586.234-.586.498 0 .468.586 2.724 2.725 5.742 1.436 2.05 3.457 3.135 5.273 3.135 1.084 0 1.23-.235 1.23-.645 0-1.963-.087-2.168.44-2.168.264 0 .703.146 1.729 1.143 1.172 1.171 1.377 1.67 2.021 1.67h1.729c.498 0 .732-.235.586-.733-.323-.996-2.52-3.105-2.637-3.252-.264-.322-.176-.469 0-.762 0 0 2.11-2.988 2.344-3.984z" fill="#6974A9"/></svg>