<svg width="35" height="35" viewBox="0 0 35 35" fill="none" xmlns="http://www.w3.org/2000/svg">
<g clip-path="url(#clip0)">
<path d="M17.5209 9.0376C17.1955 9.0376 16.8775 9.13407 16.607 9.31481C16.3365 9.49555 16.1257 9.75244 16.0012 10.053C15.8767 10.3536 15.8441 10.6843 15.9076 11.0034C15.9711 11.3224 16.1277 11.6155 16.3578 11.8456C16.5878 12.0756 16.8809 12.2323 17.2 12.2957C17.519 12.3592 17.8498 12.3266 18.1503 12.2021C18.4509 12.0776 18.7078 11.8668 18.8885 11.5963C19.0693 11.3258 19.1657 11.0078 19.1657 10.6825C19.1657 10.2462 18.9924 9.82784 18.684 9.51937C18.3755 9.2109 17.9571 9.0376 17.5209 9.0376Z" fill="#25378D"/>
<path d="M0 35V0H35V35H0ZM0.784519 34.2155H34.205V0.794979H0.797594V34.2024L0.784519 34.2155Z" fill="#25378D"/>
<path d="M1.01953 17.5027C1.01953 13.1333 2.75527 8.94286 5.84492 5.85322C8.93456 2.76357 13.125 1.02783 17.4944 1.02783H17.5075C21.8781 1.02783 26.0699 2.76316 29.1616 5.85242C32.2533 8.94169 33.992 13.1321 33.9955 17.5027C33.9955 21.8721 32.2597 26.0626 29.1701 29.1522C26.0804 32.2419 21.89 33.9776 17.5206 33.9776C13.1512 33.9776 8.96071 32.2419 5.87107 29.1522C2.78142 26.0626 1.04568 21.8721 1.04568 17.5027H1.01953ZM6.40917 6.4044C4.94761 7.85922 3.78827 9.58879 2.99792 11.4935C2.20758 13.3983 1.80183 15.4405 1.80405 17.5027C1.80143 19.5633 2.206 21.604 2.9945 23.5077C3.783 25.4114 4.9399 27.1406 6.39871 28.5958C7.85369 30.0559 9.5831 31.2137 11.4874 32.0027C13.3916 32.7917 15.4332 33.1963 17.4944 33.1931C19.5556 33.1972 21.5972 32.7933 23.5015 32.0048C25.4058 31.2162 27.1353 30.0585 28.5901 28.5984C30.0493 27.1429 31.2063 25.4133 31.9948 23.5091C32.7834 21.605 33.1878 19.5637 33.1848 17.5027C33.1883 15.4417 32.7842 13.4002 31.9957 11.496C31.2071 9.59171 30.0497 7.86221 28.5901 6.40702C27.1345 4.948 25.4049 3.791 23.5008 3.0025C21.5966 2.214 19.5554 1.80953 17.4944 1.81235C15.4336 1.80919 13.3925 2.21324 11.4884 3.00129C9.58424 3.78934 7.85456 4.94586 6.39871 6.4044H6.40917Z" fill="#25378D"/>
<path d="M17.4947 25.2514H4.07422L10.7871 13.6248L17.1548 2.59707L17.5 1.99561L24.2128 13.6248L30.9257 25.2514H17.4947ZM11.4801 14.0223L5.46543 24.4668H29.5502L23.5355 14.0327L17.5209 3.59864L11.5062 14.0327L11.4801 14.0223Z" fill="#25378D"/>
<path d="M18.4022 14.3648C19.9582 14.1948 21.6344 13.6849 22.0999 12.9605C22.1967 12.6528 22.2521 12.3336 22.2646 12.0112C22.2646 12.0112 20.8943 13.1174 17.5209 13.1174C13.9304 13.1174 12.7354 12.0112 12.7354 12.0112C12.735 12.3326 12.7854 12.6521 12.8844 12.9579C13.1459 13.4338 14.124 13.7424 15.0497 14.0353C18.0675 14.9427 18.6899 16.6477 18.7761 17.5029C18.7761 18.1592 19.0167 18.8548 17.0188 18.0259C15.8002 17.5029 15.7374 18.154 15.7113 18.3501C15.6485 18.813 15.7322 21.5118 17.2803 23.0573C18.5879 24.3648 19.4273 24.3648 19.4273 24.3648C19.4273 24.3648 17.9315 22.6702 17.5968 21.4333C17.4024 20.7176 17.3764 19.9667 17.5209 19.2393L19.5737 19.8564C19.5737 19.8564 21.4723 17.0374 18.4022 14.3648Z" fill="#25378D"/>
<path d="M18.0337 10.8368L18.8575 10.2353H17.8376L17.5238 9.26514L17.2074 10.2353H16.1875L17.0112 10.8368L16.6974 11.8044L17.5238 11.2055L18.3502 11.8044L18.0337 10.8368Z" fill="white"/>
<path d="M17.5212 8.4834C17.0888 8.4834 16.6661 8.61162 16.3066 8.85184C15.9471 9.09206 15.6668 9.4335 15.5014 9.83297C15.3359 10.2324 15.2926 10.672 15.377 11.0961C15.4613 11.5202 15.6695 11.9097 15.9753 12.2155C16.281 12.5212 16.6706 12.7294 17.0946 12.8138C17.5187 12.8981 17.9583 12.8548 18.3578 12.6894C18.7573 12.5239 19.0987 12.2437 19.3389 11.8842C19.5791 11.5247 19.7073 11.102 19.7073 10.6696C19.7073 10.0898 19.477 9.53371 19.067 9.12372C18.657 8.71373 18.101 8.4834 17.5212 8.4834ZM17.5212 12.1209C17.2341 12.1209 16.9535 12.0358 16.7148 11.8764C16.4761 11.7169 16.2901 11.4902 16.1803 11.225C16.0704 10.9598 16.0417 10.668 16.0977 10.3864C16.1537 10.1049 16.2919 9.8463 16.4949 9.64332C16.6979 9.44035 16.9565 9.30212 17.238 9.24612C17.5195 9.19012 17.8114 9.21886 18.0766 9.32871C18.3418 9.43856 18.5684 9.62458 18.7279 9.86326C18.8874 10.1019 18.9725 10.3825 18.9725 10.6696C18.9729 10.8603 18.9356 11.0492 18.8627 11.2254C18.7899 11.4017 18.683 11.5618 18.5482 11.6966C18.4134 11.8315 18.2532 11.9384 18.077 12.0112C17.9007 12.084 17.7118 12.1213 17.5212 12.1209Z" fill="#EFB200"/>
</g>
<defs>
<clipPath id="clip0">
<rect width="35" height="35" fill="white"/>
</clipPath>
</defs>
</svg>
