<svg width="66" height="55" viewBox="0 0 66 55" fill="none" xmlns="http://www.w3.org/2000/svg">
<path d="M19 33C18 34 19.4641 35.931 20.4985 35.5C21.5328 35.069 23.75 33.25 25.25 31.25C27.0149 28.8967 28.2209 26.4897 28.9854 23.8699C29.75 21.25 30.5004 18.8648 30.5 16.25C30.5 14.062 29.6308 11.9635 28.0836 10.4164C26.5365 8.86919 24.438 8 22.25 8C20.062 8 17.9635 8.86919 16.4164 10.4164C14.8692 11.9635 14 14.062 14 16.25C14 18.438 14.8692 20.5365 16.4164 22.0836C17.9635 23.6308 20.562 24.75 22.75 24.75C24.7923 24.75 23.1667 27 22.5 28.5C21.8333 30 20 32 19 33Z" fill="#F4F4F4"/>
<path d="M41 33C40 34 41.4641 35.931 42.4985 35.5C43.5328 35.069 45.75 33.25 47.25 31.25C49.0149 28.8967 50.2209 26.4897 50.9854 23.8699C51.75 21.25 52.5004 18.8648 52.5 16.25C52.5 14.062 51.6308 11.9635 50.0836 10.4164C48.5365 8.86919 46.438 8 44.25 8C42.062 8 39.9635 8.86919 38.4164 10.4164C36.8692 11.9635 36 14.062 36 16.25C36 18.438 36.8692 20.5365 38.4164 22.0836C39.9635 23.6308 42.562 24.75 44.75 24.75C46.7923 24.75 45.1667 27 44.5 28.5C43.8333 30 42 32 41 33Z" fill="#F4F4F4"/>
</svg>
