<svg width="36" height="36" viewBox="0 0 36 36" fill="none" xmlns="http://www.w3.org/2000/svg">
<rect width="36" height="36" rx="18" fill="#6974A9"/>
<path d="M18.4375 13.8066C16.3125 13.8066 14.6191 15.5332 14.6191 17.625C14.6191 19.75 16.3125 21.4434 18.4375 21.4434C20.5293 21.4434 22.2559 19.75 22.2559 17.625C22.2559 15.5332 20.5293 13.8066 18.4375 13.8066ZM18.4375 20.1152C17.0762 20.1152 15.9473 19.0195 15.9473 17.625C15.9473 16.2637 17.043 15.168 18.4375 15.168C19.7988 15.168 20.8945 16.2637 20.8945 17.625C20.8945 19.0195 19.7988 20.1152 18.4375 20.1152ZM23.2852 13.6738C23.2852 13.1758 22.8867 12.7773 22.3887 12.7773C21.8906 12.7773 21.4922 13.1758 21.4922 13.6738C21.4922 14.1719 21.8906 14.5703 22.3887 14.5703C22.8867 14.5703 23.2852 14.1719 23.2852 13.6738ZM25.8086 14.5703C25.7422 13.375 25.4766 12.3125 24.6133 11.4492C23.75 10.5859 22.6875 10.3203 21.4922 10.2539C20.2637 10.1875 16.5781 10.1875 15.3496 10.2539C14.1543 10.3203 13.125 10.5859 12.2285 11.4492C11.3652 12.3125 11.0996 13.375 11.0332 14.5703C10.9668 15.7988 10.9668 19.4844 11.0332 20.7129C11.0996 21.9082 11.3652 22.9375 12.2285 23.834C13.125 24.6973 14.1543 24.9629 15.3496 25.0293C16.5781 25.0957 20.2637 25.0957 21.4922 25.0293C22.6875 24.9629 23.75 24.6973 24.6133 23.834C25.4766 22.9375 25.7422 21.9082 25.8086 20.7129C25.875 19.4844 25.875 15.7988 25.8086 14.5703ZM24.2148 22.0078C23.9824 22.6719 23.4512 23.1699 22.8203 23.4355C21.8242 23.834 19.5 23.7344 18.4375 23.7344C17.3418 23.7344 15.0176 23.834 14.0547 23.4355C13.3906 23.1699 12.8926 22.6719 12.627 22.0078C12.2285 21.0449 12.3281 18.7207 12.3281 17.625C12.3281 16.5625 12.2285 14.2383 12.627 13.2422C12.8926 12.6113 13.3906 12.1133 14.0547 11.8477C15.0176 11.4492 17.3418 11.5488 18.4375 11.5488C19.5 11.5488 21.8242 11.4492 22.8203 11.8477C23.4512 12.0801 23.9492 12.6113 24.2148 13.2422C24.6133 14.2383 24.5137 16.5625 24.5137 17.625C24.5137 18.7207 24.6133 21.0449 24.2148 22.0078Z" fill="white"/>
</svg>
