<svg width="36" height="36" viewBox="0 0 36 36" fill="none" xmlns="http://www.w3.org/2000/svg">
<rect width="36" height="36" rx="18" fill="#6974A9"/>
<path d="M26.2285 13.2754C26.0293 12.4785 25.3984 11.8477 24.6348 11.6484C23.207 11.25 17.5625 11.25 17.5625 11.25C17.5625 11.25 11.8848 11.25 10.457 11.6484C9.69336 11.8477 9.0625 12.4785 8.86328 13.2754C8.46484 14.6699 8.46484 17.6582 8.46484 17.6582C8.46484 17.6582 8.46484 20.6133 8.86328 22.041C9.0625 22.8379 9.69336 23.4355 10.457 23.6348C11.8848 24 17.5625 24 17.5625 24C17.5625 24 23.207 24 24.6348 23.6348C25.3984 23.4355 26.0293 22.8379 26.2285 22.041C26.627 20.6133 26.627 17.6582 26.627 17.6582C26.627 17.6582 26.627 14.6699 26.2285 13.2754ZM15.7031 20.3477V14.9688L20.418 17.6582L15.7031 20.3477Z" fill="white"/>
</svg>
