<svg width="11" height="6" viewBox="0 0 11 6" fill="none" xmlns="http://www.w3.org/2000/svg">
<path d="M-0.000103015 0.410068C-8.58451e-05 0.328943 0.0239887 0.249645 0.0690756 0.182203C0.114162 0.114761 0.178237 0.0622042 0.253195 0.0311791C0.328153 0.000153984 0.410627 -0.00794579 0.490189 0.00790425C0.569751 0.0237543 0.642825 0.062842 0.700171 0.120224L5.46592 4.88596L10.2317 0.120225C10.309 0.0455116 10.4126 0.00417014 10.5202 0.00510465C10.6277 0.00603916 10.7306 0.0491749 10.8066 0.125221C10.8827 0.201267 10.9258 0.304139 10.9267 0.411681C10.9277 0.519222 10.8863 0.622828 10.8116 0.700185L5.75576 5.75603C5.67884 5.83292 5.57454 5.87612 5.46578 5.87612C5.35702 5.87612 5.25271 5.83292 5.1758 5.75603L0.119937 0.700184C0.0818557 0.662079 0.0516538 0.616845 0.0310573 0.567066C0.0104608 0.517288 -0.000126859 0.463939 -0.000103015 0.410068Z" fill="#25378D"/>
</svg>
