<svg width="22" height="22" viewBox="0 0 22 22" fill="none" xmlns="http://www.w3.org/2000/svg">
<path d="M11.0148 5.68079C10.8103 5.68079 10.6104 5.74142 10.4404 5.85503C10.2704 5.96864 10.1379 6.13012 10.0596 6.31905C9.98135 6.50797 9.96087 6.71585 10.0008 6.91641C10.0407 7.11697 10.1391 7.30121 10.2837 7.44581C10.4283 7.5904 10.6125 7.68887 10.8131 7.72877C11.0137 7.76866 11.2216 7.74818 11.4105 7.66993C11.5994 7.59167 11.7609 7.45915 11.8745 7.28913C11.9881 7.1191 12.0487 6.91919 12.0487 6.7147C12.0487 6.44049 11.9398 6.17751 11.7459 5.98361C11.552 5.78971 11.289 5.68079 11.0148 5.68079Z" fill="#25378D"/>
<path d="M0 22V0H22V22H0ZM0.493126 21.5069H21.5003V0.499702H0.501353V21.4986L0.493126 21.5069Z" fill="#25378D"/>
<path d="M0.641056 11C0.639976 9.63935 0.907039 8.29187 1.42697 7.03451C1.94691 5.77716 2.70953 4.63459 3.67124 3.67211C4.63296 2.70963 5.77493 1.94611 7.03187 1.42517C8.28881 0.904239 9.63608 0.636108 10.9967 0.636108C13.7454 0.636108 16.3815 1.72801 18.3251 3.67161C20.2687 5.61521 21.3606 8.2513 21.3606 11C21.3606 12.3606 21.0924 13.7079 20.5715 14.9648C20.0506 16.2217 19.287 17.3637 18.3246 18.3254C17.3621 19.2871 16.2195 20.0498 14.9622 20.5697C13.7048 21.0896 12.3573 21.3567 10.9967 21.3556C8.25021 21.3556 5.61621 20.2646 3.67415 18.3225C1.73209 16.3805 0.641056 13.7465 0.641056 11ZM4.02883 4.02553C3.11033 4.93979 2.38172 6.02668 1.88494 7.22364C1.38815 8.42061 1.133 9.70401 1.13418 11C1.13245 12.2952 1.3867 13.578 1.88234 14.7746C2.37797 15.9712 3.10521 17.0581 4.02226 17.9728C4.93695 18.8902 6.02407 19.6177 7.22103 20.1134C8.418 20.609 9.70117 20.8631 10.9967 20.8608C12.2923 20.8632 13.5755 20.6093 14.7725 20.1136C15.9695 19.618 17.0566 18.8904 17.9711 17.9728C18.8882 17.0581 19.6154 15.9712 20.1111 14.7746C20.6067 13.578 20.8609 12.2952 20.8592 11C20.8613 9.70447 20.6071 8.42134 20.1115 7.2244C19.6159 6.02746 18.8885 4.94033 17.9711 4.02553C17.0564 3.10799 15.9693 2.38033 14.7724 1.88441C13.5755 1.38848 12.2923 1.13408 10.9967 1.13581C9.70112 1.13426 8.41801 1.38875 7.2211 1.88466C6.02419 2.38058 4.93709 3.10813 4.02226 4.02553H4.02883Z" fill="#25378D"/>
<path d="M10.9968 15.872H2.56104L6.78055 8.56389L10.7831 1.63054L11.0001 1.25412L15.2196 8.56389L19.4391 15.872H10.9968ZM7.21615 8.81374L3.43551 15.3789H18.5811L14.8004 8.82031L11.0198 2.26174L7.23916 8.82031L7.21615 8.81374Z" fill="#25378D"/>
<path d="M11.5671 9.02583C12.5451 8.91898 13.5988 8.59845 13.8913 8.14313C13.9516 7.95013 13.9864 7.7501 13.9949 7.5481C13.9949 7.5481 13.1336 8.24505 11.0131 8.24505C8.75626 8.24505 8.00507 7.5481 8.00507 7.5481C8.00517 7.75011 8.03679 7.95086 8.09876 8.14313C8.26314 8.4423 8.8779 8.63626 9.45979 8.82036C11.3567 9.39238 11.7479 10.4641 11.8021 10.9983C11.8021 11.4109 11.9534 11.8482 10.6975 11.3271C9.93154 10.9983 9.89209 11.4076 9.87566 11.5309C9.83621 11.8219 9.88881 13.5182 10.8619 14.4897C11.6838 15.3115 12.2114 15.3115 12.2114 15.3115C12.2114 15.3115 11.2712 14.2464 11.0608 13.4689C10.9374 13.0205 10.9194 12.5496 11.0082 12.0931L12.3035 12.4876C12.3035 12.4876 13.4968 10.709 11.5671 9.02583Z" fill="#25378D"/>
<path d="M11.3353 6.81172L11.8531 6.43365H11.212L11.0148 5.82382L10.8159 6.43365H10.1748L10.6926 6.81172L10.4953 7.41991L11.0148 7.04349L11.5342 7.41991L11.3353 6.81172Z" fill="white"/>
<path d="M11.0148 5.33234C10.743 5.33234 10.4773 5.41293 10.2514 5.56393C10.0254 5.71492 9.84923 5.92954 9.74523 6.18064C9.64122 6.43174 9.61401 6.70804 9.66703 6.97461C9.72005 7.24117 9.85093 7.48602 10.0431 7.67821C10.2353 7.87039 10.4802 8.00127 10.7467 8.05429C11.0133 8.10732 11.2896 8.0801 11.5407 7.97609C11.7918 7.87208 12.0064 7.69595 12.1574 7.46997C12.3084 7.24399 12.389 6.9783 12.389 6.70651C12.389 6.34206 12.2442 5.99253 11.9865 5.73482C11.7288 5.47711 11.3793 5.33234 11.0148 5.33234ZM11.0148 7.61879C10.8344 7.61879 10.658 7.5653 10.508 7.46505C10.3579 7.36481 10.241 7.22233 10.172 7.05563C10.1029 6.88893 10.0848 6.7055 10.12 6.52853C10.1552 6.35157 10.2421 6.18902 10.3697 6.06143C10.4973 5.93385 10.6599 5.84696 10.8368 5.81176C11.0138 5.77656 11.1972 5.79462 11.3639 5.86367C11.5306 5.93272 11.6731 6.04965 11.7733 6.19968C11.8736 6.3497 11.9271 6.52608 11.9271 6.70651C11.9271 6.94846 11.831 7.18051 11.6599 7.35159C11.4888 7.52268 11.2568 7.61879 11.0148 7.61879Z" fill="#EFB200"/>
</svg>
