<svg width="0" height="0" class="hidden">
  <symbol fill="none" xmlns="http://www.w3.org/2000/svg" viewBox="0 0 20 20" id="comment">
    <path d="M19.99 2c0-1.1-.89-2-1.99-2H2C.9 0 0 .9 0 2v12c0 1.1.9 2 2 2h14l4 4-.01-18zM16 12H4v-2h12v2zm0-3H4V7h12v2zm0-3H4V4h12v2z" fill="#AFB4BF"></path>
  </symbol>

  <symbol xmlns="http://www.w3.org/2000/svg" viewBox="0 0 20 19" id="like">
    <path d="M9.239 3.078l.761.894.761-.894c.907-1.064 2.302-1.738 3.739-1.738 2.528 0 4.5 1.972 4.5 4.5 0 1.561-.693 3.056-2.118 4.798-1.436 1.756-3.509 3.638-6.104 5.991l-.001.002-.78.709-.774-.7-.002-.001c-2.594-2.358-4.667-4.242-6.103-6C1.693 8.898 1 7.403 1 5.84c0-2.528 1.972-4.5 4.5-4.5 1.437 0 2.832.674 3.739 1.738z" stroke-width="2"></path>
  </symbol>
  
  <symbol fill="none" xmlns="http://www.w3.org/2000/svg" viewBox="0 0 21 21" id="share">
    <path d="M1.366 11.766A2.495 2.495 0 012.31 8.27c1.265-.699 2.891-.268 3.634.964.47.78.472 1.692.09 2.435-.222.43-.572.804-1.036 1.06-1.265.7-2.891.269-3.633-.963zM16.428 1.335a2.495 2.495 0 00-.946 3.496c.743 1.231 2.37 1.662 3.634.963a2.495 2.495 0 00.945-3.496c-.742-1.231-2.368-1.662-3.633-.963zm-1.036 14.931c.222-.43.572-.803 1.036-1.06 1.265-.7 2.891-.268 3.633.963a2.495 2.495 0 01-.945 3.496c-1.265.7-2.891.268-3.633-.963a2.488 2.488 0 01-.09-2.436z" fill="#AFB4BF"></path>
    <path d="M16.428 15.206a2.495 2.495 0 00-.946 3.496m.946-3.496c1.265-.7 2.891-.268 3.633.963a2.495 2.495 0 01-.945 3.496c-1.265.7-2.891.268-3.633-.963m.945-3.496c-.464.257-.814.63-1.036 1.06m.09 2.436a2.488 2.488 0 01-.09-2.436M5 12.73c-1.265.699-2.891.268-3.633-.964A2.495 2.495 0 012.31 8.27c1.265-.699 2.891-.268 3.634.964m-.946 3.496a2.495 2.495 0 00.946-3.496m-.946 3.496c.464-.257.814-.63 1.036-1.06m-.09-2.436c.47.78.472 1.692.09 2.435m8.914-6.718L6.486 9.11m8.906 7.157L6.035 11.67M16.428 1.335a2.495 2.495 0 00-.946 3.496c.743 1.231 2.37 1.662 3.634.963a2.495 2.495 0 00.945-3.496c-.742-1.231-2.368-1.662-3.633-.963z" stroke="#AFB4BF" stroke-linecap="round" stroke-linejoin="round"></path>
  </symbol>
</svg>