<svg width="6" height="12" viewBox="0 0 6 12" fill="none" xmlns="http://www.w3.org/2000/svg">
<path d="M0.629592 11.3048C0.550632 11.3048 0.473451 11.2807 0.407809 11.2356C0.342167 11.1905 0.291013 11.1265 0.260816 11.0515C0.230619 10.9765 0.222735 10.8941 0.238162 10.8145C0.253589 10.7349 0.291634 10.6619 0.347485 10.6045L4.98602 5.83877L0.347485 1.07303C0.274766 0.99567 0.234528 0.892064 0.235437 0.784522C0.236347 0.67698 0.278331 0.574108 0.352348 0.498062C0.426364 0.422015 0.52649 0.37888 0.631161 0.377945C0.735833 0.377011 0.836674 0.418352 0.911965 0.493065L5.83287 5.54893C5.90771 5.62584 5.94975 5.73015 5.94975 5.83891C5.94975 5.94767 5.90771 6.05197 5.83287 6.12889L0.911965 11.1848C0.874877 11.2228 0.83085 11.253 0.7824 11.2736C0.73395 11.2942 0.682026 11.3048 0.629592 11.3048Z" fill="white"/>
</svg>
