<svg width="22" height="22" viewBox="0 0 22 22" fill="none" xmlns="http://www.w3.org/2000/svg">
    <path d="M22 11C22 4.92487 17.0751 0 11 0C4.92487 0 0 4.92487 0 11C0 17.0751 4.92487 22 11 22C17.0751 22 22 17.0751 22 11Z" fill="white"/>
    <path d="M21.5 11C21.5 5.20101 16.799 0.5 11 0.5C5.20101 0.5 0.5 5.20101 0.5 11C0.5 16.799 5.20101 21.5 11 21.5C16.799 21.5 21.5 16.799 21.5 11Z" stroke="white"/>
    <path d="M8.752 14.4013V7.33859C8.752 6.93579 9.2038 6.69839 9.5356 6.92679L14.5538 10.3831C14.8388 10.5794 14.843 10.9989 14.562 11.2009L9.5438 14.8073C9.213 15.0451 8.752 14.8087 8.752 14.4013Z" fill="#6974A9"/>
    </svg>
