<svg width="129" height="43" fill="none" xmlns="http://www.w3.org/2000/svg"><g clip-path="url(#clip0)"><path d="M126.567 20.62H54.16a.662.662 0 0 1-.462-.187.633.633 0 0 1 0-.905.662.662 0 0 1 .462-.188h72.407c.174 0 .34.067.463.188a.632.632 0 0 1 0 .905.662.662 0 0 1-.463.187zm-68.371-7.552h-.327l-.246-.019a1.289 1.289 0 0 1-.628-.17c-.16-.115-.327-.62-.327-2.668V3.363c0-2.045.173-2.56.327-2.669.192-.106.408-.164.628-.17L57.87.51h.327c.098 0 .285-.077.278-.237a.26.26 0 0 0-.084-.19.273.273 0 0 0-.197-.072H53.81c-.167.016-.328.105-.328.256a.208.208 0 0 0 .053.152c.038.042.09.067.147.072h.105l.37.035c.127.013.248.06.35.137.059.052.17.212.245.733.065.649.096 1.3.092 1.952v6.873a18.44 18.44 0 0 1-.092 1.952c-.075.525-.186.685-.245.736a.726.726 0 0 1-.35.135l-.373.038a.522.522 0 0 0-.102 0 .214.214 0 0 0-.149.07.204.204 0 0 0-.05.154c0 .15.15.237.327.253h4.375a.275.275 0 0 0 .197-.071.262.262 0 0 0 .085-.188c.013-.15-.17-.23-.272-.23zm20.321.013h-.328a1.997 1.997 0 0 1-1.158-.32c-.328-.262-.475-.589-.59-1.539L75.212.57c-.04-.15.02-.49-.367-.55a.451.451 0 0 0-.257.094.434.434 0 0 0-.152.225L68.99 10.99 63.35.332c-.13-.26-.284-.32-.409-.32a.352.352 0 0 0-.265.147c-.062.077-.049.173-.082.32L61.243 11.8c-.095.72-.213.96-.327 1.072a.996.996 0 0 1-.704.234h-.167c-.075 0-.327 0-.327.233 0 .234.288.26.445.26h3.273c.206 0 .56.035.56-.24 0-.122-.141-.247-.348-.247h-.085c-.35 0-.802-.09-.89-.32a.98.98 0 0 1-.059-.429c0-.15 0-.352.033-.614l.72-7.638c1.492 3.081 3.665 6.988 4.582 8.668.258.404.419.832.654.832.236 0 .354-.246.632-.761l4.582-8.906.831 8.237c.02.23.056.451.056.66 0 .095 0 .133-.026.133-.027 0-.22.113-.22.337a.264.264 0 0 0 .064.196.274.274 0 0 0 .188.095h3.58c.177 0 .537 0 .537-.275-.006-.26-.294-.24-.31-.247zm48.424 0h-.328a1.966 1.966 0 0 1-1.155-.32c-.327-.262-.474-.589-.592-1.539L123.635.57c-.039-.15.02-.49-.363-.55a.45.45 0 0 0-.26.093.429.429 0 0 0-.152.226l-5.446 10.65L111.775.332c-.128-.26-.285-.32-.409-.32a.36.36 0 0 0-.266.147c-.062.077-.045.173-.078.32L109.664 11.8c-.092.72-.21.96-.305 1.072a.996.996 0 0 1-.707.234h-.167c-.075 0-.327 0-.327.233 0 .234.285.26.442.26h3.273c.209 0 .559.035.559-.24 0-.122-.14-.247-.346-.247H112c-.35 0-.798-.09-.89-.32a.995.995 0 0 1-.059-.429c0-.15 0-.352.033-.614l.72-7.638c1.489 3.081 3.666 6.988 4.582 8.668.259.404.419.832.655.832.235 0 .353-.246.634-.761l4.582-8.906.832 8.237c.019.23.055.451.055.66 0 .095 0 .133-.026.133s-.216.113-.216.337c-.004.035 0 .07.011.104a.261.261 0 0 0 .135.158.275.275 0 0 0 .103.029h3.577c.173 0 .533 0 .533-.275-.016-.26-.301-.24-.32-.247zm-19.814.019a4.973 4.973 0 0 0-.579-.054c-.812-.112-1.155-.675-1.421-1.171-.265-.496-.769-1.527-2.912-6.736-.36-.86-.697-1.74-1.077-2.608a71.765 71.765 0 0 1-.812-1.843c-.101-.202-.239-.685-.523-.685-.285 0-.42.493-.544.79l-4.277 10.71c-.573 1.357-.982 1.498-1.49 1.546a3.517 3.517 0 0 1-1.362-.29 3.448 3.448 0 0 1-1.134-.795c-.655-.64-1.31-1.414-2.082-2.348l-1.309-1.559-.655-.857a4.644 4.644 0 0 0 1.182-.787c1.09-1.002 1.263-2.47 1.263-3.245a2.844 2.844 0 0 0-.258-1.175 2.915 2.915 0 0 0-.724-.972C87.76.422 86.676 0 84.568.003h-4.373c-.147 0-.31.061-.327.227.072.32.422.247.6.285h.248a.79.79 0 0 1 .654.371c.05.103.128.439.128 1.728v7.434c0 1.897-.13 2.403-.18 2.56-.15.425-.327.396-.694.444l-.203.02a.262.262 0 0 0-.187.059.251.251 0 0 0-.09.17c0 .113.117.247.307.257h4.176c.239 0 .56.022.56-.256s-.269-.234-.289-.234h-.346l-.233-.019c-.592-.048-.654-.137-.785-.425-.157-.474-.184-2.096-.184-2.56V1.078c0-.32.216-.272.753-.32h.206c.848 0 1.668.295 2.314.832.848.707.982 1.6.982 2.461.013.471-.1.938-.327 1.354a3.36 3.36 0 0 1-1.166 1.206 3.464 3.464 0 0 1-1.616.506h-.203c-.105 0-.412 0-.442.278-.03.278.282.266.37.266h.22c.215 0 .421 0 .628-.023.543 0 .654.224.723.32l2.271 2.922c1.4 1.81 1.872 2.13 2.232 2.313.51.25.851.34 2.101.359h4.448c.05 0 .327-.03.327-.266 0-.237-.294-.227-.327-.227h-.19c-.222 0-.58-.032-.58-.445a3.16 3.16 0 0 1 .256-1.046l1.136-3.053c.042-.058 0-.039.056-.051h4.077l1.755 4.25c.039.095.058.15.058.15a.106.106 0 0 1 0 .082.11.11 0 0 1-.058.058l-.076.023a.252.252 0 0 0-.18.227c.02.32.35.278.468.278h3.198c.121 0 .537.026.537-.259a.215.215 0 0 0-.06-.112.222.222 0 0 0-.114-.06zm-9.308-5.49l1.682-4.615 1.774 4.614h-3.456zm-30.06 35.374h-.478c-1.568 0-2.265-.198-3.492-1.216-1.178-.96-4.683-4.717-6.153-6.368v3.347c0 .535.03 2.458.197 2.98.068.201.117.255.212.32.2.075.411.117.625.121l.236.022a.448.448 0 0 0 .098 0 .57.57 0 0 1 .383.11.369.369 0 0 1 .121.274.394.394 0 0 1-.08.23.409.409 0 0 1-.201.142.873.873 0 0 1-.308.041c-1.044 0-.743-.06-2.225-.06h-.291c-.279 0-1.408.041-1.938.06h-.154a.453.453 0 0 1-.3-.123.434.434 0 0 1-.135-.29.356.356 0 0 1 .223-.32.463.463 0 0 1 .202-.035h.177a.845.845 0 0 0 .527-.15.616.616 0 0 0 .173-.32c.05-.163.197-.749.197-2.98v-8.031c0-1.888-.072-2.24-.111-2.326a.504.504 0 0 0-.266-.32 1.904 1.904 0 0 0-.677-.154l-.262-.022a1.128 1.128 0 0 1-.258-.045.375.375 0 0 1-.173-.137.362.362 0 0 1-.063-.209.377.377 0 0 1 .06-.21.39.39 0 0 1 .166-.145.623.623 0 0 1 .239-.038h.13c.983.022 1.231.06 2.138.06h.268c.72 0 1.31-.038 1.964-.06h.157a.431.431 0 0 1 .29.103c.08.069.13.165.142.268a.38.38 0 0 1-.059.22.447.447 0 0 1-.327.193l-.21.019c-.425.051-.612.08-.746.355-.078.176-.128.522-.124 1.37v4.268c2.566-2.659 4.467-4.435 5.099-5.187.327-.377.451-.601.438-.69v-.01a.433.433 0 0 1-.327-.135.557.557 0 0 1-.115-.393.368.368 0 0 1 .216-.343.668.668 0 0 1 .288-.051c.233 0 .57.06 1.332.06h.501c.265 0 .573-.038 1.725-.06h.124a.481.481 0 0 1 .328.109.39.39 0 0 1 .124.281.414.414 0 0 1-.118.285.39.39 0 0 1-.245.102h-.17c-.2.01-.396.048-.583.116a3.29 3.29 0 0 0-1.509.86c-1.342 1.175-1.473 1.425-2.219 2.11l-1.158 1.097c-.364.355-1.444 1.392-2.095 2.057 3.6 3.664 3.97 4.058 5.544 5.555 1.394 1.325 2.124 1.968 2.946 2.263a5.13 5.13 0 0 0 1.227.252h.082a.668.668 0 0 1 .226.026.37.37 0 0 1 .187.131.357.357 0 0 1 .071.215.349.349 0 0 1-.183.32.77.77 0 0 1-.249.086c-.19.027-.381.04-.573.038h-.769l-.039-.038zm7.966-.019c-.956-.042-1.26-.042-1.486-.042h-.654c-.158 0-.187.02-.655.042-.406 0-.494.019-.707.019h-.268a.931.931 0 0 1-.288-.029.41.41 0 0 1-.217-.142.394.394 0 0 1-.084-.242.353.353 0 0 1 .222-.32.536.536 0 0 1 .2-.038h.177c.451-.042.523-.144.556-.17.118-.077.353-.64.327-3.28v-8.64c0-.262-.042-1.311-.059-1.407v-.036a.87.87 0 0 0-.137-.48.842.842 0 0 0-.68-.278l-.328-.02a.943.943 0 0 1-.328-.05.42.42 0 0 1-.19-.153.406.406 0 0 1-.071-.231c0-.076.024-.15.07-.212a.375.375 0 0 1 .182-.134c.069-.02.14-.03.212-.029.832 0 1.159.061 2.206.061h.396c.19 0 .4-.019.616-.019.582-.02 1.168-.042 1.754-.042 2.003 0 3.328.35 4.231 1.165.4.356.72.79.938 1.274a3.72 3.72 0 0 1 .329 1.536c0 1.89-1.214 3.603-2.422 4.671l.455.583 1.437 1.77c.85 1.059 1.577 1.945 2.268 2.642.805.804 1.617 1.428 2.978 1.45h.187a.48.48 0 0 1 .327.112.356.356 0 0 1 .124.262v.016a.38.38 0 0 1-.105.263.496.496 0 0 1-.38.134h-1.75c-1.375 0-1.836-.131-2.425-.435-.449-.23-1.002-.64-2.543-2.697l-2.504-3.3c-.055-.06-.075-.06-.095-.06h-.016l-2.402-.039v1.946c0 .179 0 .867.036 1.6.007.586.067 1.17.18 1.747.069.192.111.25.219.32.24.097.499.147.76.147l.327.02h.081a.527.527 0 0 1 .246.05.368.368 0 0 1 .18.32.411.411 0 0 1-.098.246.427.427 0 0 1-.23.138c-.138.035-.282.05-.425.045-.249 0-.514-.029-.654-.035l-.02-.02zm.118-7.715c.308.055.62.086.932.093h.377a2.17 2.17 0 0 0 1.087-.19c.34-.155.63-.396.844-.697a4.146 4.146 0 0 0 .654-2.38c0-1.223-.3-2.186-.981-2.903-.367-.39-1.025-.908-2.367-.912a4.14 4.14 0 0 0-1.263.1v6.649c.222.125.468.2.723.224l-.006.016zm17.149 7.715h-.023c-.219-.02-.612-.042-.981-.042h-.328c-1.05 0-1.39.061-2.016.061a.669.669 0 0 1-.252-.035.413.413 0 0 1-.186-.151.4.4 0 0 1-.07-.227.353.353 0 0 1 .07-.214.428.428 0 0 1 .353-.16h.187a.997.997 0 0 0 .546-.17c.118-.077.354-.64.328-3.28v-7.81c0-2.007-.056-2.477-.141-2.634-.111-.211-.328-.4-1.185-.41h-.043a.47.47 0 0 1-.235-.054.369.369 0 0 1-.072-.617.557.557 0 0 1 .298-.113h.163c1.476.042 1.856.061 2.134.061h.563c.677 0 .609-.06 1.685-.06h.125a.61.61 0 0 1 .222.041.413.413 0 0 1 .178.152.4.4 0 0 1 .065.222.347.347 0 0 1-.141.276.665.665 0 0 1-.367.115l-.265.019c-.363.048-.484.144-.579.34-.115.233-.15.694-.147 2.626v7.85c0 .49.032 2.502.196 2.975.023.118.09.222.19.292.188.094.397.143.609.144l.235.022c.086.004.171.015.255.032a.38.38 0 0 1 .205.132.366.366 0 0 1 0 .456.406.406 0 0 1-.201.142.883.883 0 0 1-.308.041c-.386 0-.762-.019-1.083-.019l.016-.003zm12.077-.042h-.521c-.17 0-.356.023-.549.023-.406.019-.822.019-1.221.038h-.154a.504.504 0 0 1-.327-.147.397.397 0 0 1-.102-.266.357.357 0 0 1 .259-.342 1.01 1.01 0 0 1 .19-.026l.366-.041c.36-.068.406-.173.521-.452.042-.102.15-.534.15-1.987v-2.24a4.132 4.132 0 0 0-.448-2.015 31.159 31.159 0 0 0-.701-1.19l-2.31-3.68c-1.07-1.716-1.673-2.209-1.964-2.4a2.368 2.368 0 0 0-.654-.273c-.105-.041-.233.02-.452-.153a.354.354 0 0 1-.102-.256.378.378 0 0 1 .085-.231.393.393 0 0 1 .21-.134.876.876 0 0 1 .232-.029c.445 0 .887.023 1.31.042.19 0 .356.022.5.019h.478c.507 0 .586-.06 1.519-.06h.124a.516.516 0 0 1 .203.034.35.35 0 0 1 .146.505.371.371 0 0 1-.14.135c-.085.045-.134.052-.134.058l-.134.064c-.134.07-.108.086-.121.157.025.235.108.462.242.659.246.46 2.756 4.646 3.6 6.022.524-.985 1.165-2.102 3.247-5.584.197-.252.311-.556.327-.873a.671.671 0 0 0-.026-.24c-.033-.077-.049-.103-.128-.131l-.19-.061a.497.497 0 0 1-.173-.093.364.364 0 0 1-.124-.288.342.342 0 0 1 .054-.188.358.358 0 0 1 .149-.132.543.543 0 0 1 .238-.051c.167-.001.333.006.498.022.654.039.779.039.834.039h.21c.19 0 .402-.02.753-.02.369-.019.536-.041.766-.041h.507c.084.006.167.02.249.041a.36.36 0 0 1 .175.122c.045.058.07.127.073.198a.385.385 0 0 1-.069.22.407.407 0 0 1-.183.145.692.692 0 0 1-.262.048l-.216.02c-.654.047-1.361.806-1.636 1.206a31.039 31.039 0 0 0-2.085 3.2l-1.371 2.32c-.563.96-.766 1.212-.776 2.844v2.24c0 .374.04 1.213.063 1.514-.003.198.041.393.127.572a.625.625 0 0 0 .504.32l.305.042s.448.035.497.032h.085c.069 0 .136.013.2.038a.358.358 0 0 1 .222.32.398.398 0 0 1-.281.372.876.876 0 0 1-.308.041c-.785 0-1.531-.06-2.291-.06l-.065.012zm21.374.061h-1.963c-.328 0-1.205-.02-1.476-.042a.788.788 0 0 1-.452-.118.346.346 0 0 1-.138-.272.359.359 0 0 1 .302-.374.553.553 0 0 0 0-.058.638.638 0 0 0-.023-.18L120.788 37h-4.402l-1.247 3.594a3.68 3.68 0 0 0-.275 1.2c0 .233.072.284.17.345a.76.76 0 0 0 .364.074h.206a.671.671 0 0 1 .213.032.358.358 0 0 1 .252.342c0 .08-.024.157-.069.223a.411.411 0 0 1-.183.148.729.729 0 0 1-.266.042h-.052c-.353 0-.654-.042-.956-.038h-.081c-.226 0-.416-.023-.606-.023h-.327c-1.411 0-1.159.042-2 .061h-.144c-.252 0-.481-.1-.507-.371v-.096a.412.412 0 0 1 .291-.32 1.06 1.06 0 0 1 .327-.039h.246c.291.008.576-.086.802-.265.262-.215.563-.64.887-1.5l4.722-12.63a2.66 2.66 0 0 1 .35-.788.482.482 0 0 1 .351-.173c.307.032.386.23.481.378.078.148.144.302.196.46.265.72.599 1.43.89 2.17.419 1.02.796 2.06 1.188 3.075 2.37 6.14 2.913 7.337 3.217 7.93.292.588.655 1.203 1.486 1.324.282.045.442 0 .655.067a.36.36 0 0 1 .239.182.44.44 0 0 1 .039.164.366.366 0 0 1-.137.282.506.506 0 0 1-.213.099 1.413 1.413 0 0 1-.35.032h-.098l-.004.003zm-6.117-7.232l-1.806-5.024-1.712 5.024h3.518zM21.93 11.081c-.407 0-.805.118-1.143.34a2.022 2.022 0 0 0-.758.903 1.971 1.971 0 0 0-.117 1.163 2 2 0 0 0 .563 1.03 2.096 2.096 0 0 0 2.244.436c.376-.152.697-.41.923-.74a1.98 1.98 0 0 0-.256-2.542 2.083 2.083 0 0 0-1.455-.59z" fill="#25378D"/><path d="M0 42.85V.022h43.803V42.85H0zm.982-.96h41.826V.995H.998v40.879l-.016.016z" fill="#25378D"/><path d="M1.276 21.436a19.77 19.77 0 0 1 1.565-7.72A20.135 20.135 0 0 1 7.31 7.171 20.656 20.656 0 0 1 14 2.797a21.027 21.027 0 0 1 7.895-1.536c5.473 0 10.721 2.125 14.59 5.909 3.87 3.784 6.045 8.915 6.045 14.266a19.77 19.77 0 0 1-1.571 7.718 20.136 20.136 0 0 1-4.474 6.542 20.656 20.656 0 0 1-6.695 4.37 21.026 21.026 0 0 1-7.895 1.53c-5.468 0-10.713-2.125-14.58-5.905-3.866-3.78-6.039-8.909-6.039-14.255zM8.022 7.859a19.111 19.111 0 0 0-4.269 6.226 18.763 18.763 0 0 0-1.495 7.351 18.765 18.765 0 0 0 1.49 7.348 19.114 19.114 0 0 0 4.26 6.226 19.596 19.596 0 0 0 6.37 4.167 19.95 19.95 0 0 0 7.517 1.455c2.58.005 5.134-.49 7.518-1.454a19.59 19.59 0 0 0 6.368-4.168 19.115 19.115 0 0 0 4.26-6.226 18.767 18.767 0 0 0 1.49-7.348 18.763 18.763 0 0 0-1.488-7.35A19.11 19.11 0 0 0 35.78 7.86a19.606 19.606 0 0 0-6.369-4.168 19.959 19.959 0 0 0-7.517-1.457 19.965 19.965 0 0 0-7.518 1.457A19.612 19.612 0 0 0 8.008 7.86h.014z" fill="#25378D"/><path d="M21.895 30.92H5.099L13.5 16.694l7.97-13.497.431-.733 8.402 14.23 8.4 14.226H21.896zm-7.527-13.74L6.84 29.96h30.156l-7.528-12.767-7.527-12.768-7.528 12.768-.045-.013z" fill="#25378D"/><path d="M23.03 17.593c1.948-.208 4.046-.832 4.628-1.718.12-.376.19-.765.206-1.159 0 0-1.715 1.357-5.936 1.357-4.494 0-5.99-1.357-5.99-1.357 0 .394.064.784.187 1.159.327.582 1.551.96 2.71 1.318 3.777 1.113 4.556 3.2 4.664 4.24 0 .803.3 1.654-2.2.64-1.525-.64-1.603.157-1.636.397-.079.566.026 3.868 1.964 5.76 1.636 1.6 2.687 1.6 2.687 1.6s-1.872-2.074-2.291-3.588a5.742 5.742 0 0 1-.105-2.678l2.579.768s2.376-3.462-1.466-6.74z" fill="#25378D"/><path d="M22.569 13.283l1.03-.736h-1.276l-.392-1.187-.396 1.187h-1.277l1.031.736-.393 1.184 1.035-.733 1.034.733-.396-1.184z" fill="#fff"/><path d="M21.93 10.403a2.78 2.78 0 0 0-1.52.45c-.45.295-.8.712-1.007 1.201a2.62 2.62 0 0 0-.156 1.546c.106.519.367.995.75 1.37.382.374.87.628 1.4.732.53.103 1.08.05 1.58-.153.5-.202.928-.545 1.229-.985a2.636 2.636 0 0 0-.34-3.378 2.768 2.768 0 0 0-1.935-.783zm0 4.45c-.358 0-.71-.103-1.008-.298a1.785 1.785 0 0 1-.67-.797 1.74 1.74 0 0 1-.103-1.027c.07-.344.243-.66.497-.909a1.83 1.83 0 0 1 .93-.486 1.855 1.855 0 0 1 1.05.101c.332.135.615.362.815.654a1.748 1.748 0 0 1-.226 2.243c-.34.333-.802.52-1.284.52z" fill="#EFB200"/></g><defs><clipPath id="clip0"><path fill="#fff" d="M0 0h128.122v43H0z"/></clipPath></defs></svg>