<svg width="93" height="93" viewBox="0 0 93 93" fill="none" xmlns="http://www.w3.org/2000/svg">
<rect x="0.5" y="0.5" width="92" height="92" rx="46" fill="white" stroke="#DEE6E9"/>
<g clip-path="url(#clip0)">
<path d="M69 35.5312C69 34.125 68.8594 32.7188 68.5781 31.4531C68.0156 29.0625 66.6094 27.0938 64.5 25.6875C63.375 24.9844 62.25 24.5625 60.9844 24.2812C60 24.1406 59.0156 24 58.0312 24C57.8906 24 57.8906 24 57.75 24H35.25C34.9688 24 34.6875 24 34.4062 24C33 24.1406 31.5938 24.2812 30.3281 24.7031C27.7969 25.8281 25.9688 27.5156 24.8438 30.0469C24.5625 30.8906 24.2812 31.7344 24.2812 32.7188C24.1406 33.4219 24 34.125 24 34.8281V34.9688V57.8906C24 58.1719 24 58.4531 24 58.7344C24.1406 60.2812 24.2812 61.8281 24.9844 63.2344C26.25 65.9062 28.2188 67.5938 31.0312 68.4375C31.875 68.7188 32.5781 68.7188 33.4219 68.8594C34.5469 69 35.5312 69 36.6562 69H57.3281C58.3125 69 59.2969 69 60.2812 68.8594C61.8281 68.7188 63.2344 68.1562 64.6406 67.3125C66.1875 66.3281 67.4531 64.9219 68.1562 63.2344C68.4375 62.3906 68.7188 61.5469 68.8594 60.7031C69.1406 59.4375 69.1406 58.1719 69.1406 56.9062C69 49.7344 69 42.5625 69 35.5312ZM56.9062 42.9844V53.6719C56.9062 54.5156 56.7656 55.2188 56.4844 55.9219C55.9219 57.0469 55.0781 57.75 53.9531 58.0312C53.25 58.1719 52.6875 58.3125 51.9844 58.3125C50.1562 58.4531 48.6094 57.1875 48.3281 55.5C48.0469 54.0938 48.75 52.4063 50.2969 51.7031C50.8594 51.4219 51.5625 51.2812 52.2656 51.1406C52.9688 51 53.6719 50.8594 54.375 50.7188C54.9375 50.5781 55.2187 50.2969 55.3594 49.7344C55.3594 49.5937 55.3594 49.4531 55.3594 49.3125C55.3594 45.9375 55.3594 42.5625 55.3594 39.0469C55.3594 38.9062 55.3594 38.7656 55.3594 38.7656C55.2187 38.4844 55.0781 38.3438 54.7969 38.3438C54.5156 38.3438 54.2344 38.3438 53.9531 38.4844C52.5469 38.7656 51.1406 39.0469 49.7344 39.3281L42.8438 40.7344C42.8438 40.7344 42.8438 40.7344 42.7031 40.7344C42.1406 40.875 42 41.1562 42 41.7188C42 41.8594 42 41.8594 42 42C42 46.9219 42 51.7031 42 56.625C42 57.4688 41.8594 58.1719 41.5781 58.875C41.0156 60.1406 40.1719 60.8438 38.9063 61.125C38.2031 61.2656 37.6406 61.4062 36.9375 61.4062C35.1094 61.4062 33.7031 60.2812 33.2812 58.4531C33 56.9062 33.7031 55.3594 35.3906 54.5156C36.0938 54.2344 36.7969 54.0937 37.5 53.9531C38.0625 53.8125 38.625 53.6719 39.0469 53.6719C39.75 53.5312 40.1719 53.1094 40.1719 52.2656V52.125C40.1719 46.6406 40.1719 41.0156 40.1719 35.5312C40.1719 35.25 40.1719 35.1094 40.3125 34.8281C40.4531 34.2656 40.875 33.9844 41.2969 33.8438C41.7188 33.7031 42.2812 33.5625 42.7031 33.5625C44.1094 33.2812 45.5156 33 46.7813 32.7188L51 31.875C52.125 31.5938 53.3906 31.3125 54.6562 31.0312C55.0781 30.8906 55.5 30.8906 55.9219 30.8906C56.4844 30.8906 56.9062 31.1719 56.9062 31.7344C56.9062 31.875 56.9062 32.0156 56.9062 32.1562C56.9062 35.8125 56.9062 39.3281 56.9062 42.9844Z" fill="#6974A9"/>
</g>
<defs>
<clipPath id="clip0">
<rect width="45" height="45" fill="white" transform="translate(24 24)"/>
</clipPath>
</defs>
</svg>
