<svg width="93" height="93" viewBox="0 0 93 93" fill="none" xmlns="http://www.w3.org/2000/svg">
<rect x="0.5" y="0.5" width="92" height="92" rx="46" fill="white" stroke="#DEE6E9"/>
<path d="M46.8556 72.424C60.583 72.424 71.7113 61.3088 71.7113 47.5976C71.7113 33.8864 60.583 22.7712 46.8556 22.7712C33.1282 22.7712 22 33.8864 22 47.5976C22 61.3088 33.1282 72.424 46.8556 72.424Z" fill="#CFD5F2"/>
<path fill-rule="evenodd" clip-rule="evenodd" d="M59.3027 22.2945V45.5177L59.2478 45.536V45.5671C59.2478 47.8375 59.0833 49.9562 58.7744 51.0383C57.2937 56.2391 52.5024 60.0121 46.8209 60.0121C39.9567 60.0121 34.4653 54.4732 34.4653 47.6163C34.4653 40.7612 39.9567 35.2223 46.8209 35.2223C50.0547 35.2223 52.9997 36.4562 55.2116 38.478C55.9336 39.1397 56.5771 39.8837 57.1273 40.6972C56.9738 39.9697 56.8239 39.0538 56.8239 38.2696V10.3484L73.0001 15.2987V26.5099L59.3027 22.2945Z" fill="#6974A9"/>
</svg>
