<svg width="21" height="14" viewBox="0 0 21 14" fill="none" xmlns="http://www.w3.org/2000/svg">
<mask id="path-1-inside-1" fill="white">
<path d="M19.25 14H1.75C1.28587 14 0.84075 13.8156 0.512562 13.4874C0.184373 13.1592 0 12.7141 0 12.25V1.75C0 1.28587 0.184373 0.840752 0.512562 0.512563C0.84075 0.184374 1.28587 0 1.75 0H19.25C19.7141 0 20.1592 0.184374 20.4874 0.512563C20.8156 0.840752 21 1.28587 21 1.75V12.25C21 12.7141 20.8156 13.1592 20.4874 13.4874C20.1592 13.8156 19.7141 14 19.25 14ZM1.75 0.875C1.51794 0.875 1.29538 0.967187 1.13128 1.13128C0.967187 1.29538 0.875 1.51794 0.875 1.75V12.25C0.875 12.4821 0.967187 12.7046 1.13128 12.8687C1.29538 13.0328 1.51794 13.125 1.75 13.125H19.25C19.4821 13.125 19.7046 13.0328 19.8687 12.8687C20.0328 12.7046 20.125 12.4821 20.125 12.25V1.75C20.125 1.51794 20.0328 1.29538 19.8687 1.13128C19.7046 0.967187 19.4821 0.875 19.25 0.875H1.75Z"/>
</mask>
<path d="M19.25 14H1.75C1.28587 14 0.84075 13.8156 0.512562 13.4874C0.184373 13.1592 0 12.7141 0 12.25V1.75C0 1.28587 0.184373 0.840752 0.512562 0.512563C0.84075 0.184374 1.28587 0 1.75 0H19.25C19.7141 0 20.1592 0.184374 20.4874 0.512563C20.8156 0.840752 21 1.28587 21 1.75V12.25C21 12.7141 20.8156 13.1592 20.4874 13.4874C20.1592 13.8156 19.7141 14 19.25 14ZM1.75 0.875C1.51794 0.875 1.29538 0.967187 1.13128 1.13128C0.967187 1.29538 0.875 1.51794 0.875 1.75V12.25C0.875 12.4821 0.967187 12.7046 1.13128 12.8687C1.29538 13.0328 1.51794 13.125 1.75 13.125H19.25C19.4821 13.125 19.7046 13.0328 19.8687 12.8687C20.0328 12.7046 20.125 12.4821 20.125 12.25V1.75C20.125 1.51794 20.0328 1.29538 19.8687 1.13128C19.7046 0.967187 19.4821 0.875 19.25 0.875H1.75Z" fill="#C8CBCE"/>
<path d="M1.75 0V-1V0ZM19.25 0V-1V0ZM19.25 13H1.75V15H19.25V13ZM1.75 13C1.55109 13 1.36032 12.921 1.21967 12.7803L-0.194545 14.1945C0.32118 14.7103 1.02065 15 1.75 15V13ZM1.21967 12.7803C1.07902 12.6397 1 12.4489 1 12.25H-1C-1 12.9793 -0.710271 13.6788 -0.194545 14.1945L1.21967 12.7803ZM1 12.25V1.75H-1V12.25H1ZM1 1.75C1 1.55109 1.07902 1.36032 1.21967 1.21967L-0.194545 -0.194544C-0.710271 0.321183 -1 1.02066 -1 1.75H1ZM1.21967 1.21967C1.36032 1.07902 1.55109 1 1.75 1V-1C1.02066 -1 0.321181 -0.710269 -0.194545 -0.194544L1.21967 1.21967ZM1.75 1H19.25V-1H1.75V1ZM19.25 1C19.4489 1 19.6397 1.07902 19.7803 1.21967L21.1945 -0.194544C20.6788 -0.710267 19.9793 -1 19.25 -1V1ZM19.7803 1.21967C19.921 1.36033 20 1.5511 20 1.75H22C22 1.02065 21.7103 0.321176 21.1945 -0.194544L19.7803 1.21967ZM20 1.75V12.25H22V1.75H20ZM20 12.25C20 12.4489 19.921 12.6397 19.7803 12.7803L21.1945 14.1945C21.7103 13.6788 22 12.9794 22 12.25H20ZM19.7803 12.7803C19.6397 12.921 19.4489 13 19.25 13V15C19.9793 15 20.6788 14.7103 21.1945 14.1945L19.7803 12.7803ZM1.75 -0.125C1.25272 -0.125 0.775805 0.072544 0.424174 0.424175L1.83839 1.83839C1.81495 1.86183 1.78315 1.875 1.75 1.875V-0.125ZM0.424174 0.424175C0.0725422 0.775807 -0.125 1.25272 -0.125 1.75H1.875C1.875 1.78315 1.86183 1.81495 1.83839 1.83839L0.424174 0.424175ZM-0.125 1.75V12.25H1.875V1.75H-0.125ZM-0.125 12.25C-0.125 12.7473 0.0725415 13.2242 0.424174 13.5758L1.83839 12.1616C1.86183 12.1851 1.875 12.2169 1.875 12.25H-0.125ZM0.424174 13.5758C0.775807 13.9275 1.25272 14.125 1.75 14.125V12.125C1.78315 12.125 1.81494 12.1382 1.83839 12.1616L0.424174 13.5758ZM1.75 14.125H19.25V12.125H1.75V14.125ZM19.25 14.125C19.7473 14.125 20.2242 13.9275 20.5758 13.5758L19.1616 12.1616C19.185 12.1382 19.2168 12.125 19.25 12.125V14.125ZM20.5758 13.5758C20.9274 13.2242 21.125 12.7473 21.125 12.25H19.125C19.125 12.2168 19.1382 12.185 19.1616 12.1616L20.5758 13.5758ZM21.125 12.25V1.75H19.125V12.25H21.125ZM21.125 1.75C21.125 1.2527 20.9274 0.775793 20.5758 0.424175L19.1616 1.83839C19.1382 1.81496 19.125 1.78317 19.125 1.75H21.125ZM20.5758 0.424175C20.2242 0.0725498 19.7473 -0.125 19.25 -0.125V1.875C19.2168 1.875 19.185 1.86183 19.1616 1.83839L20.5758 0.424175ZM19.25 -0.125H1.75V1.875H19.25V-0.125Z" fill="#AFB4BF" mask="url(#path-1-inside-1)"/>
<mask id="path-3-inside-2" fill="white">
<path d="M10.5001 9.27056L2.82638 4.30493C2.72904 4.24217 2.66057 4.14336 2.63596 4.03019C2.61136 3.91701 2.63264 3.7987 2.69513 3.70118C2.72622 3.65239 2.76669 3.61024 2.81418 3.57719C2.86167 3.54414 2.91524 3.52083 2.9718 3.50863C3.02836 3.49642 3.08678 3.49555 3.14367 3.50608C3.20057 3.5166 3.25481 3.5383 3.30326 3.56993L10.5001 8.22931L17.7014 3.56993C17.7989 3.50744 17.9172 3.48616 18.0304 3.51077C18.1436 3.53537 18.2424 3.60385 18.3051 3.70118C18.368 3.79817 18.39 3.9161 18.3662 4.02923C18.3425 4.14235 18.2749 4.24147 18.1783 4.30493L10.5001 9.27056Z"/>
</mask>
<path d="M10.5001 9.27056L2.82638 4.30493C2.72904 4.24217 2.66057 4.14336 2.63596 4.03019C2.61136 3.91701 2.63264 3.7987 2.69513 3.70118C2.72622 3.65239 2.76669 3.61024 2.81418 3.57719C2.86167 3.54414 2.91524 3.52083 2.9718 3.50863C3.02836 3.49642 3.08678 3.49555 3.14367 3.50608C3.20057 3.5166 3.25481 3.5383 3.30326 3.56993L10.5001 8.22931L17.7014 3.56993C17.7989 3.50744 17.9172 3.48616 18.0304 3.51077C18.1436 3.53537 18.2424 3.60385 18.3051 3.70118C18.368 3.79817 18.39 3.9161 18.3662 4.02923C18.3425 4.14235 18.2749 4.24147 18.1783 4.30493L10.5001 9.27056Z" fill="#C8CBCE"/>
<path d="M10.5001 9.27056L9.95687 10.1101L10.5 10.4616L11.0432 10.1103L10.5001 9.27056ZM2.82638 4.30493L3.36965 3.46538L3.36832 3.46451L2.82638 4.30493ZM2.69513 3.70118L3.53707 4.24076L3.53848 4.23855L2.69513 3.70118ZM3.30326 3.56993L2.7566 4.4073L2.75979 4.40937L3.30326 3.56993ZM10.5001 8.22931L9.95667 9.06874L10.5 9.42048L11.0434 9.06889L10.5001 8.22931ZM17.7014 3.56993L17.1618 2.72799L17.1582 2.73035L17.7014 3.56993ZM18.3051 3.70118L17.4647 4.24312L17.4662 4.24535L18.3051 3.70118ZM18.1783 4.30493L18.7213 5.14465L18.7272 5.14077L18.1783 4.30493ZM11.0434 8.431L3.36965 3.46538L2.28311 5.14449L9.95687 10.1101L11.0434 8.431ZM3.36832 3.46451C3.49346 3.54521 3.58151 3.67224 3.61314 3.81776L1.65879 4.24262C1.73963 4.61448 1.96462 4.93912 2.28445 5.14535L3.36832 3.46451ZM3.61314 3.81776C3.64477 3.96326 3.61742 4.11538 3.53707 4.24076L1.8532 3.1616C1.64785 3.48201 1.57795 3.87076 1.65879 4.24262L3.61314 3.81776ZM3.53848 4.23855C3.49849 4.30131 3.44646 4.35549 3.38543 4.39797L2.24293 2.75641C2.08692 2.865 1.95396 3.00346 1.85178 3.16382L3.53848 4.23855ZM3.38543 4.39797C3.32438 4.44045 3.2555 4.47042 3.18277 4.48612L2.76083 2.53113C2.57498 2.57124 2.39896 2.64782 2.24293 2.75641L3.38543 4.39797ZM3.18277 4.48612C3.11005 4.50181 3.03495 4.50293 2.9618 4.4894L3.32555 2.52275C3.13861 2.48818 2.94666 2.49103 2.76083 2.53113L3.18277 4.48612ZM2.9618 4.4894C2.88862 4.47586 2.81888 4.44795 2.75661 4.4073L3.8499 2.73257C3.69073 2.62866 3.51251 2.55734 3.32555 2.52275L2.9618 4.4894ZM2.75979 4.40937L9.95667 9.06874L11.0436 7.38988L3.84672 2.7305L2.75979 4.40937ZM11.0434 9.06889L18.2446 4.40952L17.1582 2.73035L9.95691 7.38973L11.0434 9.06889ZM18.241 4.41187C18.1156 4.49222 17.9635 4.51957 17.818 4.48794L18.2428 2.53359C17.871 2.45275 17.4822 2.52266 17.1618 2.728L18.241 4.41187ZM17.818 4.48794C17.6725 4.45631 17.5454 4.36827 17.4647 4.24312L19.1456 3.15925C18.9393 2.83942 18.6147 2.61443 18.2428 2.53359L17.818 4.48794ZM17.4662 4.24535C17.3853 4.12066 17.357 3.96903 17.3876 3.82358L19.3449 4.23488C19.423 3.86318 19.3508 3.47567 19.1441 3.15702L17.4662 4.24535ZM17.3876 3.82358C17.4182 3.6781 17.5051 3.55068 17.6293 3.4691L18.7272 5.14077C19.0447 4.93227 19.2667 4.6066 19.3449 4.23488L17.3876 3.82358ZM17.6352 3.46524L9.95708 8.43086L11.0432 10.1103L18.7213 5.14463L17.6352 3.46524Z" fill="#AFB4BF" mask="url(#path-3-inside-2)"/>
<mask id="path-5-inside-3" fill="white">
<path d="M2.62538 11.375C2.55372 11.3751 2.48312 11.3576 2.41981 11.324C2.35649 11.2904 2.30239 11.2418 2.26226 11.1825C2.23022 11.1345 2.20797 11.0808 2.19679 11.0242C2.18561 10.9677 2.18571 10.9094 2.19709 10.8529C2.20847 10.7964 2.23091 10.7427 2.26312 10.6949C2.29533 10.6471 2.33667 10.6061 2.38476 10.5743L6.32226 7.94934C6.41818 7.8856 6.53537 7.86225 6.6484 7.88436C6.76143 7.90648 6.86118 7.97227 6.926 8.06746C6.95825 8.11513 6.98078 8.16868 6.99229 8.22506C7.00381 8.28144 7.00409 8.33954 6.99311 8.39603C6.98214 8.45252 6.96013 8.50629 6.92835 8.55426C6.89656 8.60223 6.85563 8.64346 6.80788 8.67559L2.87038 11.3006C2.79796 11.3493 2.71264 11.3752 2.62538 11.375Z"/>
</mask>
<path d="M2.62538 11.375C2.55372 11.3751 2.48312 11.3576 2.41981 11.324C2.35649 11.2904 2.30239 11.2418 2.26226 11.1825C2.23022 11.1345 2.20797 11.0808 2.19679 11.0242C2.18561 10.9677 2.18571 10.9094 2.19709 10.8529C2.20847 10.7964 2.23091 10.7427 2.26312 10.6949C2.29533 10.6471 2.33667 10.6061 2.38476 10.5743L6.32226 7.94934C6.41818 7.8856 6.53537 7.86225 6.6484 7.88436C6.76143 7.90648 6.86118 7.97227 6.926 8.06746C6.95825 8.11513 6.98078 8.16868 6.99229 8.22506C7.00381 8.28144 7.00409 8.33954 6.99311 8.39603C6.98214 8.45252 6.96013 8.50629 6.92835 8.55426C6.89656 8.60223 6.85563 8.64346 6.80788 8.67559L2.87038 11.3006C2.79796 11.3493 2.71264 11.3752 2.62538 11.375Z" fill="#C8CBCE"/>
<path d="M2.26226 11.1825L1.43089 11.7382L1.43376 11.7425L2.26226 11.1825ZM2.38476 10.5743L2.93612 11.4086L2.93946 11.4064L2.38476 10.5743ZM6.32226 7.94934L5.7688 7.11646L5.76756 7.11729L6.32226 7.94934ZM6.926 8.06746L7.75427 7.50712L7.75254 7.50459L6.926 8.06746ZM6.80788 8.67559L7.36259 9.50765L7.36615 9.50525L6.80788 8.67559ZM2.87038 11.3006L2.31568 10.4685L2.31262 10.4706L2.87038 11.3006ZM2.62388 10.375C2.71601 10.3748 2.80677 10.3973 2.88818 10.4405L1.95143 12.2075C2.15948 12.3178 2.39143 12.3753 2.62689 12.375L2.62388 10.375ZM2.88818 10.4405C2.96961 10.4836 3.03917 10.5461 3.09075 10.6225L1.43376 11.7425C1.56561 11.9375 1.74337 12.0972 1.95143 12.2075L2.88818 10.4405ZM3.09362 10.6267C3.13481 10.6883 3.16341 10.7575 3.17779 10.8302L1.21579 11.2182C1.25253 11.404 1.32564 11.5807 1.4309 11.7382L3.09362 10.6267ZM3.17779 10.8302C3.19216 10.9029 3.19204 10.9777 3.1774 11.0504L1.21678 10.6555C1.17937 10.8412 1.17905 11.0324 1.21579 11.2182L3.17779 10.8302ZM3.1774 11.0504C3.16276 11.1231 3.13391 11.1921 3.0925 11.2536L1.43373 10.1362C1.32792 10.2933 1.25419 10.4698 1.21678 10.6555L3.1774 11.0504ZM3.0925 11.2536C3.05109 11.3151 2.99794 11.3677 2.93612 11.4086L1.8334 9.74007C1.67539 9.8445 1.53956 9.97913 1.43373 10.1362L3.0925 11.2536ZM2.93946 11.4064L6.87696 8.78139L5.76756 7.11729L1.83006 9.74229L2.93946 11.4064ZM6.87572 8.78222C6.75239 8.86417 6.60171 8.89419 6.45639 8.86576L6.84041 6.90297C6.46903 6.83031 6.08398 6.90702 5.7688 7.11646L6.87572 8.78222ZM6.45639 8.86576C6.31105 8.83732 6.1828 8.75272 6.09946 8.63034L7.75254 7.50459C7.53955 7.19182 7.2118 6.97563 6.84041 6.90297L6.45639 8.86576ZM6.09774 8.6278C6.05631 8.56656 6.02734 8.49771 6.01252 8.42517L7.97207 8.02496C7.93422 7.83965 7.86018 7.66369 7.75427 7.50713L6.09774 8.6278ZM6.01252 8.42517C5.99771 8.35267 5.99736 8.27797 6.01146 8.20535L7.97477 8.58671C8.01082 8.40111 8.0099 8.21022 7.97207 8.02496L6.01252 8.42517ZM6.01146 8.20535C6.02557 8.13272 6.05387 8.06359 6.09473 8.00192L7.76196 9.10661C7.86639 8.949 7.93871 8.77233 7.97477 8.58671L6.01146 8.20535ZM6.09473 8.00192C6.13559 7.94025 6.18823 7.88724 6.24962 7.84593L7.36615 9.50525C7.52303 9.39969 7.65753 9.26422 7.76196 9.10661L6.09473 8.00192ZM6.25318 7.84354L2.31568 10.4685L3.42508 12.1326L7.36258 9.50764L6.25318 7.84354ZM2.31262 10.4706C2.40573 10.408 2.51543 10.3747 2.62762 10.375L2.62315 12.375C2.90985 12.3756 3.19019 12.2905 3.42815 12.1306L2.31262 10.4706Z" fill="#AFB4BF" mask="url(#path-5-inside-3)"/>
<mask id="path-7-inside-4" fill="white">
<path d="M18.3753 11.3749C18.2896 11.3742 18.2059 11.3484 18.1347 11.3005L14.1972 8.67552C14.1013 8.61137 14.0346 8.51194 14.0117 8.39886C13.9887 8.28578 14.0114 8.16822 14.0747 8.07177C14.1065 8.02368 14.1475 7.98234 14.1953 7.95013C14.2431 7.91793 14.2968 7.89549 14.3533 7.8841C14.4098 7.87272 14.468 7.87262 14.5246 7.8838C14.5811 7.89498 14.6349 7.91723 14.6828 7.94927L18.6203 10.5743C18.6681 10.6064 18.709 10.6476 18.7408 10.6956C18.7726 10.7436 18.7946 10.7973 18.8056 10.8538C18.8165 10.9103 18.8162 10.9684 18.8047 11.0248C18.7932 11.0812 18.7707 11.1347 18.7384 11.1824C18.6983 11.2418 18.6442 11.2904 18.5809 11.3239C18.5176 11.3575 18.447 11.375 18.3753 11.3749Z"/>
</mask>
<path d="M18.3753 11.3749C18.2896 11.3742 18.2059 11.3484 18.1347 11.3005L14.1972 8.67552C14.1013 8.61137 14.0346 8.51194 14.0117 8.39886C13.9887 8.28578 14.0114 8.16822 14.0747 8.07177C14.1065 8.02368 14.1475 7.98234 14.1953 7.95013C14.2431 7.91793 14.2968 7.89549 14.3533 7.8841C14.4098 7.87272 14.468 7.87262 14.5246 7.8838C14.5811 7.89498 14.6349 7.91723 14.6828 7.94927L18.6203 10.5743C18.6681 10.6064 18.709 10.6476 18.7408 10.6956C18.7726 10.7436 18.7946 10.7973 18.8056 10.8538C18.8165 10.9103 18.8162 10.9684 18.8047 11.0248C18.7932 11.0812 18.7707 11.1347 18.7384 11.1824C18.6983 11.2418 18.6442 11.2904 18.5809 11.3239C18.5176 11.3575 18.447 11.375 18.3753 11.3749Z" fill="#C8CBCE"/>
<path d="M18.3753 11.3749L18.3675 12.3749L18.3738 12.3749L18.3753 11.3749ZM18.1347 11.3005L18.6925 10.4705L18.6894 10.4685L18.1347 11.3005ZM14.1972 8.67552L13.6412 9.50673L13.6425 9.50757L14.1972 8.67552ZM14.0747 8.07177L13.2404 7.5204L13.2387 7.52298L14.0747 8.07177ZM14.6828 7.94927L14.1271 8.78063L14.1281 8.78132L14.6828 7.94927ZM18.6203 10.5743L19.1786 9.7446L19.175 9.74222L18.6203 10.5743ZM18.7384 11.1824L17.9102 10.6221L17.91 10.6224L18.7384 11.1824ZM18.3831 10.3749C18.4934 10.3758 18.601 10.409 18.6925 10.4705L17.5769 12.1305C17.8108 12.2877 18.0857 12.3727 18.3675 12.3749L18.3831 10.3749ZM18.6894 10.4685L14.7519 7.84347L13.6425 9.50757L17.58 12.1326L18.6894 10.4685ZM14.7532 7.84431C14.8765 7.92678 14.9622 8.05463 14.9917 8.20001L13.0316 8.59771C13.107 8.96925 13.3261 9.29596 13.6412 9.50673L14.7532 7.84431ZM14.9917 8.20001C15.0212 8.3454 14.9921 8.49655 14.9107 8.62056L13.2387 7.52298C13.0307 7.83989 12.9563 8.22616 13.0316 8.59771L14.9917 8.20001ZM14.909 8.62313C14.8681 8.68496 14.8154 8.73811 14.7539 8.77952L13.6366 7.12075C13.4795 7.22657 13.3449 7.36239 13.2404 7.52041L14.909 8.62313ZM14.7539 8.77952C14.6925 8.82092 14.6234 8.84977 14.5508 8.86441L14.1558 6.90379C13.9701 6.9412 13.7937 7.01493 13.6366 7.12075L14.7539 8.77952ZM14.5508 8.86441C14.4781 8.87905 14.4033 8.87918 14.3306 8.8648L14.7186 6.9028C14.5328 6.86605 14.3415 6.86639 14.1558 6.90379L14.5508 8.86441ZM14.3306 8.8648C14.2579 8.85043 14.1887 8.82182 14.1271 8.78063L15.2386 7.11791C15.0811 7.01264 14.9044 6.93954 14.7186 6.9028L14.3306 8.8648ZM14.1281 8.78132L18.0656 11.4063L19.175 9.74222L15.2375 7.11722L14.1281 8.78132ZM18.0621 11.4039C18.0007 11.3626 17.948 11.3096 17.9072 11.2479L19.5744 10.1432C19.47 9.98565 19.3355 9.85017 19.1786 9.7446L18.0621 11.4039ZM17.9072 11.2479C17.8663 11.1863 17.838 11.1171 17.8239 11.0445L19.7872 10.6631C19.7512 10.4775 19.6788 10.3009 19.5744 10.1432L17.9072 11.2479ZM17.8239 11.0445C17.8098 10.9719 17.8102 10.8972 17.825 10.8247L19.7845 11.2249C19.8223 11.0396 19.8233 10.8487 19.7872 10.6631L17.8239 11.0445ZM17.825 10.8247C17.8398 10.7521 17.8688 10.6833 17.9102 10.6221L19.5667 11.7427C19.6726 11.5862 19.7467 11.4102 19.7845 11.2249L17.825 10.8247ZM17.91 10.6224C17.9615 10.5461 18.0311 10.4836 18.1125 10.4404L19.0493 12.2075C19.2573 12.0972 19.4351 11.9375 19.5669 11.7424L17.91 10.6224ZM18.1125 10.4404C18.1939 10.3973 18.2847 10.3748 18.3768 10.3749L18.3738 12.3749C18.6093 12.3752 18.8412 12.3178 19.0493 12.2075L18.1125 10.4404Z" fill="#AFB4BF" mask="url(#path-7-inside-4)"/>
</svg>
