<svg id="Layer_1" data-name="Layer 1" xmlns="http://www.w3.org/2000/svg" width="2.06mm" height="3.82mm" viewBox="0 0 5.84 10.83"><defs><style>.cls-1{fill:#7a7d82;}</style></defs><path class="cls-1" d="M-1065.53,439c0,.21-.18.38-.42.69l-4,4.42-.08.09h0a.77.77,0,0,1-.53.21.77.77,0,0,1-.77-.78.78.78,0,0,1,.16-.47h0l.1-.11,3.44-3.67h0a.34.34,0,0,0,.12-.12.47.47,0,0,0,.08-.26.51.51,0,0,0-.15-.36h0l-3.53-3.73,0,0a.73.73,0,0,1-.2-.52.77.77,0,0,1,.77-.78.79.79,0,0,1,.58.26l4.26,4.61,0,0A.79.79,0,0,1-1065.53,439Z" transform="translate(1071.36 -433.61)"/></svg>