
<svg id="Layer_1" data-name="Layer 1" xmlns="http://www.w3.org/2000/svg" width="5" height="9" viewBox="0 0 4.34 8.34"><defs><style>.cls-1{fill:#25378D;}</style></defs><path class="cls-1" d="M149.85,288.36l-3.44-3.71a.46.46,0,0,0-.32-.13.45.45,0,0,0-.32.14.47.47,0,0,0-.12.32.44.44,0,0,0,.12.33l3.14,3.38-3.14,3.37a.55.55,0,0,0-.12.24.46.46,0,0,0,0,.26.52.52,0,0,0,.17.22.44.44,0,0,0,.25.08.39.39,0,0,0,.18,0,.45.45,0,0,0,.14-.1l3.44-3.71a.42.42,0,0,0,.13-.32A.44.44,0,0,0,149.85,288.36Z" transform="translate(-145.64 -284.52)"/></svg>