<svg width="129" height="43" viewBox="0 0 129 43" fill="none" xmlns="http://www.w3.org/2000/svg">
<g clip-path="url(#clip0)">
<path d="M126.567 20.62H54.1604C53.9868 20.62 53.8203 20.5526 53.6976 20.4326C53.5748 20.3126 53.5059 20.1498 53.5059 19.9801C53.5059 19.8103 53.5748 19.6476 53.6976 19.5275C53.8203 19.4075 53.9868 19.3401 54.1604 19.3401H126.567C126.741 19.3401 126.907 19.4075 127.03 19.5275C127.153 19.6476 127.222 19.8103 127.222 19.9801C127.222 20.1498 127.153 20.3126 127.03 20.4326C126.907 20.5526 126.741 20.62 126.567 20.62Z" fill="#25378D"/>
<path d="M58.1961 13.0683C58.0849 13.0683 57.9671 13.0683 57.8689 13.0683L57.6234 13.0491C57.4024 13.0471 57.1858 12.9887 56.995 12.8795C56.8347 12.7643 56.6678 12.2587 56.6678 10.2108V3.36305C56.6678 1.31833 56.8412 0.803148 56.995 0.694353C57.187 0.588057 57.4029 0.529798 57.6234 0.524759L57.8689 0.508754C57.9801 0.508754 58.098 0.508754 58.1961 0.508754C58.2943 0.508754 58.4809 0.43196 58.4743 0.271966C58.4739 0.236536 58.4663 0.201542 58.4518 0.16905C58.4374 0.136558 58.4164 0.107225 58.3902 0.0827739C58.3639 0.0583227 58.333 0.0392533 58.2991 0.0266822C58.2652 0.0141111 58.2291 0.00829047 58.1929 0.00957347H53.8106C53.6437 0.0255729 53.4834 0.115175 53.4834 0.26557C53.4798 0.321088 53.4987 0.375753 53.5361 0.417693C53.5735 0.459633 53.6263 0.485453 53.683 0.489556C53.7255 0.489556 53.7845 0.489556 53.7877 0.489556L54.1576 0.524759C54.2851 0.537776 54.4064 0.585436 54.5077 0.662352C54.5667 0.71355 54.6779 0.873547 54.7532 1.39513C54.8182 2.04379 54.8488 2.69529 54.8448 3.34705V10.2204C54.8488 10.8721 54.8182 11.5237 54.7532 12.1723C54.6779 12.6971 54.5667 12.8571 54.5077 12.9083C54.4053 12.9828 54.2844 13.0292 54.1576 13.0427L53.7845 13.0811C53.7507 13.0778 53.7167 13.0778 53.683 13.0811C53.6546 13.0823 53.6267 13.0891 53.6011 13.1011C53.5755 13.1132 53.5526 13.1302 53.534 13.1511C53.5153 13.1721 53.5012 13.1966 53.4925 13.223C53.4838 13.2495 53.4807 13.2774 53.4834 13.3051C53.4834 13.4555 53.6339 13.5419 53.8106 13.5579H58.1863C58.2224 13.5596 58.2584 13.5542 58.2923 13.542C58.3262 13.5298 58.3572 13.511 58.3834 13.4868C58.4097 13.4626 58.4307 13.4335 58.4452 13.4012C58.4597 13.3688 58.4674 13.334 58.4678 13.2987C58.4809 13.1483 58.2976 13.0683 58.1961 13.0683Z" fill="#25378D"/>
<path d="M78.5166 13.0811H78.1893C77.7784 13.0957 77.3731 12.9837 77.0307 12.7611C76.7035 12.4987 76.5562 12.1723 76.4416 11.222L75.2111 0.569563C75.1718 0.419169 75.2307 0.0799808 74.8445 0.0191831C74.7505 0.0233704 74.6602 0.0566062 74.5867 0.114101C74.5132 0.171597 74.4602 0.250391 74.4354 0.339171L68.9895 10.9884L63.3505 0.332775C63.2196 0.0735846 63.0658 0.0127869 62.9414 0.0127869C62.8887 0.0159651 62.8374 0.0308792 62.7915 0.0563888C62.7455 0.0818983 62.7062 0.117327 62.6764 0.159979C62.6142 0.236776 62.6273 0.332772 62.5945 0.479967L61.2429 11.8011C61.148 12.5211 61.0301 12.7611 60.9156 12.8731C60.7214 13.0381 60.4688 13.122 60.212 13.1067H60.117H60.0451C59.9698 13.1067 59.7178 13.1067 59.7178 13.3403C59.7178 13.5739 60.0058 13.5995 60.1629 13.5995H63.4356C63.6418 13.5995 63.9953 13.6347 63.9953 13.3595C63.9953 13.2379 63.8546 13.1131 63.6484 13.1131H63.5633C63.2131 13.1131 62.7615 13.0235 62.6731 12.7931C62.6217 12.6561 62.6016 12.5097 62.6142 12.3643C62.6142 12.2139 62.6142 12.0123 62.6469 11.7499L63.3669 4.11183C64.8593 7.19332 67.0324 11.1004 67.9488 12.7803C68.2074 13.1835 68.3677 13.6123 68.6034 13.6123C68.839 13.6123 68.9568 13.3659 69.235 12.8507L73.8169 3.94544L74.6482 12.1819C74.6678 12.4123 74.7038 12.6331 74.7038 12.8411C74.7038 12.9371 74.7038 12.9755 74.6776 12.9755C74.6514 12.9755 74.4583 13.0875 74.4583 13.3115C74.4552 13.3468 74.4592 13.3824 74.4702 13.4162C74.4812 13.45 74.4989 13.4813 74.5224 13.5084C74.5458 13.5354 74.5744 13.5577 74.6067 13.5739C74.639 13.5901 74.6742 13.5999 74.7103 13.6027H78.2908C78.4675 13.6027 78.8275 13.6027 78.8275 13.3275C78.8209 13.0683 78.5329 13.0875 78.5166 13.0811Z" fill="#25378D"/>
<path d="M126.941 13.0811H126.613C126.203 13.097 125.799 12.9849 125.458 12.7611C125.131 12.4987 124.984 12.1723 124.866 11.222L123.635 0.569563C123.596 0.419169 123.655 0.0799808 123.272 0.0191831C123.177 0.0227059 123.086 0.0556385 123.012 0.113184C122.938 0.170728 122.884 0.249888 122.86 0.339171L117.414 10.9884L111.775 0.332775C111.647 0.0735846 111.49 0.0127869 111.366 0.0127869C111.313 0.0164254 111.262 0.0315338 111.216 0.057004C111.17 0.0824741 111.131 0.117657 111.1 0.159979C111.038 0.236776 111.055 0.332772 111.022 0.479967L109.664 11.8011C109.572 12.5211 109.454 12.7611 109.359 12.8731C109.164 13.0389 108.91 13.1228 108.652 13.1067H108.557H108.485C108.41 13.1067 108.158 13.1067 108.158 13.3403C108.158 13.5739 108.443 13.5995 108.6 13.5995H111.873C112.082 13.5995 112.432 13.6347 112.432 13.3595C112.432 13.2379 112.292 13.1131 112.086 13.1131H112C111.65 13.1131 111.202 13.0235 111.11 12.7931C111.059 12.6561 111.039 12.5097 111.051 12.3643C111.051 12.2139 111.051 12.0123 111.084 11.7499L111.804 4.11183C113.293 7.19332 115.47 11.1004 116.386 12.7803C116.645 13.1835 116.805 13.6123 117.041 13.6123C117.276 13.6123 117.394 13.3659 117.675 12.8507L122.257 3.94544L123.089 12.1819C123.108 12.4123 123.144 12.6331 123.144 12.8411C123.144 12.9371 123.144 12.9755 123.118 12.9755C123.092 12.9755 122.902 13.0875 122.902 13.3115C122.898 13.3466 122.902 13.3822 122.913 13.4159C122.923 13.4497 122.941 13.4811 122.964 13.5082C122.987 13.5353 123.015 13.5576 123.048 13.5739C123.08 13.5901 123.115 13.5999 123.151 13.6027H126.728C126.901 13.6027 127.261 13.6027 127.261 13.3275C127.245 13.0683 126.96 13.0875 126.941 13.0811Z" fill="#25378D"/>
<path d="M107.127 13.1003C106.935 13.0709 106.742 13.0527 106.548 13.0459C105.736 12.9339 105.393 12.3707 105.127 11.8748C104.862 11.3788 104.358 10.3484 102.215 5.139C101.855 4.27823 101.518 3.39826 101.138 2.5311C100.847 1.89112 100.595 1.32474 100.326 0.687961C100.225 0.486369 100.087 0.00319189 99.8026 0.00319189C99.5179 0.00319189 99.3837 0.495974 99.2593 0.793563L94.9818 11.5036C94.4091 12.8603 94 13.0011 93.4927 13.0491C93.0228 13.0441 92.559 12.9453 92.1296 12.7588C91.7002 12.5723 91.3143 12.3019 90.9956 11.9643C90.341 11.3244 89.6865 10.55 88.9141 9.61564L87.605 8.05729L86.9504 7.19972C87.3837 6.99889 87.7823 6.73332 88.1319 6.41255C89.2217 5.41099 89.3952 3.94224 89.3952 3.16787C89.3941 2.76277 89.3061 2.36241 89.137 1.99259C88.9679 1.62277 88.7214 1.29171 88.4134 1.02075C87.7588 0.422374 86.6755 -7.9954e-06 84.5679 0.00319189H80.1954C80.0482 0.00319189 79.8845 0.0639869 79.8682 0.230381C79.9402 0.550369 80.2904 0.476776 80.4671 0.515175H80.7158C80.8482 0.517253 80.9779 0.55245 81.0925 0.617427C81.2071 0.682403 81.3027 0.774995 81.3704 0.886362C81.4194 0.988759 81.498 1.32474 81.498 2.6143V10.0476C81.498 11.9451 81.3671 12.4507 81.318 12.6075C81.1675 13.0331 80.9907 13.0043 80.6242 13.0523L80.4213 13.0715C80.3532 13.0662 80.2857 13.0874 80.2336 13.1306C80.1815 13.1738 80.1489 13.2354 80.1431 13.3019C80.1431 13.4139 80.2609 13.5483 80.4507 13.5579H84.6268C84.8657 13.5579 85.1864 13.5803 85.1864 13.3019C85.1864 13.0235 84.918 13.0683 84.8984 13.0683H84.8362C84.8362 13.0683 84.666 13.0683 84.5515 13.0683L84.3191 13.0491C83.7268 13.0011 83.6646 12.9115 83.5337 12.6235C83.3766 12.1499 83.3504 10.5276 83.3504 10.0636V1.07835C83.3504 0.758359 83.5664 0.806357 84.1031 0.758359H84.3093C85.1571 0.758569 85.9772 1.05345 86.6232 1.59033C87.4708 2.2975 87.605 3.19027 87.605 4.05104C87.6176 4.52232 87.5048 4.98872 87.2777 5.40459C86.9996 5.89639 86.5986 6.3113 86.1122 6.61065C85.6257 6.91 85.0697 7.08403 84.4958 7.11652H84.2929C84.1882 7.11652 83.8806 7.11653 83.8511 7.39492C83.8217 7.67331 84.1326 7.66051 84.2209 7.66051H84.4402C84.6562 7.66051 84.8624 7.6605 85.0686 7.6381C85.6119 7.6381 85.7232 7.8621 85.7919 7.95809L88.0632 10.8796C89.4639 12.6907 89.9352 13.0107 90.2952 13.1931C90.8058 13.4427 91.1461 13.5323 92.3963 13.5515H92.9396H93.0182H93.3454H96.844C96.8931 13.5515 97.1713 13.5227 97.1713 13.2859C97.1713 13.0491 96.8767 13.0587 96.844 13.0587H96.6542C96.4317 13.0587 96.0749 13.0267 96.0749 12.6139C96.099 12.2536 96.1853 11.8998 96.3302 11.5676L97.4658 8.51488C97.5084 8.45728 97.4659 8.47648 97.5215 8.46368H101.599L103.354 12.7131C103.393 12.8091 103.412 12.8635 103.412 12.8635C103.423 12.8899 103.423 12.9193 103.412 12.9456C103.401 12.972 103.38 12.993 103.354 13.0043C103.354 13.0043 103.354 13.0043 103.278 13.0267C103.228 13.0414 103.183 13.0712 103.151 13.112C103.119 13.1527 103.1 13.2024 103.098 13.2539C103.118 13.5739 103.448 13.5323 103.566 13.5323H106.764C106.885 13.5323 107.301 13.5579 107.301 13.2731C107.293 13.2306 107.272 13.1913 107.241 13.1605C107.21 13.1296 107.17 13.1087 107.127 13.1003ZM97.8193 7.60931L99.5015 2.99508L101.275 7.60931H97.8193Z" fill="#25378D"/>
<path d="M67.759 42.984H67.2812C65.7135 42.984 65.0165 42.7856 63.7892 41.768C62.611 40.8081 59.1058 37.0514 57.6364 35.4003V38.7473C57.6364 39.2817 57.6658 41.2048 57.8327 41.7264C57.9014 41.928 57.9505 41.9824 58.0454 42.0464C58.2449 42.1224 58.4565 42.1636 58.6705 42.168L58.9062 42.1904C58.9388 42.194 58.9717 42.194 59.0044 42.1904C59.1413 42.1795 59.2776 42.2182 59.3873 42.2992C59.4261 42.3342 59.4569 42.3768 59.4778 42.4242C59.4986 42.4716 59.5091 42.5228 59.5084 42.5744C59.5065 42.6571 59.4784 42.7373 59.428 42.8037C59.3776 42.8702 59.3073 42.9198 59.2269 42.9456C59.1278 42.9777 59.0236 42.9918 58.9193 42.9872C57.8753 42.9872 58.1764 42.9264 56.6938 42.9264H56.4025C56.1243 42.9264 54.9952 42.968 54.465 42.9872H54.3112C54.199 42.9842 54.092 42.9401 54.0114 42.8636C53.9308 42.7872 53.8824 42.684 53.8759 42.5744C53.8782 42.5059 53.9003 42.4395 53.9397 42.3828C53.9791 42.3262 54.0342 42.2816 54.0985 42.2544C54.1625 42.2276 54.2319 42.2156 54.3014 42.2192H54.4781C54.6661 42.2289 54.8519 42.1758 55.005 42.0688C55.0941 41.9814 55.1545 41.87 55.1785 41.7488C55.2276 41.5856 55.3749 41.0001 55.3749 38.7697V30.738C55.3749 28.8501 55.3029 28.4981 55.2636 28.4117C55.2447 28.3433 55.2113 28.2794 55.1656 28.2243C55.12 28.1692 55.0631 28.1241 54.9985 28.0917C54.7845 27.9995 54.5547 27.9474 54.321 27.9381L54.0592 27.9157C53.9715 27.9109 53.8847 27.8958 53.8006 27.8709C53.7303 27.8432 53.6702 27.7954 53.6282 27.7338C53.5862 27.6721 53.5641 27.5995 53.565 27.5254C53.5635 27.4511 53.584 27.3781 53.6241 27.3151C53.6642 27.252 53.7221 27.2017 53.7908 27.1702C53.8671 27.1419 53.9483 27.1289 54.0297 27.1318H54.1607C55.1425 27.1542 55.3912 27.1926 56.2978 27.1926H56.5661C57.2862 27.1926 57.8753 27.1542 58.5298 27.1318H58.6869C58.7934 27.1296 58.8968 27.1665 58.9768 27.2352C59.0567 27.3039 59.1075 27.3995 59.1189 27.503C59.1224 27.5807 59.1019 27.6576 59.06 27.7238C59.0231 27.7772 58.9747 27.822 58.9181 27.8552C58.8616 27.8884 58.7983 27.909 58.7327 27.9157L58.5233 27.9349C58.0978 27.9861 57.9113 28.0149 57.7771 28.2901C57.6985 28.4661 57.6494 28.8117 57.6527 29.6597V33.9283C60.2186 31.2692 62.1201 29.4933 62.7517 28.7413C63.079 28.3637 63.2033 28.1397 63.1902 28.0501V28.0405C63.129 28.0425 63.0681 28.0315 63.0116 28.0083C62.9551 27.9851 62.9044 27.9503 62.863 27.9061C62.7759 27.7935 62.7351 27.6531 62.7484 27.5125C62.7474 27.4413 62.7671 27.3712 62.8054 27.3106C62.8437 27.2499 62.8988 27.2012 62.9644 27.1702C63.0552 27.1321 63.1537 27.1146 63.2524 27.119C63.4848 27.119 63.8219 27.1798 64.5844 27.1798H65.0852C65.3503 27.1798 65.6579 27.1414 66.8099 27.119H66.9343C67.0535 27.1137 67.1704 27.1526 67.2616 27.2278C67.3007 27.2641 67.3318 27.3077 67.3532 27.3561C67.3746 27.4045 67.3857 27.4566 67.3859 27.5094C67.3849 27.6155 67.3428 27.7172 67.2681 27.7941C67.2014 27.8557 67.1143 27.892 67.0227 27.8965H66.8525C66.6534 27.9052 66.4568 27.9441 66.2699 28.0117C65.6965 28.1597 65.175 28.4572 64.7612 28.8725C63.4193 30.0469 63.2884 30.2965 62.5422 30.9812L61.3837 32.0788C61.0204 32.434 59.9404 33.4707 59.2891 34.1363C62.8892 37.8002 63.259 38.1937 64.8332 39.6913C66.2274 41.016 66.9572 41.6592 67.7787 41.9536C68.1754 42.0876 68.5877 42.1725 69.006 42.2064H69.0878C69.164 42.202 69.2404 42.2106 69.3136 42.232C69.3887 42.2552 69.4543 42.3012 69.5008 42.3634C69.5473 42.4255 69.5723 42.5006 69.5722 42.5776C69.5743 42.6422 69.5583 42.7061 69.526 42.7625C69.4937 42.8189 69.4463 42.8656 69.3889 42.8976C69.3118 42.9404 69.2276 42.9696 69.1401 42.984C68.9505 43.0107 68.759 43.0236 68.5674 43.0224C68.2925 43.0224 68.0045 43.0224 67.7983 43.0224L67.759 42.984Z" fill="#25378D"/>
<path d="M75.7249 42.9648C74.7693 42.9232 74.4649 42.9232 74.2391 42.9232H73.5845C73.4274 42.9232 73.398 42.9424 72.93 42.9648C72.5242 42.9648 72.4358 42.984 72.2231 42.984H71.9547C71.8577 42.9895 71.7605 42.9797 71.6667 42.9552C71.5805 42.9321 71.5044 42.8821 71.45 42.8127C71.3957 42.7434 71.366 42.6586 71.3656 42.5712C71.3675 42.5026 71.3895 42.436 71.4289 42.3793C71.4684 42.3226 71.5236 42.2781 71.5882 42.2512C71.6515 42.2258 71.7193 42.2128 71.7878 42.2128H71.9645C72.4162 42.1712 72.4882 42.0688 72.5209 42.0432C72.6387 41.9664 72.8743 41.4032 72.8482 38.7633V30.1237C72.8482 29.8613 72.8056 28.8117 72.7893 28.7157V28.6805C72.7915 28.5109 72.7438 28.3443 72.6518 28.2005C72.5674 28.1066 72.4623 28.0327 72.3443 27.9844C72.2264 27.9362 72.0987 27.9149 71.9711 27.9221L71.6438 27.9029C71.5324 27.9053 71.4216 27.8879 71.3165 27.8517C71.2387 27.8205 71.1722 27.7673 71.1256 27.6989C71.0789 27.6305 71.0543 27.55 71.0547 27.4678C71.0551 27.3918 71.0795 27.3177 71.1246 27.2559C71.1697 27.194 71.2333 27.1473 71.3067 27.1222C71.3758 27.1024 71.4474 27.0927 71.5194 27.0934C72.3507 27.0934 72.678 27.1542 73.7253 27.1542H74.1213C74.3111 27.1542 74.5206 27.135 74.7366 27.135C75.3191 27.1158 75.9049 27.0934 76.4908 27.0934C78.4937 27.0934 79.8192 27.4422 80.7224 28.2581C81.1224 28.6141 81.4417 29.0479 81.6598 29.5318C81.878 30.0157 81.9901 30.5388 81.989 31.0676C81.989 32.9588 80.7748 34.6707 79.5672 35.7394L80.0221 36.3218L81.4588 38.0914C82.3097 39.1505 83.0363 40.0369 83.7268 40.7345C84.5319 41.5376 85.3436 42.1616 86.7051 42.184H86.8916C87.0113 42.1796 87.1282 42.2196 87.2189 42.296C87.2573 42.3288 87.2882 42.3691 87.3096 42.4143C87.3311 42.4595 87.3425 42.5086 87.3433 42.5584V42.5744C87.3436 42.6717 87.3062 42.7654 87.2385 42.8368C87.1885 42.884 87.1288 42.9205 87.0634 42.9436C86.998 42.9668 86.9283 42.9762 86.8589 42.9712H85.1079C83.7334 42.9712 83.2719 42.84 82.6828 42.536C82.2345 42.3056 81.6814 41.896 80.1399 39.8385L77.6362 36.5394C77.5806 36.4786 77.561 36.4786 77.5413 36.4786H77.5249L75.1227 36.4402V38.3858C75.1227 38.5649 75.1227 39.2529 75.1587 39.9857C75.1656 40.5721 75.2258 41.1568 75.3387 41.7328C75.4075 41.9248 75.45 41.9824 75.558 42.0528C75.7988 42.1502 76.0568 42.2002 76.3173 42.2L76.6446 42.2192H76.7264C76.8113 42.2163 76.8956 42.2339 76.9718 42.2704C77.028 42.3036 77.0742 42.3506 77.1058 42.4068C77.1374 42.463 77.1533 42.5263 77.1519 42.5904C77.1472 42.6804 77.1128 42.7666 77.0538 42.8358C76.9948 42.9051 76.9143 42.9537 76.8246 42.9744C76.6856 43.0087 76.5424 43.0238 76.3991 43.0192C76.1504 43.0192 75.8853 42.9904 75.7446 42.984L75.7249 42.9648ZM75.8428 35.2499C76.1506 35.3053 76.4625 35.3363 76.7755 35.3427H77.1519C77.525 35.3742 77.9001 35.3089 78.2392 35.1532C78.5782 34.9976 78.8692 34.7572 79.0828 34.4563C79.5386 33.7442 79.7665 32.9152 79.7373 32.0756C79.7373 30.8532 79.4362 29.8901 78.7555 29.1733C78.389 28.7829 77.7311 28.2645 76.3893 28.2613C75.9655 28.2294 75.5392 28.2628 75.126 28.3605V35.0099C75.3479 35.1345 75.5945 35.2109 75.8493 35.2339L75.8428 35.2499Z" fill="#25378D"/>
<path d="M92.9922 42.9648H92.9693C92.75 42.9456 92.3573 42.9232 91.9875 42.9232H91.6602C90.6096 42.9232 90.2693 42.984 89.6442 42.984C89.5586 42.9885 89.473 42.9765 89.3922 42.9488C89.3161 42.9177 89.2512 42.8652 89.2058 42.798C89.1603 42.7307 89.1364 42.6518 89.1369 42.5712C89.1357 42.4944 89.1598 42.4192 89.2056 42.3568C89.2474 42.3048 89.3013 42.2631 89.3627 42.2353C89.4242 42.2075 89.4915 42.1943 89.5591 42.1968H89.7456C89.941 42.1947 90.1313 42.1357 90.2922 42.0272C90.41 41.9504 90.6457 41.3873 90.6195 38.7474V30.9364C90.6195 28.9301 90.5638 28.4597 90.4787 28.3029C90.3675 28.0917 90.1515 27.9029 89.294 27.8933H89.2515C89.1694 27.896 89.088 27.8773 89.0158 27.8389C88.9526 27.8068 88.8998 27.758 88.8633 27.6981C88.8269 27.6381 88.8083 27.5695 88.8096 27.4998C88.8095 27.4465 88.8214 27.3939 88.8446 27.3458C88.8678 27.2976 88.9017 27.2551 88.9438 27.2214C89.0296 27.1561 89.1332 27.1171 89.2416 27.1094H89.4053C90.8813 27.151 91.2609 27.1702 91.5391 27.1702H92.102C92.7795 27.1702 92.7108 27.1094 93.7875 27.1094H93.9119C93.9881 27.1093 94.0636 27.1234 94.1344 27.151C94.2075 27.1838 94.2693 27.2366 94.3123 27.3031C94.3553 27.3695 94.3776 27.4467 94.3766 27.5254C94.3758 27.5786 94.3627 27.631 94.3383 27.6786C94.3139 27.7262 94.2789 27.7679 94.2359 27.8005C94.1283 27.874 94.0005 27.9141 93.8693 27.9157L93.6042 27.9349C93.241 27.9829 93.1199 28.0789 93.025 28.2741C92.9104 28.5077 92.8744 28.9685 92.8777 30.9012V38.7505C92.8777 39.2401 92.9104 41.2529 93.0741 41.7264C93.0967 41.8438 93.1646 41.9481 93.2639 42.0176C93.4523 42.112 93.6609 42.1614 93.8726 42.1616L94.1082 42.184C94.1941 42.1879 94.2794 42.1986 94.3635 42.216C94.4448 42.2365 94.5169 42.2829 94.5684 42.3477C94.6199 42.4126 94.648 42.4923 94.6482 42.5744C94.6468 42.6573 94.619 42.7376 94.5685 42.8042C94.518 42.8708 94.4475 42.9202 94.3668 42.9456C94.2676 42.9775 94.1634 42.9916 94.0592 42.9872C93.673 42.9872 93.2966 42.968 92.9759 42.968L92.9922 42.9648Z" fill="#25378D"/>
<path d="M105.069 42.9232H104.548C104.378 42.9232 104.192 42.9456 103.999 42.9456C103.593 42.9648 103.177 42.9648 102.778 42.984H102.624C102.5 42.9763 102.383 42.9239 102.297 42.8368C102.231 42.7635 102.195 42.6689 102.195 42.5712C102.195 42.4945 102.22 42.4197 102.266 42.358C102.313 42.2963 102.379 42.251 102.454 42.2288C102.516 42.2143 102.58 42.2057 102.644 42.2032L103.01 42.1616C103.37 42.0944 103.416 41.9888 103.531 41.7104C103.573 41.608 103.681 41.1761 103.681 39.7233V37.4834C103.705 36.7855 103.551 36.0928 103.233 35.4675C103.027 35.1027 102.82 34.7411 102.532 34.2771L100.222 30.5973C99.1516 28.8821 98.5494 28.3893 98.2581 28.1973C98.0554 28.0746 97.8347 27.9829 97.6036 27.9254C97.4989 27.8838 97.3712 27.9445 97.1519 27.7718C97.1184 27.7379 97.0921 27.6978 97.0746 27.6538C97.0572 27.6099 97.049 27.5629 97.0505 27.5158C97.052 27.4318 97.0817 27.3507 97.1349 27.2849C97.1881 27.219 97.2619 27.1719 97.345 27.151C97.4208 27.131 97.499 27.1214 97.5774 27.1222C98.0225 27.1222 98.4643 27.1446 98.8865 27.1638C99.0763 27.1638 99.2432 27.1862 99.3872 27.183H99.8651C100.372 27.183 100.451 27.1222 101.384 27.1222H101.508C101.577 27.1201 101.646 27.1321 101.711 27.1574C101.772 27.1863 101.824 27.2319 101.859 27.2886C101.894 27.3454 101.912 27.4109 101.911 27.4774C101.91 27.5425 101.891 27.6063 101.857 27.6624C101.824 27.7186 101.775 27.7651 101.717 27.7974C101.632 27.8422 101.583 27.8486 101.583 27.855L101.449 27.919C101.315 27.9894 101.341 28.0054 101.328 28.0757C101.353 28.3114 101.436 28.5375 101.57 28.7349C101.816 29.1957 104.326 33.3812 105.17 34.7571C105.694 33.7715 106.335 32.6548 108.417 29.1733C108.614 28.9211 108.728 28.6166 108.744 28.2997C108.75 28.2189 108.741 28.1377 108.718 28.0598C108.685 27.983 108.669 27.9574 108.59 27.9286L108.4 27.8678C108.337 27.8488 108.278 27.8172 108.227 27.775C108.186 27.7386 108.154 27.694 108.133 27.6443C108.111 27.5946 108.101 27.5409 108.103 27.487C108.102 27.4204 108.121 27.3551 108.157 27.2985C108.193 27.242 108.244 27.1964 108.306 27.167C108.38 27.1322 108.462 27.1146 108.544 27.1158C108.711 27.115 108.877 27.1224 109.042 27.1382C109.696 27.1766 109.821 27.1766 109.876 27.1766H110.086C110.276 27.1766 110.488 27.1574 110.839 27.1574C111.208 27.1382 111.375 27.1158 111.605 27.1158H112.112C112.196 27.1218 112.279 27.1357 112.361 27.1574C112.43 27.1795 112.492 27.2221 112.536 27.2793C112.581 27.3365 112.606 27.4056 112.609 27.4774C112.609 27.5557 112.585 27.6322 112.54 27.6971C112.495 27.762 112.431 27.8125 112.357 27.8422C112.274 27.8749 112.185 27.8913 112.095 27.8902L111.879 27.9094C111.225 27.9574 110.518 28.7157 110.243 29.1157C109.482 30.1398 108.786 31.2084 108.158 32.3156L106.787 34.6355C106.224 35.5955 106.021 35.8483 106.011 37.4802V39.7201C106.011 40.0945 106.051 40.9329 106.074 41.2337C106.071 41.4316 106.115 41.6274 106.201 41.8065C106.25 41.8973 106.323 41.9743 106.411 42.0303C106.499 42.0863 106.6 42.1194 106.705 42.1264L107.01 42.168C107.01 42.168 107.458 42.2032 107.507 42.2H107.592C107.661 42.2003 107.728 42.2133 107.792 42.2384C107.856 42.2654 107.912 42.3098 107.951 42.3665C107.99 42.4233 108.012 42.4899 108.014 42.5584C108.012 42.6412 107.984 42.7213 107.934 42.7878C107.884 42.8542 107.813 42.9038 107.733 42.9296C107.634 42.9617 107.529 42.9758 107.425 42.9712C106.64 42.9712 105.894 42.9104 105.134 42.9104L105.069 42.9232Z" fill="#25378D"/>
<path d="M126.443 42.984H124.48C124.152 42.984 123.275 42.9648 123.004 42.9424C122.844 42.9493 122.686 42.908 122.552 42.824C122.51 42.7916 122.475 42.7503 122.452 42.7032C122.428 42.6562 122.415 42.6045 122.414 42.552C122.41 42.4842 122.426 42.4166 122.459 42.3571C122.493 42.2976 122.543 42.2487 122.604 42.216C122.639 42.1985 122.677 42.1856 122.716 42.1776C122.717 42.1585 122.717 42.1392 122.716 42.12C122.717 42.0595 122.709 41.9992 122.693 41.9408L120.788 37.0002H116.386L115.139 40.5937C114.98 40.9761 114.888 41.3816 114.864 41.7936C114.864 42.0272 114.936 42.0784 115.034 42.1392C115.147 42.1931 115.272 42.2184 115.398 42.2128H115.604C115.676 42.2119 115.748 42.2228 115.817 42.2448C115.89 42.2685 115.954 42.3144 116 42.3759C116.045 42.4375 116.069 42.5114 116.069 42.5872C116.069 42.6666 116.045 42.7442 116 42.8103C115.955 42.8764 115.891 42.9279 115.817 42.9584C115.732 42.9886 115.642 43.0027 115.551 43H115.499C115.146 43 114.845 42.9584 114.543 42.9616H114.462C114.236 42.9616 114.046 42.9392 113.856 42.9392H113.529C112.118 42.9392 112.37 42.9808 111.529 43H111.385C111.133 43 110.904 42.9008 110.878 42.6288V42.5584V42.5328C110.892 42.4587 110.927 42.3897 110.978 42.3333C111.03 42.277 111.096 42.2353 111.169 42.2128C111.276 42.183 111.386 42.17 111.496 42.1744H111.742C112.033 42.1825 112.318 42.0883 112.544 41.9088C112.806 41.6945 113.107 41.2689 113.431 40.4081L118.153 27.7782C118.226 27.499 118.344 27.2332 118.503 26.991C118.546 26.9393 118.599 26.8971 118.659 26.8673C118.72 26.8375 118.786 26.8207 118.854 26.8182C119.161 26.8502 119.24 27.0486 119.335 27.1958C119.413 27.3437 119.479 27.4979 119.531 27.6566C119.796 28.3765 120.13 29.0869 120.421 29.8261C120.84 30.8469 121.217 31.8868 121.609 32.9012C123.979 39.0417 124.522 40.2385 124.826 40.8305C125.118 41.4192 125.481 42.0336 126.312 42.1552C126.594 42.2 126.754 42.1552 126.967 42.2224C127.018 42.2344 127.065 42.2569 127.107 42.2883C127.148 42.3198 127.182 42.3595 127.206 42.4048C127.229 42.4563 127.243 42.5117 127.245 42.568C127.244 42.6219 127.232 42.675 127.208 42.7236C127.184 42.7723 127.15 42.8152 127.108 42.8496C127.046 42.8988 126.973 42.9328 126.895 42.9488C126.78 42.974 126.662 42.9848 126.545 42.9808H126.447L126.443 42.984ZM120.326 35.7523L118.52 30.7285L116.808 35.7523H120.326Z" fill="#25378D"/>
<path d="M21.9306 11.0812C21.5235 11.0812 21.1255 11.1992 20.787 11.4204C20.4484 11.6415 20.1846 11.9559 20.0288 12.3237C19.873 12.6914 19.8322 13.0961 19.9116 13.4866C19.9911 13.877 20.1871 14.2356 20.475 14.5171C20.7629 14.7986 21.1297 14.9903 21.529 15.068C21.9284 15.1456 22.3423 15.1058 22.7184 14.9534C23.0946 14.8011 23.4161 14.5431 23.6423 14.2121C23.8685 13.8811 23.9892 13.492 23.9892 13.0939C23.9892 12.5601 23.7723 12.0481 23.3863 11.6707C23.0002 11.2932 22.4766 11.0812 21.9306 11.0812Z" fill="#25378D"/>
<path d="M0 42.8496V0.0223999H43.8028V42.8496H0ZM0.981832 41.8897H42.8079V0.995166H0.998211V41.8736L0.981832 41.8897Z" fill="#25378D"/>
<path d="M1.27637 21.436C1.27422 18.7873 1.80596 16.1641 2.84117 13.7165C3.87638 11.2688 5.39477 9.04456 7.30959 7.1709C9.2244 5.29725 11.4981 3.8109 14.0007 2.79681C16.5033 1.78271 19.1858 1.26074 21.8948 1.26074C27.3675 1.26074 32.6161 3.38634 36.4858 7.16993C40.3556 10.9535 42.5296 16.0852 42.5296 21.436C42.5296 24.0847 41.9958 26.7074 40.9586 29.1543C39.9214 31.6012 38.4012 33.8242 36.4849 35.6964C34.5685 37.5686 32.2936 39.0532 29.7902 40.0653C27.2868 41.0775 24.6039 41.5973 21.8948 41.5952C16.4265 41.5952 11.1821 39.4713 7.31538 35.6907C3.44867 31.9101 1.27637 26.7825 1.27637 21.436ZM8.02155 7.85889C6.19278 9.63868 4.7421 11.7545 3.75298 14.0846C2.76387 16.4148 2.25586 18.9131 2.2582 21.436C2.25475 23.9574 2.76099 26.4546 3.74781 28.784C4.73464 31.1135 6.1826 33.2293 8.00847 35.0099C9.82965 36.7959 11.9941 38.2121 14.3773 39.177C16.7605 40.1419 19.3154 40.6364 21.8948 40.6321C24.4743 40.6367 27.0293 40.1424 29.4125 39.1775C31.7958 38.2126 33.9602 36.7962 35.7812 35.0099C37.6071 33.2293 39.055 31.1135 40.0419 28.784C41.0287 26.4546 41.5349 23.9574 41.5315 21.436C41.5355 18.914 41.0296 16.4162 40.0427 14.0861C39.0559 11.756 37.6076 9.63973 35.7812 7.85889C33.96 6.07273 31.7955 4.65621 29.4124 3.6908C27.0293 2.72538 24.4744 2.23013 21.8948 2.23351C19.3153 2.23048 16.7606 2.7259 14.3775 3.6913C11.9944 4.65669 9.82993 6.07302 8.00847 7.85889H8.02155Z" fill="#25378D"/>
<path d="M21.895 30.9204H5.09912L13.5003 16.6938L21.4695 3.19666L21.9015 2.4639L30.3027 16.6938L38.7039 30.9204H21.895ZM14.3676 17.1801L6.84024 29.9605H36.9956L29.4682 17.1929L21.9408 4.42543L14.4134 17.1929L14.3676 17.1801Z" fill="#25378D"/>
<path d="M23.0306 17.5929C24.9779 17.3849 27.0757 16.761 27.6583 15.8746C27.7782 15.4989 27.8475 15.1095 27.8645 14.7162C27.8645 14.7162 26.1495 16.073 21.9276 16.073C17.4341 16.073 15.9385 14.7162 15.9385 14.7162C15.9387 15.1095 16.0016 15.5003 16.125 15.8746C16.4523 16.457 17.6763 16.8346 18.8349 17.193C22.6117 18.3065 23.3906 20.3928 23.4986 21.4328C23.4986 22.236 23.7997 23.0871 21.2993 22.0728C19.7742 21.4328 19.6956 22.2296 19.6629 22.4696C19.5843 23.0359 19.6891 26.3382 21.6266 28.2294C23.2629 29.8293 24.3135 29.8293 24.3135 29.8293C24.3135 29.8293 22.4415 27.7558 22.0226 26.2422C21.7768 25.3693 21.741 24.4526 21.9178 23.5639L24.4968 24.3319C24.4968 24.3319 26.8728 20.8696 23.0306 17.5929Z" fill="#25378D"/>
<path d="M22.5689 13.2827L23.5998 12.5467H22.3234L21.9307 11.3596L21.5347 12.5467H20.2583L21.2892 13.2827L20.8965 14.4667L21.9307 13.7339L22.9649 14.4667L22.5689 13.2827Z" fill="white"/>
<path d="M21.9309 10.4028C21.3897 10.4028 20.8607 10.5597 20.4108 10.8536C19.9609 11.1476 19.6102 11.5654 19.4031 12.0542C19.196 12.543 19.1418 13.0809 19.2474 13.5998C19.353 14.1187 19.6136 14.5954 19.9962 14.9695C20.3788 15.3436 20.8664 15.5984 21.3971 15.7016C21.9278 15.8048 22.4779 15.7518 22.9779 15.5494C23.4778 15.3469 23.9052 15.004 24.2058 14.5641C24.5064 14.1242 24.6669 13.607 24.6669 13.0779C24.6669 12.3684 24.3786 11.688 23.8655 11.1863C23.3524 10.6846 22.6565 10.4028 21.9309 10.4028ZM21.9309 14.8538C21.5716 14.8538 21.2204 14.7497 20.9217 14.5545C20.623 14.3594 20.3902 14.082 20.2527 13.7575C20.1153 13.433 20.0793 13.0759 20.1494 12.7314C20.2195 12.3869 20.3925 12.0705 20.6465 11.8221C20.9005 11.5738 21.2241 11.4046 21.5765 11.3361C21.9288 11.2676 22.2941 11.3027 22.626 11.4371C22.9579 11.5716 23.2415 11.7992 23.4411 12.0912C23.6407 12.3833 23.7472 12.7267 23.7472 13.0779C23.7472 13.5489 23.5559 14.0006 23.2152 14.3337C22.8746 14.6667 22.4126 14.8538 21.9309 14.8538Z" fill="#EFB200"/>
</g>
<defs>
<clipPath id="clip0">
<rect width="128.122" height="43" fill="white"/>
</clipPath>
</defs>
</svg>
