<svg width="12" height="14" viewBox="0 0 12 14" fill="none" xmlns="http://www.w3.org/2000/svg">
<path d="M7.99961 6.70025L0.799611 1.70025C0.723726 1.65143 0.636442 1.62319 0.546342 1.61832C0.456242 1.61345 0.366424 1.63211 0.285718 1.67246C0.205012 1.71281 0.136193 1.77347 0.08603 1.84848C0.0358668 1.92348 0.0060835 2.01025 -0.000391961 2.10025L-0.00039378 12.0002C0.0030938 12.0932 0.0292979 12.184 0.0759268 12.2645C0.122556 12.345 0.188194 12.4129 0.267108 12.4622C0.346022 12.5116 0.435809 12.5408 0.528632 12.5474C0.621455 12.5541 0.714492 12.5379 0.799609 12.5002L7.99961 7.50025C8.06784 7.45815 8.12418 7.3993 8.16325 7.32928C8.20232 7.25927 8.22283 7.18042 8.22283 7.10025C8.22283 7.02007 8.20232 6.94123 8.16325 6.87121C8.12418 6.8012 8.06784 6.74235 7.99961 6.70025Z" fill="#25378D"/>
<path d="M11.8496 1.85025L11.8496 12.1502C11.8267 12.3944 11.7093 12.6199 11.5225 12.7787C11.3357 12.9375 11.0942 13.017 10.8496 13.0003C10.605 13.017 10.3635 12.9375 10.1767 12.7787C9.98989 12.6199 9.87251 12.3944 9.84961 12.1502L9.84961 1.85025C9.87251 1.60614 9.98989 1.38063 10.1767 1.22184C10.3635 1.06304 10.605 0.983526 10.8496 1.00025C11.0942 0.983526 11.3357 1.06304 11.5225 1.22184C11.7093 1.38063 11.8267 1.60614 11.8496 1.85025Z" fill="#25378D"/>
</svg>
