<svg width="9" height="13" viewBox="0 0 9 13" fill="none" xmlns="http://www.w3.org/2000/svg"><path d="M2 1V11.3C1.9796 11.5451 1.86293 11.7722 1.67552 11.9315C1.4881 12.0908 1.24521 12.1694 1 12.15C0.755385 12.1667 0.513917 12.0872 0.3271 11.9284C0.140283 11.7696 0.0229043 11.5441 0 11.3V1C0.0229043 0.755886 0.140283 0.530383 0.3271 0.371588C0.513917 0.212794 0.755385 0.133278 1 0.15C1.24521 0.130639 1.4881 0.209208 1.67552 0.368511C1.86293 0.527814 1.9796 0.754876 2 1Z" fill="#25378D"/><path d="M8.02 1V11.3C8.02 11.5652 7.91464 11.8196 7.72711 12.0071C7.53957 12.1946 7.28522 12.3 7.02 12.3C6.75478 12.3 6.50043 12.1946 6.31289 12.0071C6.12536 11.8196 6.02 11.5652 6.02 11.3V1C6.02 0.734784 6.12536 0.48043 6.31289 0.292893C6.50043 0.105357 6.75478 0 7.02 0C7.28522 0 7.53957 0.105357 7.72711 0.292893C7.91464 0.48043 8.02 0.734784 8.02 1Z" fill="#25378D"/></svg>
