<svg width="10" height="19" viewBox="0 0 10 19" fill="none" xmlns="http://www.w3.org/2000/svg">
<path d="M0.311766 8.85281L7.87866 0.803123C8.02675 0.644781 8.22175 0.545784 8.43061 0.522913C8.63947 0.50004 8.84935 0.554701 9.02465 0.677628L9.15947 0.803123L9.27744 0.946547C9.37598 1.10301 9.42859 1.28709 9.42859 1.47543C9.42859 1.66376 9.37598 1.84784 9.27744 2.0043L9.15947 2.14773C9.12279 2.19865 9.07697 2.24131 9.02465 2.27322L2.85654 8.85281C2.68775 9.03409 2.59307 9.27893 2.59307 9.53408C2.59307 9.78923 2.68775 10.0341 2.85654 10.2153L9.02465 16.8308L9.15947 16.9563C9.27838 17.1174 9.34301 17.3162 9.34301 17.521C9.34301 17.7258 9.27838 17.9247 9.15947 18.0858L9.0415 18.2292L8.90668 18.3547C8.75703 18.461 8.58108 18.5178 8.4011 18.5178C8.22111 18.5178 8.04517 18.461 7.89551 18.3547L7.76069 18.2292L0.817348 10.8608L0.193797 10.1795C0.0500266 9.98435 -0.0178854 9.73796 0.0040634 9.49112C0.0260122 9.24429 0.136148 9.01582 0.311766 8.85281Z" fill="#AFB4BF"/>
</svg>
