<svg width="6" height="9" viewBox="0 0 6 9" fill="none" xmlns="http://www.w3.org/2000/svg">
<path d="M5.43901 4.83251L0.924672 8.85735C0.836323 8.93652 0.719988 8.98602 0.595383 8.99745C0.470779 9.00889 0.345571 8.98156 0.240985 8.9201L0.160551 8.85735L0.0901721 8.78564C0.0313846 8.70741 -1.46623e-06 8.61536 -1.45021e-06 8.5212C-1.43418e-06 8.42703 0.0313847 8.33499 0.0901722 8.25676L0.160551 8.18505C0.182434 8.15959 0.209775 8.13826 0.240985 8.1223L3.92083 4.83251C4.02152 4.74186 4.07801 4.61945 4.07801 4.49187C4.07801 4.3643 4.02152 4.24188 3.92083 4.15124L0.240986 0.843515L0.160553 0.780767C0.089614 0.700235 0.0510545 0.6008 0.0510546 0.4984C0.0510546 0.396001 0.089614 0.296566 0.160553 0.216034L0.230932 0.144322L0.311366 0.0815731C0.400648 0.0283873 0.505616 9.08921e-08 0.612993 1.10195e-07C0.720371 1.29498e-07 0.825337 0.0283874 0.914619 0.0815732L0.995052 0.144322L5.13739 3.82853L5.50939 4.16917C5.59517 4.26674 5.63568 4.38993 5.62259 4.51335C5.60949 4.63677 5.54379 4.751 5.43901 4.83251Z" fill="#AFB4BF"/>
</svg>
