<svg width="176" height="36" viewBox="0 0 176 36" fill="none" xmlns="http://www.w3.org/2000/svg">
<path d="M25.8339 0.00999845H9.80812C8.35941 -0.0425298 6.91069 0.112216 5.50413 0.467136C3.34862 1.11877 1.59359 2.71023 0.718174 4.80426C0.175785 6.44684 -0.0630917 8.17459 0.0141918 9.90376V26.0952C-0.0630917 27.8244 0.175785 29.5536 0.718174 31.1947C1.59218 33.2888 3.34722 34.8802 5.50273 35.5319C6.90929 35.8868 8.358 36.0415 9.80672 35.9904H25.8325C27.2812 36.0415 28.7299 35.8882 30.1365 35.5319C32.292 34.8802 34.047 33.2902 34.921 31.1947C35.4634 29.5522 35.7023 27.8244 35.625 26.0952V9.90376C35.7023 8.17459 35.4634 6.44542 34.921 4.80426C34.047 2.71023 32.292 1.11877 30.1365 0.467136C28.7313 0.112216 27.2826 -0.0425298 25.8339 0.00999845Z" fill="#6974A9"/>
<path d="M25.8347 0.514259C27.2357 0.460311 28.6366 0.607958 29.9968 0.951521C30.8497 1.20564 31.6451 1.62445 32.342 2.1838C33.2694 2.92488 33.9987 3.88884 34.4596 4.9891C34.9767 6.57204 35.2043 8.23875 35.1298 9.90403V26.0955C35.2043 27.7608 34.9781 29.4275 34.4596 31.0104C33.9987 32.1107 33.2694 33.0747 32.342 33.8157C31.6465 34.3751 30.8497 34.7939 29.9968 35.048C28.6366 35.3916 27.2357 35.5392 25.8347 35.4853H9.80895C8.40801 35.5392 7.00707 35.3916 5.64688 35.048C4.79395 34.7939 3.99863 34.3751 3.30168 33.8157C2.37427 33.0747 1.645 32.1107 1.18411 31.0104C0.667011 29.4275 0.439376 27.7608 0.513849 26.0955V9.90403C0.439376 8.23875 0.665606 6.57204 1.18411 4.9891C1.645 3.88884 2.37427 2.92488 3.30168 2.1838C3.99723 1.62445 4.79395 1.20564 5.64688 0.951521C7.00707 0.607958 8.40801 0.460311 9.80895 0.514259H25.8347Z" fill="white"/>
<path d="M26.1034 6.52785C26.0921 5.87196 25.7282 5.4205 25.0931 5.52839C25.0931 5.52839 14.7933 7.56706 13.5933 7.81976C12.8148 7.98444 12.5549 8.47707 12.5717 9.30333C12.5689 9.37289 12.5717 22.7889 12.5717 22.7889C12.5717 24.1404 11.4378 23.8196 9.93146 24.2029C7.37267 24.8531 7.2996 25.9959 7.13239 26.3565C6.87103 27.7975 7.20405 29.3918 9.13755 29.8603C9.93146 30.052 10.4275 29.964 11.2158 29.8106C12.4902 29.5636 13.1352 28.9318 13.6945 27.7507C13.9572 27.1956 13.9825 26.2671 13.9825 25.6581C13.9811 21.8221 13.9811 18.1749 13.9811 14.3389C13.9811 13.6987 14.1568 13.4971 14.7806 13.3707C17.8312 12.7603 20.8987 12.1157 23.9479 11.5095C24.6336 11.3718 24.7081 11.7438 24.7081 12.4451C24.7095 15.3171 24.6968 20.0148 24.6968 20.4677C24.6968 22.0861 21.6968 21.0895 19.7746 22.884C19.1001 23.5513 18.9821 24.8063 19.1928 25.492C19.5174 26.5368 20.1877 27.1828 21.2106 27.4057C21.864 27.5491 24.0153 27.7876 25.2856 26.2245C26.1441 25.1669 26.0823 24.5252 26.0823 23.5598L26.1034 6.52785Z" fill="#6974A9"/>
<path d="M54.0316 20.8012H47.3276L45.7187 25.604H42.8789L49.2302 7.83386H52.1796L58.5309 25.604H55.6419L54.0316 20.8012ZM48.0218 18.5851H53.3361L50.7155 10.7896H50.6424L48.0218 18.5851Z" fill="#6974A9"/>
<path d="M72.2291 19.1273C72.2291 23.1549 70.0961 25.7416 66.8783 25.7416C65.2146 25.8296 63.6478 24.9494 62.8441 23.4758H62.7837V29.8913H60.1504V12.6493H62.6979V14.8058H62.7471C63.586 13.3393 65.1556 12.4591 66.8305 12.5144C70.0848 12.5144 72.2291 15.1124 72.2291 19.1273ZM69.5242 19.1273C69.5242 16.5052 68.1837 14.7802 66.1349 14.7802C64.1242 14.7802 62.771 16.5406 62.771 19.1273C62.771 21.7381 64.1242 23.4872 66.1349 23.4872C68.1823 23.4872 69.5242 21.775 69.5242 19.1273Z" fill="#6974A9"/>
<path d="M86.3346 19.1273C86.3346 23.1549 84.2015 25.7416 80.9837 25.7416C79.32 25.8296 77.7533 24.9494 76.9495 23.4758H76.8891V29.8913H74.2559V12.6493H76.8034V14.8058H76.8526C77.6915 13.3393 79.261 12.4591 80.936 12.5144C84.1889 12.5144 86.3346 15.1124 86.3346 19.1273ZM83.6282 19.1273C83.6282 16.5052 82.2877 14.7802 80.239 14.7802C78.2282 14.7802 76.8751 16.5406 76.8751 19.1273C76.8751 21.7381 78.2282 23.4872 80.239 23.4872C82.2877 23.4872 83.6282 21.775 83.6282 19.1273Z" fill="#6974A9"/>
<path d="M88.4551 7.83386H91.0869V25.6054H88.4551V7.83386Z" fill="#6974A9"/>
<path d="M104.787 21.8006C104.189 24.3333 101.83 26.027 99.2651 25.7658C95.5359 25.7658 93.2188 23.2402 93.2188 19.1898C93.2188 15.1253 95.5471 12.4904 99.1555 12.4904C102.702 12.4904 104.934 14.9535 104.934 18.8818V19.7932H95.8773V19.9536C95.793 20.9176 96.1218 21.873 96.7822 22.5758C97.4426 23.2785 98.3686 23.6604 99.327 23.6235C100.604 23.7442 101.808 23.0031 102.289 21.8006H104.787ZM95.8885 17.9334H102.3C102.348 17.066 102.036 16.2184 101.439 15.5952C100.842 14.9705 100.014 14.627 99.1555 14.6454C98.29 14.6398 97.4567 14.9847 96.8441 15.6023C96.23 16.2184 95.8871 17.0575 95.8885 17.9334Z" fill="#6974A9"/>
<path d="M127.644 25.6054V12.5259H127.558L122.255 25.4706H120.231L114.917 12.5259H114.833V25.6054H112.346V7.83386H115.502L121.195 21.8603H121.294L126.973 7.83386H130.143V25.6054H127.644Z" fill="#6974A9"/>
<path d="M144.163 25.6053H141.641V23.3764H141.579C140.885 24.9381 139.294 25.8892 137.605 25.753C136.348 25.8268 135.122 25.337 134.255 24.4128C133.388 23.4886 132.968 22.2265 133.109 20.9629V12.6493H135.742V20.4462C135.742 22.4167 136.668 23.463 138.483 23.463C139.348 23.4914 140.182 23.1379 140.768 22.4948C141.354 21.8517 141.632 20.9814 141.531 20.114V12.6507H144.164L144.163 25.6053Z" fill="#6974A9"/>
<path d="M151.648 12.5016C154.488 12.5016 156.524 14.0916 156.585 16.3816H154.111C154 15.2359 153.039 14.5346 151.577 14.5346C150.149 14.5346 149.199 15.199 149.199 16.2098C149.199 16.9849 149.833 17.5017 151.162 17.8353L153.319 18.3393C155.903 18.9682 156.878 19.9294 156.878 21.8261C156.878 24.1657 154.685 25.7671 151.553 25.7671C148.53 25.7671 146.493 24.2026 146.299 21.8374H148.907C149.091 23.0825 150.077 23.7469 151.675 23.7469C153.246 23.7469 154.235 23.0938 154.235 22.0589C154.235 21.2596 153.748 20.828 152.407 20.483L150.115 19.9166C147.8 19.3501 146.629 18.1562 146.629 16.3589C146.626 14.0661 148.661 12.5016 151.648 12.5016Z" fill="#6974A9"/>
<path d="M158.93 9.23784C158.917 8.60892 159.283 8.03537 159.855 7.78693C160.427 7.53848 161.09 7.66341 161.532 8.10494C161.976 8.54646 162.111 9.21371 161.874 9.79578C161.636 10.3764 161.074 10.7555 160.453 10.7526C159.619 10.7583 158.938 10.0811 158.93 9.23784ZM159.137 12.6493H161.77V25.6054H159.137V12.6493Z" fill="#6974A9"/>
<path d="M173.109 17.1072C172.87 15.6378 171.555 14.5986 170.087 14.7178C168.063 14.7178 166.723 16.43 166.723 19.1274C166.723 21.8858 168.075 23.5497 170.112 23.5497C171.564 23.6959 172.877 22.6752 173.111 21.2214H175.644C175.317 24.0082 172.851 26.0228 170.085 25.7672C166.429 25.7672 164.039 23.2416 164.039 19.1288C164.039 15.1026 166.428 12.4918 170.06 12.4918C172.845 12.2533 175.311 14.3019 175.619 17.1086L173.109 17.1072Z" fill="#6974A9"/>
</svg>
