<svg width="186" height="36" viewBox="0 0 186 36" fill="none" xmlns="http://www.w3.org/2000/svg">
<path d="M137.801 14.4278C137.139 17.816 136.638 21.9455 136.375 23.6526H136.189C135.977 21.8933 135.476 17.7847 134.789 14.4539L133.099 6.16357H127.953V28.5339H131.146V10.0947L131.461 11.8175L134.706 28.5339H137.899L141.092 11.8175L141.433 10.0843V21.1676V28.5339H144.626V6.16357H139.428L137.801 14.4278Z" fill="#6974A9"></path>
<path d="M153.265 25.1714C152.976 25.7822 152.34 26.2103 151.71 26.2103C150.971 26.2103 150.682 25.6256 150.682 24.1847V12.1877H147.039V24.3988C147.039 27.4111 148.016 28.7998 150.18 28.7998C151.658 28.7998 152.846 28.1315 153.663 26.534H153.74L154.055 28.5335H156.907V12.1877H153.265V25.1714Z" fill="#6974A9"></path>
<path d="M163.95 18.6409C162.761 17.7586 162.022 17.1739 162.022 15.8948C162.022 14.9865 162.446 14.4801 163.448 14.4801C164.477 14.4801 164.823 15.2005 164.849 17.6542L167.907 17.5185C168.145 13.5456 166.853 11.8906 163.5 11.8906C160.385 11.8906 158.855 13.3054 158.855 16.2081C158.855 18.8497 160.121 20.0452 162.183 21.6219C163.95 23.0105 164.978 23.7832 164.978 24.9004C164.978 25.7514 164.451 26.3413 163.526 26.3413C162.446 26.3413 161.811 25.3024 161.971 23.4908L158.881 23.543C158.406 26.9312 159.754 28.9046 163.34 28.9046C166.481 28.9046 168.114 27.4376 168.114 24.5036C168.119 21.8411 166.802 20.7709 163.95 18.6409Z" fill="#6974A9"></path>
<path d="M173.605 12.1877H170.123V28.5335H173.605V12.1877Z" fill="#6974A9"></path>
<path d="M171.891 5.73535C170.548 5.73535 169.912 6.24175 169.912 8.0011C169.912 9.81265 170.548 10.2668 171.891 10.2668C173.265 10.2668 173.87 9.81265 173.87 8.0011C173.87 6.32006 173.265 5.73535 171.891 5.73535Z" fill="#6974A9"></path>
<path d="M185.324 22.6396L182.131 22.4778C182.131 25.3596 181.816 26.2888 180.731 26.2888C179.651 26.2888 179.465 25.2499 179.465 21.8617V18.6876C179.465 15.4091 179.677 14.3702 180.757 14.3702C181.759 14.3702 182.023 15.3569 182.023 18.3953L185.19 18.1812C185.402 15.6492 185.087 13.916 184.11 12.9293C183.397 12.2088 182.317 11.8643 180.814 11.8643C177.28 11.8643 175.828 13.7854 175.828 19.1679V21.4598C175.828 27.0041 177.068 28.7895 180.685 28.7895C182.214 28.7895 183.268 28.471 183.981 27.7767C185.009 26.8266 185.402 25.1716 185.324 22.6396Z" fill="#6974A9"></path>
<path d="M61.015 28.0533C60.2865 27.5573 59.7647 26.7847 59.4598 25.7354C59.1498 24.686 59 23.2921 59 21.5484V19.173C59 17.4137 59.1757 15.9989 59.527 14.9339C59.8783 13.8689 60.426 13.091 61.1752 12.6003C61.9243 12.1095 62.906 11.8694 64.1202 11.8694C65.3188 11.8694 66.2747 12.12 66.998 12.6159C67.7213 13.1119 68.2483 13.8898 68.579 14.9496C68.9148 16.0093 69.0802 17.4137 69.0802 19.1783V21.5536C69.0802 23.2973 68.9148 24.6964 68.5893 25.7562C68.2638 26.816 67.7368 27.5887 67.0083 28.0742C66.2798 28.5649 65.2878 28.8051 64.0375 28.8051C62.751 28.7999 61.7435 28.5493 61.015 28.0533ZM65.107 25.4952C65.3085 24.9627 65.4118 24.0909 65.4118 22.8797V17.7843C65.4118 16.6097 65.3085 15.7535 65.107 15.2106C64.9055 14.6676 64.549 14.3962 64.0375 14.3962C63.5467 14.3962 63.1953 14.6676 62.9938 15.2106C62.7923 15.7535 62.689 16.6097 62.689 17.7843V22.8797C62.689 24.0909 62.7872 24.9575 62.9783 25.4952C63.1695 26.0277 63.5208 26.294 64.0323 26.294C64.5438 26.294 64.9003 26.0277 65.107 25.4952Z" fill="#6974A9"></path>
<path d="M117.068 21.585V22.4099C117.068 23.4592 117.099 24.2475 117.161 24.7696C117.223 25.2917 117.352 25.678 117.543 25.9181C117.734 26.1583 118.034 26.2784 118.442 26.2784C118.984 26.2784 119.362 26.0643 119.563 25.6362C119.765 25.2081 119.873 24.4981 119.894 23.501L123.035 23.6889C123.051 23.8299 123.061 24.0283 123.061 24.2736C123.061 25.7824 122.653 26.9153 121.831 27.6618C121.015 28.4084 119.858 28.7842 118.359 28.7842C116.566 28.7842 115.306 28.2152 114.588 27.0771C113.864 25.939 113.508 24.1797 113.508 21.7991V18.9434C113.508 16.4897 113.88 14.699 114.629 13.5714C115.378 12.4437 116.654 11.8799 118.468 11.8799C119.718 11.8799 120.674 12.1096 121.346 12.5742C122.012 13.0389 122.482 13.7541 122.756 14.7356C123.03 15.7118 123.164 17.064 123.164 18.7868V21.585H117.068ZM117.527 14.7042C117.341 14.9339 117.217 15.315 117.161 15.8371C117.099 16.3592 117.068 17.1579 117.068 18.2229V19.3976H119.734V18.2229C119.734 17.1736 119.697 16.3801 119.63 15.8371C119.558 15.2942 119.434 14.9131 119.248 14.6886C119.062 14.4641 118.778 14.3545 118.39 14.3545C117.998 14.3597 117.713 14.4745 117.527 14.7042Z" fill="#6974A9"></path>
<path d="M52.1436 21.2769L48 6.15796H51.6166L53.0685 13.0126C53.4405 14.7041 53.7091 16.1398 53.8848 17.3301H53.9881C54.1121 16.4791 54.386 15.0434 54.8045 13.0387L56.308 6.15796H59.9246L55.7293 21.2769V28.5283H52.1385V21.2769H52.1436Z" fill="#6974A9"></path>
<path d="M80.8332 12.188V28.5337H77.9812L77.666 26.5342H77.5885C76.8135 28.043 75.651 28.8 74.1062 28.8C73.0315 28.8 72.241 28.445 71.7295 27.735C71.218 27.025 70.9648 25.913 70.9648 24.399V12.188H74.6073V24.1902C74.6073 24.9211 74.6848 25.4379 74.845 25.7512C75.0052 26.0644 75.2687 26.2158 75.6355 26.2158C75.9507 26.2158 76.2555 26.1166 76.5448 25.9234C76.8342 25.7303 77.0512 25.4797 77.1907 25.1769V12.188H80.8332Z" fill="#6974A9"></path>
<path d="M99.5167 12.188V28.5337H96.6648L96.3496 26.5342H96.2721C95.4971 28.043 94.3346 28.8 92.7898 28.8C91.7151 28.8 90.9246 28.445 90.4131 27.735C89.9016 27.025 89.6484 25.913 89.6484 24.399V12.188H93.2909V24.1902C93.2909 24.9211 93.3684 25.4379 93.5286 25.7512C93.6888 26.0644 93.9523 26.2158 94.3191 26.2158C94.6343 26.2158 94.9391 26.1166 95.2284 25.9234C95.5178 25.7303 95.7348 25.4797 95.8743 25.1769V12.188H99.5167Z" fill="#6974A9"></path>
<path d="M90.7338 9.11805H87.1172V28.5335H83.5522V9.11805H79.9355V6.15796H90.7338V9.11805Z" fill="#6974A9"></path>
<path d="M111.571 14.7982C111.349 13.7698 110.992 13.0232 110.501 12.5586C110.011 12.094 109.329 11.8642 108.471 11.8642C107.804 11.8642 107.179 12.0574 106.595 12.4385C106.017 12.8196 105.567 13.3208 105.247 13.9473H105.221V5.33325H101.713V28.5337H104.72L105.092 26.9884H105.169C105.448 27.5418 105.872 27.9751 106.435 28.2935C106.998 28.612 107.624 28.7738 108.311 28.7738C109.54 28.7738 110.45 28.1996 111.028 27.0562C111.607 25.9077 111.901 24.117 111.901 21.6842V19.1C111.901 17.2624 111.793 15.8319 111.571 14.7982ZM108.233 21.465C108.233 22.6553 108.187 23.5898 108.089 24.2632C107.99 24.9367 107.83 25.417 107.598 25.7041C107.37 25.9912 107.06 26.1322 106.673 26.1322C106.373 26.1322 106.094 26.0591 105.841 25.9181C105.588 25.7772 105.381 25.5631 105.221 25.276V15.999C105.345 15.5552 105.557 15.1898 105.857 14.9079C106.156 14.626 106.482 14.4798 106.833 14.4798C107.205 14.4798 107.489 14.626 107.691 14.9183C107.892 15.2107 108.032 15.7066 108.114 16.401C108.192 17.0953 108.233 18.082 108.233 19.3611V21.465Z" fill="#6974A9"></path>
<g clip-path="url(#clip0)">
<path d="M18 36C27.9411 36 36 27.9411 36 18C36 8.05887 27.9411 0 18 0C8.05887 0 0 8.05887 0 18C0 27.9411 8.05887 36 18 36Z" fill="#6974A9"></path>
<path d="M18.0009 9.409C22.7259 9.409 26.5918 13.2545 26.5918 17.9999C26.5918 22.7454 22.7463 26.5908 18.0009 26.5908C13.2554 26.5908 9.40998 22.7454 9.40998 17.9999C9.40998 13.2545 13.2759 9.409 18.0009 9.409ZM18.0009 8.59082C12.8054 8.59082 8.5918 12.8045 8.5918 17.9999C8.5918 23.1954 12.8054 27.409 18.0009 27.409C23.1963 27.409 27.41 23.1954 27.41 17.9999C27.41 12.8045 23.1963 8.59082 18.0009 8.59082Z" fill="white"></path>
<path d="M14.7266 22.7045L22.7038 17.7954L14.7266 13.2954V22.7045Z" fill="white"></path>
</g>
<defs>
<clipPath id="clip0">
<rect width="36" height="36" fill="white"></rect>
</clipPath>
</defs>
</svg>