
<svg id="Layer_1" data-name="Layer 1" xmlns="http://www.w3.org/2000/svg" xmlns:xlink="http://www.w3.org/1999/xlink" width="175.95" height="36" viewBox="0 0 175.95 36"><defs><style>.cls-1{fill:#fff;}.cls-2{mask:url(#mask);}.cls-3{mask:url(#mask-2);}.cls-4{fill:#6a74aa;}.cls-5{mask:url(#mask-4);}.cls-6{fill:#b5bee2;}.cls-7{mask:url(#mask-6);}.cls-8{mask:url(#mask-8);}.cls-9{mask:url(#mask-10);}.cls-10{mask:url(#mask-13);}.cls-11{fill:url(#radial-gradient);}</style><mask id="mask" x="0" y="0" width="35.9" height="36" maskUnits="userSpaceOnUse"><g transform="translate(-362.03 -432.5)"><g id="mask0"><path class="cls-1" d="M397.93,432.5H362v36h35.9Z"/></g></g></mask><mask id="mask-2" x="0" y="0" width="36.05" height="36" maskUnits="userSpaceOnUse"><g transform="translate(-362.03 -432.5)"><g id="mask1"><path class="cls-1" d="M373,432.5H370.9a14.27,14.27,0,0,0-2.44.14,6.87,6.87,0,0,0-2.14.86,6,6,0,0,0-2,1.29,8.75,8.75,0,0,0-1.43,1.87,6.09,6.09,0,0,0-.72,2.29,14.27,14.27,0,0,0-.14,2.44v18.22a14.27,14.27,0,0,0,.14,2.44,10.4,10.4,0,0,0,.72,2.29,8.75,8.75,0,0,0,1.43,1.87,9.1,9.1,0,0,0,1.86,1.43,6.22,6.22,0,0,0,2.28.72,13.48,13.48,0,0,0,2.44.14h18.31a14.21,14.21,0,0,0,2.43-.14,11,11,0,0,0,2.29-.72,9.68,9.68,0,0,0,1.86-1.43,9.45,9.45,0,0,0,1.43-1.87,6.08,6.08,0,0,0,.71-2.29,13.48,13.48,0,0,0,.14-2.44V441.39a14.27,14.27,0,0,0-.14-2.44,11,11,0,0,0-.71-2.29,9.45,9.45,0,0,0-1.43-1.87,9.68,9.68,0,0,0-1.86-1.43,6.27,6.27,0,0,0-2.29-.72,13.42,13.42,0,0,0-2.43-.14H373Z"/></g></g></mask><mask id="mask-4" x="17.88" y="20.37" width="8.44" height="9.61" maskUnits="userSpaceOnUse"><g transform="translate(-362.03 -432.5)"><g id="mask3"><path class="cls-1" d="M379.91,456.88l6.29,4.59c.29.29.72.43,1,.72.15,0,.29.14.43.14h.57l.15-.14v-.72c-.15-.43-.29-.86-.43-1.29l-2.43-7.31Z"/></g></g></mask><mask id="mask-6" x="4.58" y="13.77" width="9.87" height="6.6" maskUnits="userSpaceOnUse"><g transform="translate(-362.03 -432.5)"><g id="mask5"><path class="cls-1" d="M368.75,446.27h-1.29a.54.54,0,0,0-.43.14c-.14,0-.14.15-.28.15l-.14.14V447c0,.14,0,.14.14.28l.28.29a2.56,2.56,0,0,1,1,.72l6.29,4.59,2.15-6.6Z"/></g></g></mask><mask id="mask-8" x="9.58" y="20.37" width="8.44" height="9.61" maskUnits="userSpaceOnUse"><g transform="translate(-362.03 -432.5)"><g id="mask7"><path class="cls-1" d="M371.9,460.18a4.29,4.29,0,0,1-.29,1.29v.72l.14.14a.15.15,0,0,1,.15.15h.28c.15,0,.29-.15.43-.15.29-.28.72-.43,1-.71l6.3-4.59-3.44-2.73-2-1.43Z"/></g></g></mask><mask id="mask-10" x="21.31" y="13.77" width="9.87" height="6.6" maskUnits="userSpaceOnUse"><g transform="translate(-362.03 -432.5)"><g id="mask9"><path class="cls-1" d="M383.34,446.27l2.15,6.6,6.29-4.59a6.41,6.41,0,0,0,1-.86l.29-.29c0-.14.14-.14.14-.29v-.28s0-.15-.14-.15a.49.49,0,0,0-.29-.14h-9.44Z"/></g></g></mask><mask id="mask-13" x="13.94" y="4.53" width="8" height="10.47" maskUnits="userSpaceOnUse"><g transform="translate(-362.03 -432.5)"><g id="mask12"><path class="cls-1" d="M379.76,437.09a.14.14,0,0,0-.14.14c-.14.15-.28.29-.28.43-.15.43-.29.72-.43,1.15l-2.44,7.46h7l-2.43-7.46c-.14-.43-.28-.72-.43-1.15,0-.14-.14-.28-.14-.43a.14.14,0,0,0-.14-.14h-.29C379.91,437.09,379.76,437,379.76,437.09Z"/></g></g></mask><radialGradient id="radial-gradient" cx="8274.33" cy="-9646.52" r="1" gradientTransform="matrix(0.04, 0, 0, -0.04, -1.04, 64.58)" gradientUnits="userSpaceOnUse"><stop offset="0" stop-color="#fff"/><stop offset="1" stop-color="#b6bfe2"/></radialGradient></defs><g class="cls-2"><g class="cls-3"><path class="cls-4" d="M397.93,432.5H362v36h35.9Z" transform="translate(-362.03 -432.5)"/></g></g><path class="cls-4" d="M406.23,442.25a1.58,1.58,0,0,1,1.57-1.57,1.46,1.46,0,0,1,1.43,1.57,1.44,1.44,0,0,1-1.43,1.44A1.57,1.57,0,0,1,406.23,442.25Zm.14,3.3h2.72V458.6h-2.72Zm9.73,13.05V443.11h-5.44v-2.29h13.59v2.44h-5.43v15.49Zm19.31,0h-2.58v-2.29a4,4,0,0,1-4,2.44c-2.86,0-4.58-1.87-4.58-4.74v-8.46H427v7.75c0,2,1,3,2.72,3a3,3,0,0,0,3.14-3.3v-7.46h2.72Zm2.72-13.05h2.57v2.15a4,4,0,0,1,4-2.29c2.86,0,4.43,1.86,4.43,4.87v8.32h-2.72v-7.74c0-2-.85-3-2.71-3s-3,1.29-3,3.3v7.45H438Zm24.74,9.18c-.43,2.3-2.71,4-5.57,4-3.72,0-6.16-2.58-6.16-6.6s2.29-6.74,6-6.74,5.87,2.44,5.87,6.45v.86h-9.16v.15a3.47,3.47,0,0,0,3.44,3.73,3,3,0,0,0,3-1.87Zm-9-3.87h6.44a3,3,0,0,0-3.15-3.3A3.44,3.44,0,0,0,453.86,450.86Zm16-5.45c2.86,0,4.87,1.58,5,3.87h-2.43a2.31,2.31,0,0,0-2.58-1.86c-1.43,0-2.43.71-2.43,1.72,0,.71.57,1.29,2,1.58l2.15.57c2.57.57,3.58,1.58,3.58,3.44,0,2.3-2.15,4-5.44,4-3,0-5.15-1.58-5.29-3.88H467c.15,1.3,1.15,1.87,2.86,1.87s2.58-.72,2.58-1.72-.43-1.29-1.86-1.58l-2.29-.57c-2.29-.58-3.58-1.72-3.58-3.59C464.88,447,466.88,445.41,469.88,445.41Zm14.74,8.17c.14,1.72,1.86,2.87,4.29,2.87s3.86-1.15,3.86-2.72-1-2.15-3.29-2.73l-2.29-.57c-3.29-.86-4.72-2.3-4.72-4.73,0-3,2.72-5.17,6.44-5.17s6.29,2.15,6.43,5.17h-2.71c-.15-1.73-1.58-2.87-3.72-2.87s-3.58,1.14-3.58,2.72c0,1.29,1,2,3.29,2.58l2,.43c3.58.86,5.15,2.3,5.15,4.88,0,3.3-2.71,5.45-6.86,5.45s-6.58-2-6.73-5.31Zm16.59-11v3h2.43v2.15h-2.43v7.17c0,1.15.43,1.58,1.57,1.58h.86v2.15a3.8,3.8,0,0,1-1.43.15c-2.57,0-3.58-1-3.58-3.45v-7.45h-1.85v-2.3h1.85v-3Zm3.43,9.61c0-4,2.43-6.6,6.15-6.6s6.15,2.58,6.15,6.6-2.43,6.6-6.15,6.6S504.64,456.17,504.64,452.15Zm9.59,0c0-2.87-1.29-4.45-3.44-4.45s-3.43,1.72-3.43,4.45,1.29,4.45,3.43,4.45S514.23,454.87,514.23,452.15Zm4.86-6.6h2.58v2.15a3.09,3.09,0,0,1,3.14-2.29c.43,0,.72,0,.86.14V448a2.48,2.48,0,0,0-1.14-.14c-1.72,0-2.72,1.14-2.72,3v7.74h-2.72Zm18.74,9.18c-.43,2.3-2.72,4-5.58,4-3.72,0-6.15-2.58-6.15-6.6s2.29-6.74,6-6.74c3.57,0,5.86,2.44,5.86,6.45v.86h-9.15v.15a3.47,3.47,0,0,0,3.43,3.73,3,3,0,0,0,3-1.87Zm-9-3.87h6.43a3,3,0,0,0-3.14-3.3A3.42,3.42,0,0,0,528.82,450.86Z" transform="translate(-362.03 -432.5)"/><g class="cls-2"><g class="cls-5"><path class="cls-6" d="M388.35,452.87h-8.44v9.61h8.44Z" transform="translate(-362.03 -432.5)"/></g></g><g class="cls-2"><g class="cls-7"><path class="cls-6" d="M376.48,446.27h-9.87v6.6h9.87Z" transform="translate(-362.03 -432.5)"/></g></g><g class="cls-2"><g class="cls-8"><path class="cls-6" d="M380.05,452.87h-8.44v9.61h8.44Z" transform="translate(-362.03 -432.5)"/></g></g><g class="cls-2"><g class="cls-9"><path class="cls-6" d="M393.21,446.27h-9.87v6.6h9.87Z" transform="translate(-362.03 -432.5)"/></g></g><g class="cls-2"><path class="cls-1" d="M376.47,446.27l-2.14,6.6,2.14,1.43,3.44,2.58,5.58-4-2.15-6.6Z" transform="translate(-362.03 -432.5)"/></g><g class="cls-2"><g class="cls-10"><path class="cls-11" d="M384,437.5h-8v10h8Z" transform="translate(-362.03 -432.5)"/></g></g></svg>