<svg width="36" height="36" viewBox="0 0 36 36" fill="none" xmlns="http://www.w3.org/2000/svg">
<path d="M35.5 18C35.5 27.665 27.665 35.5 18 35.5C8.33502 35.5 0.500001 27.665 0.500002 18C0.500002 8.33501 8.33502 0.499998 18 0.499998C27.665 0.499999 35.5 8.33502 35.5 18Z" fill="white" stroke="#AFB4BF"/>
<g clip-path="url(#clip0)">
<path d="M13.201 17.0091L18.8437 11.2069C18.9541 11.0928 19.0996 11.0214 19.2553 11.0049C19.4111 10.9884 19.5676 11.0278 19.6983 11.1164L19.7988 11.2069L19.8868 11.3103C19.9603 11.4231 19.9995 11.5557 19.9995 11.6915C19.9995 11.8272 19.9603 11.9599 19.8868 12.0727L19.7988 12.1761C19.7715 12.2128 19.7373 12.2435 19.6983 12.2665L15.0986 17.0091C14.9728 17.1398 14.9022 17.3162 14.9022 17.5001C14.9022 17.684 14.9728 17.8605 15.0986 17.9912L19.6983 22.7596L19.7988 22.85C19.8875 22.9661 19.9357 23.1095 19.9357 23.2571C19.9357 23.4047 19.8875 23.5481 19.7988 23.6642L19.7109 23.7675L19.6103 23.858C19.4987 23.9347 19.3675 23.9756 19.2333 23.9756C19.0991 23.9756 18.9679 23.9347 18.8563 23.858L18.7557 23.7675L13.578 18.4564L13.113 17.9653C13.0058 17.8247 12.9552 17.6471 12.9715 17.4692C12.9879 17.2913 13.07 17.1266 13.201 17.0091Z" fill="#AFB4BF"/>
</g>
<defs>
<clipPath id="clip0">
<rect width="7" height="13" fill="white" transform="translate(20 24) rotate(-180)"/>
</clipPath>
</defs>
</svg>
