<svg width="19" height="18" viewBox="0 0 19 18" fill="none" xmlns="http://www.w3.org/2000/svg">
    <g clip-path="url(#clip0)">
    <path d="M9.43505 4.64795C9.26774 4.64795 9.10419 4.69756 8.96507 4.79051C8.82596 4.88347 8.71753 5.01558 8.6535 5.17016C8.58948 5.32473 8.57273 5.49482 8.60537 5.65892C8.63801 5.82301 8.71857 5.97374 8.83688 6.09205C8.95519 6.21036 9.10592 6.29092 9.27002 6.32356C9.43411 6.35621 9.6042 6.33945 9.75878 6.27543C9.91335 6.2114 10.0455 6.10297 10.1384 5.96386C10.2314 5.82475 10.281 5.66119 10.281 5.49388C10.281 5.26953 10.1919 5.05436 10.0332 4.89572C9.87457 4.73707 9.65941 4.64795 9.43505 4.64795Z" fill="#25378D"/>
    <path d="M0.424316 18V0H18.4243V18H0.424316ZM0.827783 17.5965H18.0155V0.408846H0.834508V17.5898L0.827783 17.5965Z" fill="#25378D"/>
    <path d="M0.948853 9.00137C0.948853 6.75424 1.84152 4.59915 3.43048 3.01019C5.01944 1.42123 7.17453 0.528564 9.42165 0.528564H9.42838C11.6761 0.528564 13.8319 1.42102 15.4219 3.00978C17.012 4.59855 17.9061 6.75362 17.9079 9.00137C17.9079 11.2485 17.0152 13.4036 15.4263 14.9925C13.8373 16.5815 11.6822 17.4742 9.4351 17.4742C7.18798 17.4742 5.03289 16.5815 3.44393 14.9925C1.85497 13.4036 0.962301 11.2485 0.962301 9.00137H0.948853ZM3.72067 3.29366C2.96901 4.04185 2.37278 4.93134 1.96631 5.91092C1.55985 6.8905 1.35118 7.94081 1.35232 9.00137C1.35097 10.0611 1.55904 11.1106 1.96455 12.0897C2.37007 13.0687 2.96504 13.958 3.71529 14.7064C4.46357 15.4573 5.35297 16.0528 6.33231 16.4585C7.31165 16.8643 8.36158 17.0723 9.42165 17.0707C10.4817 17.0728 11.5316 16.8651 12.511 16.4596C13.4904 16.054 14.3798 15.4586 15.128 14.7077C15.8784 13.9592 16.4735 13.0697 16.879 12.0904C17.2845 11.1111 17.4925 10.0613 17.491 9.00137C17.4928 7.94139 17.285 6.89152 16.8794 5.91218C16.4739 4.93285 15.8787 4.04339 15.128 3.295C14.3794 2.54465 13.4899 1.94962 12.5106 1.54411C11.5313 1.13859 10.4816 0.930583 9.42165 0.932031C8.36182 0.930406 7.31212 1.1382 6.33284 1.54349C5.35356 1.94877 4.46401 2.54355 3.71529 3.29366H3.72067Z" fill="#25378D"/>
    <path d="M9.42163 12.9862H2.51965L5.97198 7.00685L9.24679 1.33545L9.42432 1.02612L12.8766 7.00685L16.329 12.9862H9.42163ZM6.32838 7.21127L3.23513 12.5828H15.6216L12.5283 7.21665L9.43508 1.85054L6.34183 7.21665L6.32838 7.21127Z" fill="#25378D"/>
    <path d="M9.88825 7.3874C10.6885 7.29999 11.5505 7.03773 11.7899 6.6652C11.8397 6.50695 11.8682 6.34277 11.8747 6.177C11.8747 6.177 11.1699 6.74589 9.43502 6.74589C7.58849 6.74589 6.97388 6.177 6.97388 6.177C6.97372 6.3423 6.99959 6.5066 7.05054 6.66385C7.18503 6.90862 7.68801 7.06732 8.1641 7.21795C9.71611 7.68462 10.0362 8.56149 10.0806 9.00127C10.0806 9.33884 10.2043 9.69658 9.17681 9.27025C8.55009 9.00127 8.51781 9.33615 8.50436 9.43702C8.47208 9.67506 8.51512 11.063 9.3113 11.8578C9.98374 12.5303 10.4154 12.5303 10.4154 12.5303C10.4154 12.5303 9.64617 11.6588 9.47403 11.0226C9.37406 10.6546 9.36071 10.2684 9.43502 9.89428L10.4908 10.2117C10.4908 10.2117 11.4672 8.76188 9.88825 7.3874Z" fill="#25378D"/>
    <path d="M9.69864 5.57317L10.1223 5.26385H9.59777L9.43638 4.76489L9.27365 5.26385H8.74915L9.17279 5.57317L9.0114 6.07078L9.43638 5.7628L9.86137 6.07078L9.69864 5.57317Z" fill="white"/>
    <path d="M9.435 4.36279C9.21263 4.36279 8.99525 4.42873 8.81036 4.55228C8.62546 4.67582 8.48135 4.85142 8.39625 5.05686C8.31116 5.2623 8.28889 5.48837 8.33227 5.70647C8.37566 5.92456 8.48274 6.1249 8.63998 6.28214C8.79722 6.43938 8.99755 6.54646 9.21565 6.58985C9.43375 6.63323 9.65982 6.61096 9.86526 6.52586C10.0707 6.44077 10.2463 6.29666 10.3698 6.11176C10.4934 5.92687 10.5593 5.70949 10.5593 5.48712C10.5593 5.18893 10.4409 4.90295 10.23 4.6921C10.0192 4.48125 9.73319 4.36279 9.435 4.36279ZM9.435 6.23353C9.28737 6.23353 9.14306 6.18976 9.02031 6.10774C8.89757 6.02572 8.8019 5.90915 8.7454 5.77276C8.68891 5.63637 8.67413 5.48629 8.70293 5.3415C8.73173 5.19671 8.80282 5.06371 8.9072 4.95933C9.01159 4.85494 9.14459 4.78385 9.28938 4.75505C9.43417 4.72625 9.58425 4.74103 9.72064 4.79752C9.85703 4.85402 9.9736 4.94969 10.0556 5.07244C10.1376 5.19518 10.1814 5.33949 10.1814 5.48712C10.1816 5.58519 10.1624 5.68233 10.125 5.77297C10.0875 5.86361 10.0325 5.94596 9.96319 6.01531C9.89384 6.08466 9.81149 6.13963 9.72085 6.17708C9.63021 6.21453 9.53307 6.23371 9.435 6.23353Z" fill="#EFB200"/>
    </g>
    <defs>
    <clipPath id="clip0">
    <rect width="18" height="18" fill="white" transform="translate(0.424316)"/>
    </clipPath>
    </defs>
    </svg>
