<svg width="16" height="17" viewBox="0 0 16 17" fill="none" xmlns="http://www.w3.org/2000/svg">
<path d="M14.7143 11.71L10.1343 16.29C9.74432 16.68 9.10432 16.68 8.71432 16.29C8.32432 15.9 8.32432 15.26 8.71432 14.87L11.5943 12H1.42432C0.874316 12 0.424316 11.55 0.424316 11V1C0.424316 0.45 0.874316 0 1.42432 0C1.97432 0 2.42432 0.45 2.42432 1V10H11.5943L8.71432 7.13C8.32432 6.74 8.32432 6.1 8.71432 5.71C9.10432 5.32 9.74432 5.32 10.1343 5.71L14.7143 10.29C15.1043 10.68 15.1043 11.32 14.7143 11.71Z" fill="#AFB4BF"/>
</svg>
